M48
; DRILL file {KiCad (5.1.6-0-10_14)} date Monday, August 17, 2020 at 05:45:12 PM
; FORMAT={-:-/ absolute / metric / decimal}
; #@! TF.CreationDate,2020-08-17T17:45:12+02:00
; #@! TF.GenerationSoftware,Kicad,Pcbnew,(5.1.6-0-10_14)
; #@! TF.FileFunction,Plated,1,2,PTH
FMAT,2
METRIC
T1C0.800
T2C1.000
T3C1.500
T4C3.200
%
G90
G05
T1
X88.9Y-48.26
X88.9Y-58.42
X93.98Y-48.26
X93.98Y-58.42
X180.34Y-48.26
X180.34Y-58.42
X175.26Y-48.26
X175.26Y-58.42
T2
X107.95Y-57.15
X109.335Y-54.31
X110.72Y-57.15
X112.105Y-54.31
X113.49Y-57.15
X114.875Y-54.31
X116.26Y-57.15
X117.645Y-54.31
X119.03Y-57.15
X194.31Y-57.15
X195.695Y-54.31
X197.08Y-57.15
X198.465Y-54.31
X199.85Y-57.15
X201.235Y-54.31
X202.62Y-57.15
X204.005Y-54.31
X205.39Y-57.15
T3
X90.17Y-128.27
X96.52Y-125.73
X176.53Y-71.12
X182.88Y-68.58
X214.63Y-128.27
X220.98Y-125.73
X195.58Y-128.27
X201.93Y-125.73
X90.17Y-71.12
X96.52Y-68.58
X109.22Y-71.12
X115.57Y-68.58
X128.27Y-90.17
X134.62Y-87.63
X176.53Y-109.22
X182.88Y-106.68
X109.22Y-128.27
X115.57Y-125.73
X176.53Y-128.27
X182.88Y-125.73
X128.27Y-128.27
X134.62Y-125.73
X214.63Y-109.22
X220.98Y-106.68
X90.17Y-109.22
X96.52Y-106.68
X195.58Y-109.22
X201.93Y-106.68
X128.27Y-71.12
X134.62Y-68.58
X214.63Y-90.17
X220.98Y-87.63
X195.58Y-90.17
X201.93Y-87.63
X109.22Y-90.17
X115.57Y-87.63
X176.53Y-90.17
X182.88Y-87.63
X214.63Y-71.12
X220.98Y-68.58
X90.17Y-90.17
X96.52Y-87.63
X109.22Y-109.22
X115.57Y-106.68
X195.58Y-71.12
X201.93Y-68.58
X128.27Y-109.22
X134.62Y-106.68
T4
X100.99Y-55.73
X125.99Y-55.73
X187.35Y-55.73
X212.35Y-55.73
T0
M30
