G04 #@! TF.GenerationSoftware,KiCad,Pcbnew,(5.1.6-0-10_14)*
G04 #@! TF.CreationDate,2020-08-17T17:45:07+02:00*
G04 #@! TF.ProjectId,synthcart-ctrl,73796e74-6863-4617-9274-2d6374726c2e,rev?*
G04 #@! TF.SameCoordinates,Original*
G04 #@! TF.FileFunction,Copper,L1,Top*
G04 #@! TF.FilePolarity,Positive*
%FSLAX46Y46*%
G04 Gerber Fmt 4.6, Leading zero omitted, Abs format (unit mm)*
G04 Created by KiCad (PCBNEW (5.1.6-0-10_14)) date 2020-08-17 17:45:07*
%MOMM*%
%LPD*%
G01*
G04 APERTURE LIST*
G04 #@! TA.AperFunction,ComponentPad*
%ADD10C,2.200000*%
G04 #@! TD*
G04 #@! TA.AperFunction,ComponentPad*
%ADD11C,1.600000*%
G04 #@! TD*
G04 #@! TA.AperFunction,ComponentPad*
%ADD12O,1.600000X1.600000*%
G04 #@! TD*
G04 #@! TA.AperFunction,ComponentPad*
%ADD13R,1.600000X1.600000*%
G04 #@! TD*
G04 #@! TA.AperFunction,ComponentPad*
%ADD14C,4.000000*%
G04 #@! TD*
G04 #@! TA.AperFunction,Conductor*
%ADD15C,0.250000*%
G04 #@! TD*
G04 APERTURE END LIST*
D10*
X128270000Y-128270000D03*
X134620000Y-125730000D03*
X115570000Y-125730000D03*
X109220000Y-128270000D03*
X90170000Y-128270000D03*
X96520000Y-125730000D03*
X134620000Y-106680000D03*
X128270000Y-109220000D03*
X109220000Y-109220000D03*
X115570000Y-106680000D03*
X96520000Y-106680000D03*
X90170000Y-109220000D03*
X128270000Y-90170000D03*
X134620000Y-87630000D03*
X115570000Y-87630000D03*
X109220000Y-90170000D03*
X90170000Y-90170000D03*
X96520000Y-87630000D03*
X134620000Y-68580000D03*
X128270000Y-71120000D03*
X109220000Y-71120000D03*
X115570000Y-68580000D03*
X96520000Y-68580000D03*
X90170000Y-71120000D03*
D11*
X93980000Y-48260000D03*
D12*
X93980000Y-58420000D03*
X88900000Y-58420000D03*
D11*
X88900000Y-48260000D03*
D13*
X107950000Y-57150000D03*
D11*
X110720000Y-57150000D03*
X113490000Y-57150000D03*
X116260000Y-57150000D03*
X119030000Y-57150000D03*
X109335000Y-54310000D03*
X112105000Y-54310000D03*
X114875000Y-54310000D03*
X117645000Y-54310000D03*
D14*
X125990000Y-55730000D03*
X100990000Y-55730000D03*
X187350000Y-55730000D03*
X212350000Y-55730000D03*
D11*
X204005000Y-54310000D03*
X201235000Y-54310000D03*
X198465000Y-54310000D03*
X195695000Y-54310000D03*
X205390000Y-57150000D03*
X202620000Y-57150000D03*
X199850000Y-57150000D03*
X197080000Y-57150000D03*
D13*
X194310000Y-57150000D03*
D11*
X175260000Y-48260000D03*
D12*
X175260000Y-58420000D03*
X180340000Y-58420000D03*
D11*
X180340000Y-48260000D03*
D10*
X176530000Y-71120000D03*
X182880000Y-68580000D03*
X201930000Y-68580000D03*
X195580000Y-71120000D03*
X214630000Y-71120000D03*
X220980000Y-68580000D03*
X182880000Y-87630000D03*
X176530000Y-90170000D03*
X195580000Y-90170000D03*
X201930000Y-87630000D03*
X220980000Y-87630000D03*
X214630000Y-90170000D03*
X176530000Y-109220000D03*
X182880000Y-106680000D03*
X201930000Y-106680000D03*
X195580000Y-109220000D03*
X214630000Y-109220000D03*
X220980000Y-106680000D03*
X182880000Y-125730000D03*
X176530000Y-128270000D03*
X195580000Y-128270000D03*
X201930000Y-125730000D03*
X220980000Y-125730000D03*
X214630000Y-128270000D03*
D15*
X106680000Y-71120000D02*
X93980000Y-58420000D01*
X109220000Y-90170000D02*
X109220000Y-109220000D01*
X109220000Y-71120000D02*
X106680000Y-71120000D01*
X109220000Y-109220000D02*
X109220000Y-128270000D01*
X109220000Y-71120000D02*
X109220000Y-90170000D01*
X93980000Y-48260000D02*
X88900000Y-48260000D01*
X106055000Y-48260000D02*
X93980000Y-48260000D01*
X112105000Y-54310000D02*
X106055000Y-48260000D01*
X128270000Y-64724998D02*
X128270000Y-69564366D01*
X128270000Y-90170000D02*
X128270000Y-109220000D01*
X110466370Y-54310000D02*
X112181369Y-56024999D01*
X128270000Y-69564366D02*
X128270000Y-71120000D01*
X128270000Y-109220000D02*
X128270000Y-128270000D01*
X128270000Y-71120000D02*
X128270000Y-90170000D01*
X119570001Y-56024999D02*
X128270000Y-64724998D01*
X112181369Y-56024999D02*
X119570001Y-56024999D01*
X109335000Y-54310000D02*
X110466370Y-54310000D01*
X88900000Y-69850000D02*
X90170000Y-71120000D01*
X90170000Y-109220000D02*
X90170000Y-128270000D01*
X88900000Y-58420000D02*
X88900000Y-69850000D01*
X90170000Y-90170000D02*
X90170000Y-109220000D01*
X90170000Y-71120000D02*
X90170000Y-90170000D01*
X116934999Y-93274001D02*
X118110000Y-94449002D01*
X116260000Y-57150000D02*
X116260000Y-58281370D01*
X117545999Y-74835001D02*
X117545999Y-91534999D01*
X117545999Y-91534999D02*
X116934999Y-92145999D01*
X118110000Y-71920998D02*
X116934999Y-73095999D01*
X116934999Y-92145999D02*
X116934999Y-93274001D01*
X118110000Y-94449002D02*
X118110000Y-110020998D01*
X116934999Y-74224001D02*
X117545999Y-74835001D01*
X115570000Y-124174366D02*
X115570000Y-125730000D01*
X116260000Y-58281370D02*
X118110000Y-60131370D01*
X118110000Y-110020998D02*
X115570000Y-112560998D01*
X118110000Y-60131370D02*
X118110000Y-71920998D01*
X116934999Y-73095999D02*
X116934999Y-74224001D01*
X115570000Y-112560998D02*
X115570000Y-124174366D01*
X113490000Y-57150000D02*
X113490000Y-70678998D01*
X113490000Y-70678998D02*
X116484988Y-73673986D01*
X116995001Y-74920413D02*
X116995001Y-91449587D01*
X115570000Y-105124366D02*
X115570000Y-106680000D01*
X116995001Y-91449587D02*
X115570000Y-92874588D01*
X115570000Y-92874588D02*
X115570000Y-105124366D01*
X116484988Y-74410401D02*
X116995001Y-74920413D01*
X116484988Y-73673986D02*
X116484988Y-74410401D01*
X114470001Y-86530001D02*
X115570000Y-87630000D01*
X110720000Y-71729002D02*
X110704999Y-71744003D01*
X110704999Y-82764999D02*
X114470001Y-86530001D01*
X110720000Y-57150000D02*
X110720000Y-71729002D01*
X110704999Y-71744003D02*
X110704999Y-82764999D01*
X195580000Y-71120000D02*
X195580000Y-90170000D01*
X195580000Y-90170000D02*
X195580000Y-109220000D01*
X195580000Y-109220000D02*
X195580000Y-128270000D01*
X193040000Y-71120000D02*
X180340000Y-58420000D01*
X195580000Y-71120000D02*
X193040000Y-71120000D01*
X192415000Y-48260000D02*
X180340000Y-48260000D01*
X198465000Y-54310000D02*
X192415000Y-48260000D01*
X180340000Y-48260000D02*
X175260000Y-48260000D01*
X214630000Y-71120000D02*
X214630000Y-90170000D01*
X214630000Y-90170000D02*
X214630000Y-109220000D01*
X214630000Y-109220000D02*
X214630000Y-128270000D01*
X214630000Y-69564366D02*
X214630000Y-71120000D01*
X214630000Y-64724998D02*
X214630000Y-69564366D01*
X205930001Y-56024999D02*
X214630000Y-64724998D01*
X198541369Y-56024999D02*
X205930001Y-56024999D01*
X196826370Y-54310000D02*
X198541369Y-56024999D01*
X195695000Y-54310000D02*
X196826370Y-54310000D01*
X176530000Y-71120000D02*
X176530000Y-90170000D01*
X176530000Y-90170000D02*
X176530000Y-109220000D01*
X176530000Y-109220000D02*
X176530000Y-128270000D01*
X175260000Y-69850000D02*
X176530000Y-71120000D01*
X175260000Y-58420000D02*
X175260000Y-69850000D01*
X201930000Y-112560998D02*
X201930000Y-124174366D01*
X204470000Y-94449002D02*
X204470000Y-110020998D01*
X203905999Y-74835001D02*
X203905999Y-91534999D01*
X203294999Y-74224001D02*
X203905999Y-74835001D01*
X203294999Y-92145999D02*
X203294999Y-93274001D01*
X204470000Y-71920998D02*
X203294999Y-73095999D01*
X203905999Y-91534999D02*
X203294999Y-92145999D01*
X202620000Y-57150000D02*
X202620000Y-58281370D01*
X203294999Y-93274001D02*
X204470000Y-94449002D01*
X203294999Y-73095999D02*
X203294999Y-74224001D01*
X202620000Y-58281370D02*
X204470000Y-60131370D01*
X204470000Y-110020998D02*
X201930000Y-112560998D01*
X201930000Y-124174366D02*
X201930000Y-125730000D01*
X204470000Y-60131370D02*
X204470000Y-71920998D01*
X199850000Y-57150000D02*
X199850000Y-70678998D01*
X199850000Y-70678998D02*
X202844988Y-73673986D01*
X203355001Y-74920413D02*
X203355001Y-91449587D01*
X201930000Y-105124366D02*
X201930000Y-106680000D01*
X201930000Y-92874588D02*
X201930000Y-105124366D01*
X202844988Y-73673986D02*
X202844988Y-74410401D01*
X202844988Y-74410401D02*
X203355001Y-74920413D01*
X203355001Y-91449587D02*
X201930000Y-92874588D01*
X200830001Y-86530001D02*
X201930000Y-87630000D01*
X197064999Y-82764999D02*
X200830001Y-86530001D01*
X197064999Y-71744003D02*
X197064999Y-82764999D01*
X197080000Y-71729002D02*
X197064999Y-71744003D01*
X197080000Y-57150000D02*
X197080000Y-71729002D01*
M02*
