M48
; DRILL file {KiCad (5.1.6-0-10_14)} date Sunday, November 01, 2020 at 06:04:17 PM
; FORMAT={-:-/ absolute / metric / decimal}
; #@! TF.CreationDate,2020-11-01T18:04:17+01:00
; #@! TF.GenerationSoftware,Kicad,Pcbnew,(5.1.6-0-10_14)
; #@! TF.FileFunction,Plated,1,2,PTH
FMAT,2
METRIC
T1C0.400
T2C0.800
T3C1.000
T4C1.500
T5C3.200
%
G90
G05
T1
X109.22Y-65.278
X195.58Y-65.532
T2
X135.128Y-48.26
X135.128Y-58.42
X172.212Y-48.26
X172.212Y-58.42
X140.208Y-48.26
X140.208Y-58.42
X177.292Y-48.26
X177.292Y-58.42
T3
X193.802Y-57.15
X195.187Y-54.31
X196.572Y-57.15
X197.957Y-54.31
X199.342Y-57.15
X200.727Y-54.31
X202.112Y-57.15
X203.497Y-54.31
X204.882Y-57.15
X107.442Y-57.15
X108.827Y-54.31
X110.212Y-57.15
X111.597Y-54.31
X112.982Y-57.15
X114.367Y-54.31
X115.752Y-57.15
X117.137Y-54.31
X118.522Y-57.15
T4
X128.27Y-109.22
X134.62Y-106.68
X109.22Y-90.17
X115.57Y-87.63
X214.63Y-90.17
X220.98Y-87.63
X128.27Y-71.12
X134.62Y-68.58
X109.22Y-109.22
X115.57Y-106.68
X195.58Y-90.17
X201.93Y-87.63
X90.17Y-71.12
X96.52Y-68.58
X128.27Y-128.27
X134.62Y-125.73
X90.17Y-128.27
X96.52Y-125.73
X176.53Y-90.17
X182.88Y-87.63
X214.63Y-128.27
X220.98Y-125.73
X214.63Y-71.12
X220.98Y-68.58
X128.27Y-90.17
X134.62Y-87.63
X90.17Y-90.17
X96.52Y-87.63
X195.58Y-71.12
X201.93Y-68.58
X176.53Y-71.12
X182.88Y-68.58
X109.22Y-71.12
X115.57Y-68.58
X90.17Y-109.22
X96.52Y-106.68
X195.58Y-128.27
X201.93Y-125.73
X176.53Y-128.27
X182.88Y-125.73
X214.63Y-109.22
X220.98Y-106.68
X195.58Y-109.22
X201.93Y-106.68
X109.22Y-128.27
X115.57Y-125.73
X176.53Y-109.22
X182.88Y-106.68
T5
X186.842Y-55.73
X211.842Y-55.73
X100.482Y-55.73
X125.482Y-55.73
T0
M30
