G04 #@! TF.GenerationSoftware,KiCad,Pcbnew,(5.1.6-0-10_14)*
G04 #@! TF.CreationDate,2020-11-01T18:04:11+01:00*
G04 #@! TF.ProjectId,synthcart-ctrl,73796e74-6863-4617-9274-2d6374726c2e,rev?*
G04 #@! TF.SameCoordinates,Original*
G04 #@! TF.FileFunction,Copper,L2,Bot*
G04 #@! TF.FilePolarity,Positive*
%FSLAX46Y46*%
G04 Gerber Fmt 4.6, Leading zero omitted, Abs format (unit mm)*
G04 Created by KiCad (PCBNEW (5.1.6-0-10_14)) date 2020-11-01 18:04:11*
%MOMM*%
%LPD*%
G01*
G04 APERTURE LIST*
G04 #@! TA.AperFunction,ComponentPad*
%ADD10C,2.200000*%
G04 #@! TD*
G04 #@! TA.AperFunction,ComponentPad*
%ADD11C,1.600000*%
G04 #@! TD*
G04 #@! TA.AperFunction,ComponentPad*
%ADD12O,1.600000X1.600000*%
G04 #@! TD*
G04 #@! TA.AperFunction,ComponentPad*
%ADD13R,1.600000X1.600000*%
G04 #@! TD*
G04 #@! TA.AperFunction,ComponentPad*
%ADD14C,4.000000*%
G04 #@! TD*
G04 #@! TA.AperFunction,ViaPad*
%ADD15C,0.800000*%
G04 #@! TD*
G04 #@! TA.AperFunction,Conductor*
%ADD16C,0.250000*%
G04 #@! TD*
G04 APERTURE END LIST*
D10*
X128270000Y-128270000D03*
X134620000Y-125730000D03*
X115570000Y-125730000D03*
X109220000Y-128270000D03*
X90170000Y-128270000D03*
X96520000Y-125730000D03*
X134620000Y-106680000D03*
X128270000Y-109220000D03*
X109220000Y-109220000D03*
X115570000Y-106680000D03*
X96520000Y-106680000D03*
X90170000Y-109220000D03*
X128270000Y-90170000D03*
X134620000Y-87630000D03*
X115570000Y-87630000D03*
X109220000Y-90170000D03*
X90170000Y-90170000D03*
X96520000Y-87630000D03*
X134620000Y-68580000D03*
X128270000Y-71120000D03*
X109220000Y-71120000D03*
X115570000Y-68580000D03*
X96520000Y-68580000D03*
X90170000Y-71120000D03*
D11*
X140208000Y-48260000D03*
D12*
X140208000Y-58420000D03*
X135128000Y-58420000D03*
D11*
X135128000Y-48260000D03*
D13*
X107442000Y-57150000D03*
D11*
X110212000Y-57150000D03*
X112982000Y-57150000D03*
X115752000Y-57150000D03*
X118522000Y-57150000D03*
X108827000Y-54310000D03*
X111597000Y-54310000D03*
X114367000Y-54310000D03*
X117137000Y-54310000D03*
D14*
X125482000Y-55730000D03*
X100482000Y-55730000D03*
X186842000Y-55730000D03*
X211842000Y-55730000D03*
D11*
X203497000Y-54310000D03*
X200727000Y-54310000D03*
X197957000Y-54310000D03*
X195187000Y-54310000D03*
X204882000Y-57150000D03*
X202112000Y-57150000D03*
X199342000Y-57150000D03*
X196572000Y-57150000D03*
D13*
X193802000Y-57150000D03*
D11*
X172212000Y-48260000D03*
D12*
X172212000Y-58420000D03*
X177292000Y-58420000D03*
D11*
X177292000Y-48260000D03*
D10*
X176530000Y-71120000D03*
X182880000Y-68580000D03*
X201930000Y-68580000D03*
X195580000Y-71120000D03*
X214630000Y-71120000D03*
X220980000Y-68580000D03*
X182880000Y-87630000D03*
X176530000Y-90170000D03*
X195580000Y-90170000D03*
X201930000Y-87630000D03*
X220980000Y-87630000D03*
X214630000Y-90170000D03*
X176530000Y-109220000D03*
X182880000Y-106680000D03*
X201930000Y-106680000D03*
X195580000Y-109220000D03*
X214630000Y-109220000D03*
X220980000Y-106680000D03*
X182880000Y-125730000D03*
X176530000Y-128270000D03*
X195580000Y-128270000D03*
X201930000Y-125730000D03*
X220980000Y-125730000D03*
X214630000Y-128270000D03*
D15*
X109220000Y-65278000D03*
X195580000Y-65532000D03*
D16*
X117137000Y-54310000D02*
X117094000Y-57404000D01*
X117094000Y-57404000D02*
X109220000Y-65278000D01*
X118522000Y-54029998D02*
X118522000Y-57150000D01*
X117677001Y-53184999D02*
X118522000Y-54029998D01*
X90170000Y-62600998D02*
X99585999Y-53184999D01*
X99585999Y-53184999D02*
X117677001Y-53184999D01*
X90170000Y-71120000D02*
X90170000Y-62600998D01*
X119792000Y-58420000D02*
X135128000Y-58420000D01*
X118522000Y-57150000D02*
X119792000Y-58420000D01*
X134620000Y-125730000D02*
X115570000Y-125730000D01*
X115570000Y-125730000D02*
X96520000Y-125730000D01*
X134620000Y-106680000D02*
X115570000Y-106680000D01*
X115570000Y-106680000D02*
X96520000Y-106680000D01*
X134620000Y-87630000D02*
X115570000Y-87630000D01*
X115570000Y-87630000D02*
X96520000Y-87630000D01*
X134620000Y-68580000D02*
X115570000Y-68580000D01*
X115570000Y-68580000D02*
X96520000Y-68580000D01*
X107442000Y-57658000D02*
X107442000Y-57150000D01*
X96520000Y-68580000D02*
X107442000Y-57658000D01*
X203497000Y-57615000D02*
X195580000Y-65532000D01*
X203497000Y-54310000D02*
X203497000Y-57615000D01*
X176530000Y-62738000D02*
X172212000Y-58420000D01*
X176530000Y-71120000D02*
X176530000Y-62738000D01*
X204037001Y-53184999D02*
X204882000Y-54029998D01*
X204882000Y-54029998D02*
X204882000Y-57150000D01*
X185945999Y-53184999D02*
X204037001Y-53184999D01*
X176530000Y-62600998D02*
X185945999Y-53184999D01*
X176530000Y-71120000D02*
X176530000Y-62600998D01*
X220980000Y-125730000D02*
X201930000Y-125730000D01*
X201930000Y-125730000D02*
X182880000Y-125730000D01*
X220980000Y-106680000D02*
X201930000Y-106680000D01*
X201930000Y-106680000D02*
X182880000Y-106680000D01*
X220980000Y-87630000D02*
X201930000Y-87630000D01*
X201930000Y-87630000D02*
X182880000Y-87630000D01*
X220980000Y-68580000D02*
X201930000Y-68580000D01*
X201930000Y-68580000D02*
X182880000Y-68580000D01*
X193802000Y-57658000D02*
X193802000Y-57150000D01*
X182880000Y-68580000D02*
X193802000Y-57658000D01*
M02*
