G04 #@! TF.GenerationSoftware,KiCad,Pcbnew,(5.1.6-0-10_14)*
G04 #@! TF.CreationDate,2020-11-01T18:04:11+01:00*
G04 #@! TF.ProjectId,synthcart-ctrl,73796e74-6863-4617-9274-2d6374726c2e,rev?*
G04 #@! TF.SameCoordinates,Original*
G04 #@! TF.FileFunction,Soldermask,Bot*
G04 #@! TF.FilePolarity,Negative*
%FSLAX46Y46*%
G04 Gerber Fmt 4.6, Leading zero omitted, Abs format (unit mm)*
G04 Created by KiCad (PCBNEW (5.1.6-0-10_14)) date 2020-11-01 18:04:11*
%MOMM*%
%LPD*%
G01*
G04 APERTURE LIST*
%ADD10C,0.100000*%
G04 APERTURE END LIST*
D10*
G36*
X229452254Y-146871818D02*
G01*
X229825511Y-147026426D01*
X229825513Y-147026427D01*
X230161436Y-147250884D01*
X230447116Y-147536564D01*
X230671574Y-147872489D01*
X230826182Y-148245746D01*
X230905000Y-148641993D01*
X230905000Y-149046007D01*
X230826182Y-149442254D01*
X230671574Y-149815511D01*
X230671573Y-149815513D01*
X230447116Y-150151436D01*
X230161436Y-150437116D01*
X229825513Y-150661573D01*
X229825512Y-150661574D01*
X229825511Y-150661574D01*
X229452254Y-150816182D01*
X229056007Y-150895000D01*
X228651993Y-150895000D01*
X228255746Y-150816182D01*
X227882489Y-150661574D01*
X227882488Y-150661574D01*
X227882487Y-150661573D01*
X227546564Y-150437116D01*
X227260884Y-150151436D01*
X227036427Y-149815513D01*
X227036426Y-149815511D01*
X226881818Y-149442254D01*
X226803000Y-149046007D01*
X226803000Y-148641993D01*
X226881818Y-148245746D01*
X227036426Y-147872489D01*
X227260884Y-147536564D01*
X227546564Y-147250884D01*
X227882487Y-147026427D01*
X227882489Y-147026426D01*
X228255746Y-146871818D01*
X228651993Y-146793000D01*
X229056007Y-146793000D01*
X229452254Y-146871818D01*
G37*
G36*
X84164254Y-146871818D02*
G01*
X84537511Y-147026426D01*
X84537513Y-147026427D01*
X84873436Y-147250884D01*
X85159116Y-147536564D01*
X85383574Y-147872489D01*
X85538182Y-148245746D01*
X85617000Y-148641993D01*
X85617000Y-149046007D01*
X85538182Y-149442254D01*
X85383574Y-149815511D01*
X85383573Y-149815513D01*
X85159116Y-150151436D01*
X84873436Y-150437116D01*
X84537513Y-150661573D01*
X84537512Y-150661574D01*
X84537511Y-150661574D01*
X84164254Y-150816182D01*
X83768007Y-150895000D01*
X83363993Y-150895000D01*
X82967746Y-150816182D01*
X82594489Y-150661574D01*
X82594488Y-150661574D01*
X82594487Y-150661573D01*
X82258564Y-150437116D01*
X81972884Y-150151436D01*
X81748427Y-149815513D01*
X81748426Y-149815511D01*
X81593818Y-149442254D01*
X81515000Y-149046007D01*
X81515000Y-148641993D01*
X81593818Y-148245746D01*
X81748426Y-147872489D01*
X81972884Y-147536564D01*
X82258564Y-147250884D01*
X82594487Y-147026427D01*
X82594489Y-147026426D01*
X82967746Y-146871818D01*
X83363993Y-146793000D01*
X83768007Y-146793000D01*
X84164254Y-146871818D01*
G37*
G36*
X180938254Y-128837818D02*
G01*
X181311511Y-128992426D01*
X181311513Y-128992427D01*
X181647436Y-129216884D01*
X181933116Y-129502564D01*
X182157574Y-129838489D01*
X182312182Y-130211746D01*
X182391000Y-130607993D01*
X182391000Y-131012007D01*
X182312182Y-131408254D01*
X182157574Y-131781511D01*
X182157573Y-131781513D01*
X181933116Y-132117436D01*
X181647436Y-132403116D01*
X181311513Y-132627573D01*
X181311512Y-132627574D01*
X181311511Y-132627574D01*
X180938254Y-132782182D01*
X180542007Y-132861000D01*
X180137993Y-132861000D01*
X179741746Y-132782182D01*
X179368489Y-132627574D01*
X179368488Y-132627574D01*
X179368487Y-132627573D01*
X179032564Y-132403116D01*
X178746884Y-132117436D01*
X178522427Y-131781513D01*
X178522426Y-131781511D01*
X178367818Y-131408254D01*
X178289000Y-131012007D01*
X178289000Y-130607993D01*
X178367818Y-130211746D01*
X178522426Y-129838489D01*
X178746884Y-129502564D01*
X179032564Y-129216884D01*
X179368487Y-128992427D01*
X179368489Y-128992426D01*
X179741746Y-128837818D01*
X180137993Y-128759000D01*
X180542007Y-128759000D01*
X180938254Y-128837818D01*
G37*
G36*
X132678254Y-128837818D02*
G01*
X133051511Y-128992426D01*
X133051513Y-128992427D01*
X133387436Y-129216884D01*
X133673116Y-129502564D01*
X133897574Y-129838489D01*
X134052182Y-130211746D01*
X134131000Y-130607993D01*
X134131000Y-131012007D01*
X134052182Y-131408254D01*
X133897574Y-131781511D01*
X133897573Y-131781513D01*
X133673116Y-132117436D01*
X133387436Y-132403116D01*
X133051513Y-132627573D01*
X133051512Y-132627574D01*
X133051511Y-132627574D01*
X132678254Y-132782182D01*
X132282007Y-132861000D01*
X131877993Y-132861000D01*
X131481746Y-132782182D01*
X131108489Y-132627574D01*
X131108488Y-132627574D01*
X131108487Y-132627573D01*
X130772564Y-132403116D01*
X130486884Y-132117436D01*
X130262427Y-131781513D01*
X130262426Y-131781511D01*
X130107818Y-131408254D01*
X130029000Y-131012007D01*
X130029000Y-130607993D01*
X130107818Y-130211746D01*
X130262426Y-129838489D01*
X130486884Y-129502564D01*
X130772564Y-129216884D01*
X131108487Y-128992427D01*
X131108489Y-128992426D01*
X131481746Y-128837818D01*
X131877993Y-128759000D01*
X132282007Y-128759000D01*
X132678254Y-128837818D01*
G37*
G36*
X113628254Y-128837818D02*
G01*
X114001511Y-128992426D01*
X114001513Y-128992427D01*
X114337436Y-129216884D01*
X114623116Y-129502564D01*
X114847574Y-129838489D01*
X115002182Y-130211746D01*
X115081000Y-130607993D01*
X115081000Y-131012007D01*
X115002182Y-131408254D01*
X114847574Y-131781511D01*
X114847573Y-131781513D01*
X114623116Y-132117436D01*
X114337436Y-132403116D01*
X114001513Y-132627573D01*
X114001512Y-132627574D01*
X114001511Y-132627574D01*
X113628254Y-132782182D01*
X113232007Y-132861000D01*
X112827993Y-132861000D01*
X112431746Y-132782182D01*
X112058489Y-132627574D01*
X112058488Y-132627574D01*
X112058487Y-132627573D01*
X111722564Y-132403116D01*
X111436884Y-132117436D01*
X111212427Y-131781513D01*
X111212426Y-131781511D01*
X111057818Y-131408254D01*
X110979000Y-131012007D01*
X110979000Y-130607993D01*
X111057818Y-130211746D01*
X111212426Y-129838489D01*
X111436884Y-129502564D01*
X111722564Y-129216884D01*
X112058487Y-128992427D01*
X112058489Y-128992426D01*
X112431746Y-128837818D01*
X112827993Y-128759000D01*
X113232007Y-128759000D01*
X113628254Y-128837818D01*
G37*
G36*
X94578254Y-128837818D02*
G01*
X94951511Y-128992426D01*
X94951513Y-128992427D01*
X95287436Y-129216884D01*
X95573116Y-129502564D01*
X95797574Y-129838489D01*
X95952182Y-130211746D01*
X96031000Y-130607993D01*
X96031000Y-131012007D01*
X95952182Y-131408254D01*
X95797574Y-131781511D01*
X95797573Y-131781513D01*
X95573116Y-132117436D01*
X95287436Y-132403116D01*
X94951513Y-132627573D01*
X94951512Y-132627574D01*
X94951511Y-132627574D01*
X94578254Y-132782182D01*
X94182007Y-132861000D01*
X93777993Y-132861000D01*
X93381746Y-132782182D01*
X93008489Y-132627574D01*
X93008488Y-132627574D01*
X93008487Y-132627573D01*
X92672564Y-132403116D01*
X92386884Y-132117436D01*
X92162427Y-131781513D01*
X92162426Y-131781511D01*
X92007818Y-131408254D01*
X91929000Y-131012007D01*
X91929000Y-130607993D01*
X92007818Y-130211746D01*
X92162426Y-129838489D01*
X92386884Y-129502564D01*
X92672564Y-129216884D01*
X93008487Y-128992427D01*
X93008489Y-128992426D01*
X93381746Y-128837818D01*
X93777993Y-128759000D01*
X94182007Y-128759000D01*
X94578254Y-128837818D01*
G37*
G36*
X219038254Y-128837818D02*
G01*
X219411511Y-128992426D01*
X219411513Y-128992427D01*
X219747436Y-129216884D01*
X220033116Y-129502564D01*
X220257574Y-129838489D01*
X220412182Y-130211746D01*
X220491000Y-130607993D01*
X220491000Y-131012007D01*
X220412182Y-131408254D01*
X220257574Y-131781511D01*
X220257573Y-131781513D01*
X220033116Y-132117436D01*
X219747436Y-132403116D01*
X219411513Y-132627573D01*
X219411512Y-132627574D01*
X219411511Y-132627574D01*
X219038254Y-132782182D01*
X218642007Y-132861000D01*
X218237993Y-132861000D01*
X217841746Y-132782182D01*
X217468489Y-132627574D01*
X217468488Y-132627574D01*
X217468487Y-132627573D01*
X217132564Y-132403116D01*
X216846884Y-132117436D01*
X216622427Y-131781513D01*
X216622426Y-131781511D01*
X216467818Y-131408254D01*
X216389000Y-131012007D01*
X216389000Y-130607993D01*
X216467818Y-130211746D01*
X216622426Y-129838489D01*
X216846884Y-129502564D01*
X217132564Y-129216884D01*
X217468487Y-128992427D01*
X217468489Y-128992426D01*
X217841746Y-128837818D01*
X218237993Y-128759000D01*
X218642007Y-128759000D01*
X219038254Y-128837818D01*
G37*
G36*
X199988254Y-128837818D02*
G01*
X200361511Y-128992426D01*
X200361513Y-128992427D01*
X200697436Y-129216884D01*
X200983116Y-129502564D01*
X201207574Y-129838489D01*
X201362182Y-130211746D01*
X201441000Y-130607993D01*
X201441000Y-131012007D01*
X201362182Y-131408254D01*
X201207574Y-131781511D01*
X201207573Y-131781513D01*
X200983116Y-132117436D01*
X200697436Y-132403116D01*
X200361513Y-132627573D01*
X200361512Y-132627574D01*
X200361511Y-132627574D01*
X199988254Y-132782182D01*
X199592007Y-132861000D01*
X199187993Y-132861000D01*
X198791746Y-132782182D01*
X198418489Y-132627574D01*
X198418488Y-132627574D01*
X198418487Y-132627573D01*
X198082564Y-132403116D01*
X197796884Y-132117436D01*
X197572427Y-131781513D01*
X197572426Y-131781511D01*
X197417818Y-131408254D01*
X197339000Y-131012007D01*
X197339000Y-130607993D01*
X197417818Y-130211746D01*
X197572426Y-129838489D01*
X197796884Y-129502564D01*
X198082564Y-129216884D01*
X198418487Y-128992427D01*
X198418489Y-128992426D01*
X198791746Y-128837818D01*
X199187993Y-128759000D01*
X199592007Y-128759000D01*
X199988254Y-128837818D01*
G37*
G36*
X118223512Y-129913927D02*
G01*
X118372812Y-129943624D01*
X118536784Y-130011544D01*
X118684354Y-130110147D01*
X118809853Y-130235646D01*
X118908456Y-130383216D01*
X118976376Y-130547188D01*
X119011000Y-130721259D01*
X119011000Y-130898741D01*
X118976376Y-131072812D01*
X118908456Y-131236784D01*
X118809853Y-131384354D01*
X118684354Y-131509853D01*
X118536784Y-131608456D01*
X118372812Y-131676376D01*
X118223512Y-131706073D01*
X118198742Y-131711000D01*
X118021258Y-131711000D01*
X117996488Y-131706073D01*
X117847188Y-131676376D01*
X117683216Y-131608456D01*
X117535646Y-131509853D01*
X117410147Y-131384354D01*
X117311544Y-131236784D01*
X117243624Y-131072812D01*
X117209000Y-130898741D01*
X117209000Y-130721259D01*
X117243624Y-130547188D01*
X117311544Y-130383216D01*
X117410147Y-130235646D01*
X117535646Y-130110147D01*
X117683216Y-130011544D01*
X117847188Y-129943624D01*
X117996488Y-129913927D01*
X118021258Y-129909000D01*
X118198742Y-129909000D01*
X118223512Y-129913927D01*
G37*
G36*
X108063512Y-129913927D02*
G01*
X108212812Y-129943624D01*
X108376784Y-130011544D01*
X108524354Y-130110147D01*
X108649853Y-130235646D01*
X108748456Y-130383216D01*
X108816376Y-130547188D01*
X108851000Y-130721259D01*
X108851000Y-130898741D01*
X108816376Y-131072812D01*
X108748456Y-131236784D01*
X108649853Y-131384354D01*
X108524354Y-131509853D01*
X108376784Y-131608456D01*
X108212812Y-131676376D01*
X108063512Y-131706073D01*
X108038742Y-131711000D01*
X107861258Y-131711000D01*
X107836488Y-131706073D01*
X107687188Y-131676376D01*
X107523216Y-131608456D01*
X107375646Y-131509853D01*
X107250147Y-131384354D01*
X107151544Y-131236784D01*
X107083624Y-131072812D01*
X107049000Y-130898741D01*
X107049000Y-130721259D01*
X107083624Y-130547188D01*
X107151544Y-130383216D01*
X107250147Y-130235646D01*
X107375646Y-130110147D01*
X107523216Y-130011544D01*
X107687188Y-129943624D01*
X107836488Y-129913927D01*
X107861258Y-129909000D01*
X108038742Y-129909000D01*
X108063512Y-129913927D01*
G37*
G36*
X99173512Y-129913927D02*
G01*
X99322812Y-129943624D01*
X99486784Y-130011544D01*
X99634354Y-130110147D01*
X99759853Y-130235646D01*
X99858456Y-130383216D01*
X99926376Y-130547188D01*
X99961000Y-130721259D01*
X99961000Y-130898741D01*
X99926376Y-131072812D01*
X99858456Y-131236784D01*
X99759853Y-131384354D01*
X99634354Y-131509853D01*
X99486784Y-131608456D01*
X99322812Y-131676376D01*
X99173512Y-131706073D01*
X99148742Y-131711000D01*
X98971258Y-131711000D01*
X98946488Y-131706073D01*
X98797188Y-131676376D01*
X98633216Y-131608456D01*
X98485646Y-131509853D01*
X98360147Y-131384354D01*
X98261544Y-131236784D01*
X98193624Y-131072812D01*
X98159000Y-130898741D01*
X98159000Y-130721259D01*
X98193624Y-130547188D01*
X98261544Y-130383216D01*
X98360147Y-130235646D01*
X98485646Y-130110147D01*
X98633216Y-130011544D01*
X98797188Y-129943624D01*
X98946488Y-129913927D01*
X98971258Y-129909000D01*
X99148742Y-129909000D01*
X99173512Y-129913927D01*
G37*
G36*
X89013512Y-129913927D02*
G01*
X89162812Y-129943624D01*
X89326784Y-130011544D01*
X89474354Y-130110147D01*
X89599853Y-130235646D01*
X89698456Y-130383216D01*
X89766376Y-130547188D01*
X89801000Y-130721259D01*
X89801000Y-130898741D01*
X89766376Y-131072812D01*
X89698456Y-131236784D01*
X89599853Y-131384354D01*
X89474354Y-131509853D01*
X89326784Y-131608456D01*
X89162812Y-131676376D01*
X89013512Y-131706073D01*
X88988742Y-131711000D01*
X88811258Y-131711000D01*
X88786488Y-131706073D01*
X88637188Y-131676376D01*
X88473216Y-131608456D01*
X88325646Y-131509853D01*
X88200147Y-131384354D01*
X88101544Y-131236784D01*
X88033624Y-131072812D01*
X87999000Y-130898741D01*
X87999000Y-130721259D01*
X88033624Y-130547188D01*
X88101544Y-130383216D01*
X88200147Y-130235646D01*
X88325646Y-130110147D01*
X88473216Y-130011544D01*
X88637188Y-129943624D01*
X88786488Y-129913927D01*
X88811258Y-129909000D01*
X88988742Y-129909000D01*
X89013512Y-129913927D01*
G37*
G36*
X213473512Y-129913927D02*
G01*
X213622812Y-129943624D01*
X213786784Y-130011544D01*
X213934354Y-130110147D01*
X214059853Y-130235646D01*
X214158456Y-130383216D01*
X214226376Y-130547188D01*
X214261000Y-130721259D01*
X214261000Y-130898741D01*
X214226376Y-131072812D01*
X214158456Y-131236784D01*
X214059853Y-131384354D01*
X213934354Y-131509853D01*
X213786784Y-131608456D01*
X213622812Y-131676376D01*
X213473512Y-131706073D01*
X213448742Y-131711000D01*
X213271258Y-131711000D01*
X213246488Y-131706073D01*
X213097188Y-131676376D01*
X212933216Y-131608456D01*
X212785646Y-131509853D01*
X212660147Y-131384354D01*
X212561544Y-131236784D01*
X212493624Y-131072812D01*
X212459000Y-130898741D01*
X212459000Y-130721259D01*
X212493624Y-130547188D01*
X212561544Y-130383216D01*
X212660147Y-130235646D01*
X212785646Y-130110147D01*
X212933216Y-130011544D01*
X213097188Y-129943624D01*
X213246488Y-129913927D01*
X213271258Y-129909000D01*
X213448742Y-129909000D01*
X213473512Y-129913927D01*
G37*
G36*
X223633512Y-129913927D02*
G01*
X223782812Y-129943624D01*
X223946784Y-130011544D01*
X224094354Y-130110147D01*
X224219853Y-130235646D01*
X224318456Y-130383216D01*
X224386376Y-130547188D01*
X224421000Y-130721259D01*
X224421000Y-130898741D01*
X224386376Y-131072812D01*
X224318456Y-131236784D01*
X224219853Y-131384354D01*
X224094354Y-131509853D01*
X223946784Y-131608456D01*
X223782812Y-131676376D01*
X223633512Y-131706073D01*
X223608742Y-131711000D01*
X223431258Y-131711000D01*
X223406488Y-131706073D01*
X223257188Y-131676376D01*
X223093216Y-131608456D01*
X222945646Y-131509853D01*
X222820147Y-131384354D01*
X222721544Y-131236784D01*
X222653624Y-131072812D01*
X222619000Y-130898741D01*
X222619000Y-130721259D01*
X222653624Y-130547188D01*
X222721544Y-130383216D01*
X222820147Y-130235646D01*
X222945646Y-130110147D01*
X223093216Y-130011544D01*
X223257188Y-129943624D01*
X223406488Y-129913927D01*
X223431258Y-129909000D01*
X223608742Y-129909000D01*
X223633512Y-129913927D01*
G37*
G36*
X194423512Y-129913927D02*
G01*
X194572812Y-129943624D01*
X194736784Y-130011544D01*
X194884354Y-130110147D01*
X195009853Y-130235646D01*
X195108456Y-130383216D01*
X195176376Y-130547188D01*
X195211000Y-130721259D01*
X195211000Y-130898741D01*
X195176376Y-131072812D01*
X195108456Y-131236784D01*
X195009853Y-131384354D01*
X194884354Y-131509853D01*
X194736784Y-131608456D01*
X194572812Y-131676376D01*
X194423512Y-131706073D01*
X194398742Y-131711000D01*
X194221258Y-131711000D01*
X194196488Y-131706073D01*
X194047188Y-131676376D01*
X193883216Y-131608456D01*
X193735646Y-131509853D01*
X193610147Y-131384354D01*
X193511544Y-131236784D01*
X193443624Y-131072812D01*
X193409000Y-130898741D01*
X193409000Y-130721259D01*
X193443624Y-130547188D01*
X193511544Y-130383216D01*
X193610147Y-130235646D01*
X193735646Y-130110147D01*
X193883216Y-130011544D01*
X194047188Y-129943624D01*
X194196488Y-129913927D01*
X194221258Y-129909000D01*
X194398742Y-129909000D01*
X194423512Y-129913927D01*
G37*
G36*
X204583512Y-129913927D02*
G01*
X204732812Y-129943624D01*
X204896784Y-130011544D01*
X205044354Y-130110147D01*
X205169853Y-130235646D01*
X205268456Y-130383216D01*
X205336376Y-130547188D01*
X205371000Y-130721259D01*
X205371000Y-130898741D01*
X205336376Y-131072812D01*
X205268456Y-131236784D01*
X205169853Y-131384354D01*
X205044354Y-131509853D01*
X204896784Y-131608456D01*
X204732812Y-131676376D01*
X204583512Y-131706073D01*
X204558742Y-131711000D01*
X204381258Y-131711000D01*
X204356488Y-131706073D01*
X204207188Y-131676376D01*
X204043216Y-131608456D01*
X203895646Y-131509853D01*
X203770147Y-131384354D01*
X203671544Y-131236784D01*
X203603624Y-131072812D01*
X203569000Y-130898741D01*
X203569000Y-130721259D01*
X203603624Y-130547188D01*
X203671544Y-130383216D01*
X203770147Y-130235646D01*
X203895646Y-130110147D01*
X204043216Y-130011544D01*
X204207188Y-129943624D01*
X204356488Y-129913927D01*
X204381258Y-129909000D01*
X204558742Y-129909000D01*
X204583512Y-129913927D01*
G37*
G36*
X185533512Y-129913927D02*
G01*
X185682812Y-129943624D01*
X185846784Y-130011544D01*
X185994354Y-130110147D01*
X186119853Y-130235646D01*
X186218456Y-130383216D01*
X186286376Y-130547188D01*
X186321000Y-130721259D01*
X186321000Y-130898741D01*
X186286376Y-131072812D01*
X186218456Y-131236784D01*
X186119853Y-131384354D01*
X185994354Y-131509853D01*
X185846784Y-131608456D01*
X185682812Y-131676376D01*
X185533512Y-131706073D01*
X185508742Y-131711000D01*
X185331258Y-131711000D01*
X185306488Y-131706073D01*
X185157188Y-131676376D01*
X184993216Y-131608456D01*
X184845646Y-131509853D01*
X184720147Y-131384354D01*
X184621544Y-131236784D01*
X184553624Y-131072812D01*
X184519000Y-130898741D01*
X184519000Y-130721259D01*
X184553624Y-130547188D01*
X184621544Y-130383216D01*
X184720147Y-130235646D01*
X184845646Y-130110147D01*
X184993216Y-130011544D01*
X185157188Y-129943624D01*
X185306488Y-129913927D01*
X185331258Y-129909000D01*
X185508742Y-129909000D01*
X185533512Y-129913927D01*
G37*
G36*
X175373512Y-129913927D02*
G01*
X175522812Y-129943624D01*
X175686784Y-130011544D01*
X175834354Y-130110147D01*
X175959853Y-130235646D01*
X176058456Y-130383216D01*
X176126376Y-130547188D01*
X176161000Y-130721259D01*
X176161000Y-130898741D01*
X176126376Y-131072812D01*
X176058456Y-131236784D01*
X175959853Y-131384354D01*
X175834354Y-131509853D01*
X175686784Y-131608456D01*
X175522812Y-131676376D01*
X175373512Y-131706073D01*
X175348742Y-131711000D01*
X175171258Y-131711000D01*
X175146488Y-131706073D01*
X174997188Y-131676376D01*
X174833216Y-131608456D01*
X174685646Y-131509853D01*
X174560147Y-131384354D01*
X174461544Y-131236784D01*
X174393624Y-131072812D01*
X174359000Y-130898741D01*
X174359000Y-130721259D01*
X174393624Y-130547188D01*
X174461544Y-130383216D01*
X174560147Y-130235646D01*
X174685646Y-130110147D01*
X174833216Y-130011544D01*
X174997188Y-129943624D01*
X175146488Y-129913927D01*
X175171258Y-129909000D01*
X175348742Y-129909000D01*
X175373512Y-129913927D01*
G37*
G36*
X127113512Y-129913927D02*
G01*
X127262812Y-129943624D01*
X127426784Y-130011544D01*
X127574354Y-130110147D01*
X127699853Y-130235646D01*
X127798456Y-130383216D01*
X127866376Y-130547188D01*
X127901000Y-130721259D01*
X127901000Y-130898741D01*
X127866376Y-131072812D01*
X127798456Y-131236784D01*
X127699853Y-131384354D01*
X127574354Y-131509853D01*
X127426784Y-131608456D01*
X127262812Y-131676376D01*
X127113512Y-131706073D01*
X127088742Y-131711000D01*
X126911258Y-131711000D01*
X126886488Y-131706073D01*
X126737188Y-131676376D01*
X126573216Y-131608456D01*
X126425646Y-131509853D01*
X126300147Y-131384354D01*
X126201544Y-131236784D01*
X126133624Y-131072812D01*
X126099000Y-130898741D01*
X126099000Y-130721259D01*
X126133624Y-130547188D01*
X126201544Y-130383216D01*
X126300147Y-130235646D01*
X126425646Y-130110147D01*
X126573216Y-130011544D01*
X126737188Y-129943624D01*
X126886488Y-129913927D01*
X126911258Y-129909000D01*
X127088742Y-129909000D01*
X127113512Y-129913927D01*
G37*
G36*
X137273512Y-129913927D02*
G01*
X137422812Y-129943624D01*
X137586784Y-130011544D01*
X137734354Y-130110147D01*
X137859853Y-130235646D01*
X137958456Y-130383216D01*
X138026376Y-130547188D01*
X138061000Y-130721259D01*
X138061000Y-130898741D01*
X138026376Y-131072812D01*
X137958456Y-131236784D01*
X137859853Y-131384354D01*
X137734354Y-131509853D01*
X137586784Y-131608456D01*
X137422812Y-131676376D01*
X137273512Y-131706073D01*
X137248742Y-131711000D01*
X137071258Y-131711000D01*
X137046488Y-131706073D01*
X136897188Y-131676376D01*
X136733216Y-131608456D01*
X136585646Y-131509853D01*
X136460147Y-131384354D01*
X136361544Y-131236784D01*
X136293624Y-131072812D01*
X136259000Y-130898741D01*
X136259000Y-130721259D01*
X136293624Y-130547188D01*
X136361544Y-130383216D01*
X136460147Y-130235646D01*
X136585646Y-130110147D01*
X136733216Y-130011544D01*
X136897188Y-129943624D01*
X137046488Y-129913927D01*
X137071258Y-129909000D01*
X137248742Y-129909000D01*
X137273512Y-129913927D01*
G37*
G36*
X214854549Y-127141116D02*
G01*
X214965734Y-127163232D01*
X215175203Y-127249997D01*
X215363720Y-127375960D01*
X215524040Y-127536280D01*
X215650003Y-127724797D01*
X215736768Y-127934266D01*
X215781000Y-128156636D01*
X215781000Y-128383364D01*
X215736768Y-128605734D01*
X215650003Y-128815203D01*
X215524040Y-129003720D01*
X215363720Y-129164040D01*
X215175203Y-129290003D01*
X214965734Y-129376768D01*
X214854549Y-129398884D01*
X214743365Y-129421000D01*
X214516635Y-129421000D01*
X214405451Y-129398884D01*
X214294266Y-129376768D01*
X214084797Y-129290003D01*
X213896280Y-129164040D01*
X213735960Y-129003720D01*
X213609997Y-128815203D01*
X213523232Y-128605734D01*
X213479000Y-128383364D01*
X213479000Y-128156636D01*
X213523232Y-127934266D01*
X213609997Y-127724797D01*
X213735960Y-127536280D01*
X213896280Y-127375960D01*
X214084797Y-127249997D01*
X214294266Y-127163232D01*
X214405451Y-127141116D01*
X214516635Y-127119000D01*
X214743365Y-127119000D01*
X214854549Y-127141116D01*
G37*
G36*
X195804549Y-127141116D02*
G01*
X195915734Y-127163232D01*
X196125203Y-127249997D01*
X196313720Y-127375960D01*
X196474040Y-127536280D01*
X196600003Y-127724797D01*
X196686768Y-127934266D01*
X196731000Y-128156636D01*
X196731000Y-128383364D01*
X196686768Y-128605734D01*
X196600003Y-128815203D01*
X196474040Y-129003720D01*
X196313720Y-129164040D01*
X196125203Y-129290003D01*
X195915734Y-129376768D01*
X195804549Y-129398884D01*
X195693365Y-129421000D01*
X195466635Y-129421000D01*
X195355451Y-129398884D01*
X195244266Y-129376768D01*
X195034797Y-129290003D01*
X194846280Y-129164040D01*
X194685960Y-129003720D01*
X194559997Y-128815203D01*
X194473232Y-128605734D01*
X194429000Y-128383364D01*
X194429000Y-128156636D01*
X194473232Y-127934266D01*
X194559997Y-127724797D01*
X194685960Y-127536280D01*
X194846280Y-127375960D01*
X195034797Y-127249997D01*
X195244266Y-127163232D01*
X195355451Y-127141116D01*
X195466635Y-127119000D01*
X195693365Y-127119000D01*
X195804549Y-127141116D01*
G37*
G36*
X176754549Y-127141116D02*
G01*
X176865734Y-127163232D01*
X177075203Y-127249997D01*
X177263720Y-127375960D01*
X177424040Y-127536280D01*
X177550003Y-127724797D01*
X177636768Y-127934266D01*
X177681000Y-128156636D01*
X177681000Y-128383364D01*
X177636768Y-128605734D01*
X177550003Y-128815203D01*
X177424040Y-129003720D01*
X177263720Y-129164040D01*
X177075203Y-129290003D01*
X176865734Y-129376768D01*
X176754549Y-129398884D01*
X176643365Y-129421000D01*
X176416635Y-129421000D01*
X176305451Y-129398884D01*
X176194266Y-129376768D01*
X175984797Y-129290003D01*
X175796280Y-129164040D01*
X175635960Y-129003720D01*
X175509997Y-128815203D01*
X175423232Y-128605734D01*
X175379000Y-128383364D01*
X175379000Y-128156636D01*
X175423232Y-127934266D01*
X175509997Y-127724797D01*
X175635960Y-127536280D01*
X175796280Y-127375960D01*
X175984797Y-127249997D01*
X176194266Y-127163232D01*
X176305451Y-127141116D01*
X176416635Y-127119000D01*
X176643365Y-127119000D01*
X176754549Y-127141116D01*
G37*
G36*
X128494549Y-127141116D02*
G01*
X128605734Y-127163232D01*
X128815203Y-127249997D01*
X129003720Y-127375960D01*
X129164040Y-127536280D01*
X129290003Y-127724797D01*
X129376768Y-127934266D01*
X129421000Y-128156636D01*
X129421000Y-128383364D01*
X129376768Y-128605734D01*
X129290003Y-128815203D01*
X129164040Y-129003720D01*
X129003720Y-129164040D01*
X128815203Y-129290003D01*
X128605734Y-129376768D01*
X128494549Y-129398884D01*
X128383365Y-129421000D01*
X128156635Y-129421000D01*
X128045451Y-129398884D01*
X127934266Y-129376768D01*
X127724797Y-129290003D01*
X127536280Y-129164040D01*
X127375960Y-129003720D01*
X127249997Y-128815203D01*
X127163232Y-128605734D01*
X127119000Y-128383364D01*
X127119000Y-128156636D01*
X127163232Y-127934266D01*
X127249997Y-127724797D01*
X127375960Y-127536280D01*
X127536280Y-127375960D01*
X127724797Y-127249997D01*
X127934266Y-127163232D01*
X128045451Y-127141116D01*
X128156635Y-127119000D01*
X128383365Y-127119000D01*
X128494549Y-127141116D01*
G37*
G36*
X109444549Y-127141116D02*
G01*
X109555734Y-127163232D01*
X109765203Y-127249997D01*
X109953720Y-127375960D01*
X110114040Y-127536280D01*
X110240003Y-127724797D01*
X110326768Y-127934266D01*
X110371000Y-128156636D01*
X110371000Y-128383364D01*
X110326768Y-128605734D01*
X110240003Y-128815203D01*
X110114040Y-129003720D01*
X109953720Y-129164040D01*
X109765203Y-129290003D01*
X109555734Y-129376768D01*
X109444549Y-129398884D01*
X109333365Y-129421000D01*
X109106635Y-129421000D01*
X108995451Y-129398884D01*
X108884266Y-129376768D01*
X108674797Y-129290003D01*
X108486280Y-129164040D01*
X108325960Y-129003720D01*
X108199997Y-128815203D01*
X108113232Y-128605734D01*
X108069000Y-128383364D01*
X108069000Y-128156636D01*
X108113232Y-127934266D01*
X108199997Y-127724797D01*
X108325960Y-127536280D01*
X108486280Y-127375960D01*
X108674797Y-127249997D01*
X108884266Y-127163232D01*
X108995451Y-127141116D01*
X109106635Y-127119000D01*
X109333365Y-127119000D01*
X109444549Y-127141116D01*
G37*
G36*
X90394549Y-127141116D02*
G01*
X90505734Y-127163232D01*
X90715203Y-127249997D01*
X90903720Y-127375960D01*
X91064040Y-127536280D01*
X91190003Y-127724797D01*
X91276768Y-127934266D01*
X91321000Y-128156636D01*
X91321000Y-128383364D01*
X91276768Y-128605734D01*
X91190003Y-128815203D01*
X91064040Y-129003720D01*
X90903720Y-129164040D01*
X90715203Y-129290003D01*
X90505734Y-129376768D01*
X90394549Y-129398884D01*
X90283365Y-129421000D01*
X90056635Y-129421000D01*
X89945451Y-129398884D01*
X89834266Y-129376768D01*
X89624797Y-129290003D01*
X89436280Y-129164040D01*
X89275960Y-129003720D01*
X89149997Y-128815203D01*
X89063232Y-128605734D01*
X89019000Y-128383364D01*
X89019000Y-128156636D01*
X89063232Y-127934266D01*
X89149997Y-127724797D01*
X89275960Y-127536280D01*
X89436280Y-127375960D01*
X89624797Y-127249997D01*
X89834266Y-127163232D01*
X89945451Y-127141116D01*
X90056635Y-127119000D01*
X90283365Y-127119000D01*
X90394549Y-127141116D01*
G37*
G36*
X134844549Y-124601116D02*
G01*
X134955734Y-124623232D01*
X135165203Y-124709997D01*
X135353720Y-124835960D01*
X135514040Y-124996280D01*
X135640003Y-125184797D01*
X135726768Y-125394266D01*
X135771000Y-125616636D01*
X135771000Y-125843364D01*
X135726768Y-126065734D01*
X135640003Y-126275203D01*
X135514040Y-126463720D01*
X135353720Y-126624040D01*
X135165203Y-126750003D01*
X134955734Y-126836768D01*
X134844549Y-126858884D01*
X134733365Y-126881000D01*
X134506635Y-126881000D01*
X134395451Y-126858884D01*
X134284266Y-126836768D01*
X134074797Y-126750003D01*
X133886280Y-126624040D01*
X133725960Y-126463720D01*
X133599997Y-126275203D01*
X133513232Y-126065734D01*
X133469000Y-125843364D01*
X133469000Y-125616636D01*
X133513232Y-125394266D01*
X133599997Y-125184797D01*
X133725960Y-124996280D01*
X133886280Y-124835960D01*
X134074797Y-124709997D01*
X134284266Y-124623232D01*
X134395451Y-124601116D01*
X134506635Y-124579000D01*
X134733365Y-124579000D01*
X134844549Y-124601116D01*
G37*
G36*
X221204549Y-124601116D02*
G01*
X221315734Y-124623232D01*
X221525203Y-124709997D01*
X221713720Y-124835960D01*
X221874040Y-124996280D01*
X222000003Y-125184797D01*
X222086768Y-125394266D01*
X222131000Y-125616636D01*
X222131000Y-125843364D01*
X222086768Y-126065734D01*
X222000003Y-126275203D01*
X221874040Y-126463720D01*
X221713720Y-126624040D01*
X221525203Y-126750003D01*
X221315734Y-126836768D01*
X221204549Y-126858884D01*
X221093365Y-126881000D01*
X220866635Y-126881000D01*
X220755451Y-126858884D01*
X220644266Y-126836768D01*
X220434797Y-126750003D01*
X220246280Y-126624040D01*
X220085960Y-126463720D01*
X219959997Y-126275203D01*
X219873232Y-126065734D01*
X219829000Y-125843364D01*
X219829000Y-125616636D01*
X219873232Y-125394266D01*
X219959997Y-125184797D01*
X220085960Y-124996280D01*
X220246280Y-124835960D01*
X220434797Y-124709997D01*
X220644266Y-124623232D01*
X220755451Y-124601116D01*
X220866635Y-124579000D01*
X221093365Y-124579000D01*
X221204549Y-124601116D01*
G37*
G36*
X202154549Y-124601116D02*
G01*
X202265734Y-124623232D01*
X202475203Y-124709997D01*
X202663720Y-124835960D01*
X202824040Y-124996280D01*
X202950003Y-125184797D01*
X203036768Y-125394266D01*
X203081000Y-125616636D01*
X203081000Y-125843364D01*
X203036768Y-126065734D01*
X202950003Y-126275203D01*
X202824040Y-126463720D01*
X202663720Y-126624040D01*
X202475203Y-126750003D01*
X202265734Y-126836768D01*
X202154549Y-126858884D01*
X202043365Y-126881000D01*
X201816635Y-126881000D01*
X201705451Y-126858884D01*
X201594266Y-126836768D01*
X201384797Y-126750003D01*
X201196280Y-126624040D01*
X201035960Y-126463720D01*
X200909997Y-126275203D01*
X200823232Y-126065734D01*
X200779000Y-125843364D01*
X200779000Y-125616636D01*
X200823232Y-125394266D01*
X200909997Y-125184797D01*
X201035960Y-124996280D01*
X201196280Y-124835960D01*
X201384797Y-124709997D01*
X201594266Y-124623232D01*
X201705451Y-124601116D01*
X201816635Y-124579000D01*
X202043365Y-124579000D01*
X202154549Y-124601116D01*
G37*
G36*
X183104549Y-124601116D02*
G01*
X183215734Y-124623232D01*
X183425203Y-124709997D01*
X183613720Y-124835960D01*
X183774040Y-124996280D01*
X183900003Y-125184797D01*
X183986768Y-125394266D01*
X184031000Y-125616636D01*
X184031000Y-125843364D01*
X183986768Y-126065734D01*
X183900003Y-126275203D01*
X183774040Y-126463720D01*
X183613720Y-126624040D01*
X183425203Y-126750003D01*
X183215734Y-126836768D01*
X183104549Y-126858884D01*
X182993365Y-126881000D01*
X182766635Y-126881000D01*
X182655451Y-126858884D01*
X182544266Y-126836768D01*
X182334797Y-126750003D01*
X182146280Y-126624040D01*
X181985960Y-126463720D01*
X181859997Y-126275203D01*
X181773232Y-126065734D01*
X181729000Y-125843364D01*
X181729000Y-125616636D01*
X181773232Y-125394266D01*
X181859997Y-125184797D01*
X181985960Y-124996280D01*
X182146280Y-124835960D01*
X182334797Y-124709997D01*
X182544266Y-124623232D01*
X182655451Y-124601116D01*
X182766635Y-124579000D01*
X182993365Y-124579000D01*
X183104549Y-124601116D01*
G37*
G36*
X115794549Y-124601116D02*
G01*
X115905734Y-124623232D01*
X116115203Y-124709997D01*
X116303720Y-124835960D01*
X116464040Y-124996280D01*
X116590003Y-125184797D01*
X116676768Y-125394266D01*
X116721000Y-125616636D01*
X116721000Y-125843364D01*
X116676768Y-126065734D01*
X116590003Y-126275203D01*
X116464040Y-126463720D01*
X116303720Y-126624040D01*
X116115203Y-126750003D01*
X115905734Y-126836768D01*
X115794549Y-126858884D01*
X115683365Y-126881000D01*
X115456635Y-126881000D01*
X115345451Y-126858884D01*
X115234266Y-126836768D01*
X115024797Y-126750003D01*
X114836280Y-126624040D01*
X114675960Y-126463720D01*
X114549997Y-126275203D01*
X114463232Y-126065734D01*
X114419000Y-125843364D01*
X114419000Y-125616636D01*
X114463232Y-125394266D01*
X114549997Y-125184797D01*
X114675960Y-124996280D01*
X114836280Y-124835960D01*
X115024797Y-124709997D01*
X115234266Y-124623232D01*
X115345451Y-124601116D01*
X115456635Y-124579000D01*
X115683365Y-124579000D01*
X115794549Y-124601116D01*
G37*
G36*
X96744549Y-124601116D02*
G01*
X96855734Y-124623232D01*
X97065203Y-124709997D01*
X97253720Y-124835960D01*
X97414040Y-124996280D01*
X97540003Y-125184797D01*
X97626768Y-125394266D01*
X97671000Y-125616636D01*
X97671000Y-125843364D01*
X97626768Y-126065734D01*
X97540003Y-126275203D01*
X97414040Y-126463720D01*
X97253720Y-126624040D01*
X97065203Y-126750003D01*
X96855734Y-126836768D01*
X96744549Y-126858884D01*
X96633365Y-126881000D01*
X96406635Y-126881000D01*
X96295451Y-126858884D01*
X96184266Y-126836768D01*
X95974797Y-126750003D01*
X95786280Y-126624040D01*
X95625960Y-126463720D01*
X95499997Y-126275203D01*
X95413232Y-126065734D01*
X95369000Y-125843364D01*
X95369000Y-125616636D01*
X95413232Y-125394266D01*
X95499997Y-125184797D01*
X95625960Y-124996280D01*
X95786280Y-124835960D01*
X95974797Y-124709997D01*
X96184266Y-124623232D01*
X96295451Y-124601116D01*
X96406635Y-124579000D01*
X96633365Y-124579000D01*
X96744549Y-124601116D01*
G37*
G36*
X132678254Y-109787818D02*
G01*
X133051511Y-109942426D01*
X133051513Y-109942427D01*
X133387436Y-110166884D01*
X133673116Y-110452564D01*
X133897574Y-110788489D01*
X134052182Y-111161746D01*
X134131000Y-111557993D01*
X134131000Y-111962007D01*
X134052182Y-112358254D01*
X133897574Y-112731511D01*
X133897573Y-112731513D01*
X133673116Y-113067436D01*
X133387436Y-113353116D01*
X133051513Y-113577573D01*
X133051512Y-113577574D01*
X133051511Y-113577574D01*
X132678254Y-113732182D01*
X132282007Y-113811000D01*
X131877993Y-113811000D01*
X131481746Y-113732182D01*
X131108489Y-113577574D01*
X131108488Y-113577574D01*
X131108487Y-113577573D01*
X130772564Y-113353116D01*
X130486884Y-113067436D01*
X130262427Y-112731513D01*
X130262426Y-112731511D01*
X130107818Y-112358254D01*
X130029000Y-111962007D01*
X130029000Y-111557993D01*
X130107818Y-111161746D01*
X130262426Y-110788489D01*
X130486884Y-110452564D01*
X130772564Y-110166884D01*
X131108487Y-109942427D01*
X131108489Y-109942426D01*
X131481746Y-109787818D01*
X131877993Y-109709000D01*
X132282007Y-109709000D01*
X132678254Y-109787818D01*
G37*
G36*
X113628254Y-109787818D02*
G01*
X114001511Y-109942426D01*
X114001513Y-109942427D01*
X114337436Y-110166884D01*
X114623116Y-110452564D01*
X114847574Y-110788489D01*
X115002182Y-111161746D01*
X115081000Y-111557993D01*
X115081000Y-111962007D01*
X115002182Y-112358254D01*
X114847574Y-112731511D01*
X114847573Y-112731513D01*
X114623116Y-113067436D01*
X114337436Y-113353116D01*
X114001513Y-113577573D01*
X114001512Y-113577574D01*
X114001511Y-113577574D01*
X113628254Y-113732182D01*
X113232007Y-113811000D01*
X112827993Y-113811000D01*
X112431746Y-113732182D01*
X112058489Y-113577574D01*
X112058488Y-113577574D01*
X112058487Y-113577573D01*
X111722564Y-113353116D01*
X111436884Y-113067436D01*
X111212427Y-112731513D01*
X111212426Y-112731511D01*
X111057818Y-112358254D01*
X110979000Y-111962007D01*
X110979000Y-111557993D01*
X111057818Y-111161746D01*
X111212426Y-110788489D01*
X111436884Y-110452564D01*
X111722564Y-110166884D01*
X112058487Y-109942427D01*
X112058489Y-109942426D01*
X112431746Y-109787818D01*
X112827993Y-109709000D01*
X113232007Y-109709000D01*
X113628254Y-109787818D01*
G37*
G36*
X94578254Y-109787818D02*
G01*
X94951511Y-109942426D01*
X94951513Y-109942427D01*
X95287436Y-110166884D01*
X95573116Y-110452564D01*
X95797574Y-110788489D01*
X95952182Y-111161746D01*
X96031000Y-111557993D01*
X96031000Y-111962007D01*
X95952182Y-112358254D01*
X95797574Y-112731511D01*
X95797573Y-112731513D01*
X95573116Y-113067436D01*
X95287436Y-113353116D01*
X94951513Y-113577573D01*
X94951512Y-113577574D01*
X94951511Y-113577574D01*
X94578254Y-113732182D01*
X94182007Y-113811000D01*
X93777993Y-113811000D01*
X93381746Y-113732182D01*
X93008489Y-113577574D01*
X93008488Y-113577574D01*
X93008487Y-113577573D01*
X92672564Y-113353116D01*
X92386884Y-113067436D01*
X92162427Y-112731513D01*
X92162426Y-112731511D01*
X92007818Y-112358254D01*
X91929000Y-111962007D01*
X91929000Y-111557993D01*
X92007818Y-111161746D01*
X92162426Y-110788489D01*
X92386884Y-110452564D01*
X92672564Y-110166884D01*
X93008487Y-109942427D01*
X93008489Y-109942426D01*
X93381746Y-109787818D01*
X93777993Y-109709000D01*
X94182007Y-109709000D01*
X94578254Y-109787818D01*
G37*
G36*
X219038254Y-109787818D02*
G01*
X219411511Y-109942426D01*
X219411513Y-109942427D01*
X219747436Y-110166884D01*
X220033116Y-110452564D01*
X220257574Y-110788489D01*
X220412182Y-111161746D01*
X220491000Y-111557993D01*
X220491000Y-111962007D01*
X220412182Y-112358254D01*
X220257574Y-112731511D01*
X220257573Y-112731513D01*
X220033116Y-113067436D01*
X219747436Y-113353116D01*
X219411513Y-113577573D01*
X219411512Y-113577574D01*
X219411511Y-113577574D01*
X219038254Y-113732182D01*
X218642007Y-113811000D01*
X218237993Y-113811000D01*
X217841746Y-113732182D01*
X217468489Y-113577574D01*
X217468488Y-113577574D01*
X217468487Y-113577573D01*
X217132564Y-113353116D01*
X216846884Y-113067436D01*
X216622427Y-112731513D01*
X216622426Y-112731511D01*
X216467818Y-112358254D01*
X216389000Y-111962007D01*
X216389000Y-111557993D01*
X216467818Y-111161746D01*
X216622426Y-110788489D01*
X216846884Y-110452564D01*
X217132564Y-110166884D01*
X217468487Y-109942427D01*
X217468489Y-109942426D01*
X217841746Y-109787818D01*
X218237993Y-109709000D01*
X218642007Y-109709000D01*
X219038254Y-109787818D01*
G37*
G36*
X199988254Y-109787818D02*
G01*
X200361511Y-109942426D01*
X200361513Y-109942427D01*
X200697436Y-110166884D01*
X200983116Y-110452564D01*
X201207574Y-110788489D01*
X201362182Y-111161746D01*
X201441000Y-111557993D01*
X201441000Y-111962007D01*
X201362182Y-112358254D01*
X201207574Y-112731511D01*
X201207573Y-112731513D01*
X200983116Y-113067436D01*
X200697436Y-113353116D01*
X200361513Y-113577573D01*
X200361512Y-113577574D01*
X200361511Y-113577574D01*
X199988254Y-113732182D01*
X199592007Y-113811000D01*
X199187993Y-113811000D01*
X198791746Y-113732182D01*
X198418489Y-113577574D01*
X198418488Y-113577574D01*
X198418487Y-113577573D01*
X198082564Y-113353116D01*
X197796884Y-113067436D01*
X197572427Y-112731513D01*
X197572426Y-112731511D01*
X197417818Y-112358254D01*
X197339000Y-111962007D01*
X197339000Y-111557993D01*
X197417818Y-111161746D01*
X197572426Y-110788489D01*
X197796884Y-110452564D01*
X198082564Y-110166884D01*
X198418487Y-109942427D01*
X198418489Y-109942426D01*
X198791746Y-109787818D01*
X199187993Y-109709000D01*
X199592007Y-109709000D01*
X199988254Y-109787818D01*
G37*
G36*
X180938254Y-109787818D02*
G01*
X181311511Y-109942426D01*
X181311513Y-109942427D01*
X181647436Y-110166884D01*
X181933116Y-110452564D01*
X182157574Y-110788489D01*
X182312182Y-111161746D01*
X182391000Y-111557993D01*
X182391000Y-111962007D01*
X182312182Y-112358254D01*
X182157574Y-112731511D01*
X182157573Y-112731513D01*
X181933116Y-113067436D01*
X181647436Y-113353116D01*
X181311513Y-113577573D01*
X181311512Y-113577574D01*
X181311511Y-113577574D01*
X180938254Y-113732182D01*
X180542007Y-113811000D01*
X180137993Y-113811000D01*
X179741746Y-113732182D01*
X179368489Y-113577574D01*
X179368488Y-113577574D01*
X179368487Y-113577573D01*
X179032564Y-113353116D01*
X178746884Y-113067436D01*
X178522427Y-112731513D01*
X178522426Y-112731511D01*
X178367818Y-112358254D01*
X178289000Y-111962007D01*
X178289000Y-111557993D01*
X178367818Y-111161746D01*
X178522426Y-110788489D01*
X178746884Y-110452564D01*
X179032564Y-110166884D01*
X179368487Y-109942427D01*
X179368489Y-109942426D01*
X179741746Y-109787818D01*
X180137993Y-109709000D01*
X180542007Y-109709000D01*
X180938254Y-109787818D01*
G37*
G36*
X204583512Y-110863927D02*
G01*
X204732812Y-110893624D01*
X204896784Y-110961544D01*
X205044354Y-111060147D01*
X205169853Y-111185646D01*
X205268456Y-111333216D01*
X205336376Y-111497188D01*
X205371000Y-111671259D01*
X205371000Y-111848741D01*
X205336376Y-112022812D01*
X205268456Y-112186784D01*
X205169853Y-112334354D01*
X205044354Y-112459853D01*
X204896784Y-112558456D01*
X204732812Y-112626376D01*
X204583512Y-112656073D01*
X204558742Y-112661000D01*
X204381258Y-112661000D01*
X204356488Y-112656073D01*
X204207188Y-112626376D01*
X204043216Y-112558456D01*
X203895646Y-112459853D01*
X203770147Y-112334354D01*
X203671544Y-112186784D01*
X203603624Y-112022812D01*
X203569000Y-111848741D01*
X203569000Y-111671259D01*
X203603624Y-111497188D01*
X203671544Y-111333216D01*
X203770147Y-111185646D01*
X203895646Y-111060147D01*
X204043216Y-110961544D01*
X204207188Y-110893624D01*
X204356488Y-110863927D01*
X204381258Y-110859000D01*
X204558742Y-110859000D01*
X204583512Y-110863927D01*
G37*
G36*
X185533512Y-110863927D02*
G01*
X185682812Y-110893624D01*
X185846784Y-110961544D01*
X185994354Y-111060147D01*
X186119853Y-111185646D01*
X186218456Y-111333216D01*
X186286376Y-111497188D01*
X186321000Y-111671259D01*
X186321000Y-111848741D01*
X186286376Y-112022812D01*
X186218456Y-112186784D01*
X186119853Y-112334354D01*
X185994354Y-112459853D01*
X185846784Y-112558456D01*
X185682812Y-112626376D01*
X185533512Y-112656073D01*
X185508742Y-112661000D01*
X185331258Y-112661000D01*
X185306488Y-112656073D01*
X185157188Y-112626376D01*
X184993216Y-112558456D01*
X184845646Y-112459853D01*
X184720147Y-112334354D01*
X184621544Y-112186784D01*
X184553624Y-112022812D01*
X184519000Y-111848741D01*
X184519000Y-111671259D01*
X184553624Y-111497188D01*
X184621544Y-111333216D01*
X184720147Y-111185646D01*
X184845646Y-111060147D01*
X184993216Y-110961544D01*
X185157188Y-110893624D01*
X185306488Y-110863927D01*
X185331258Y-110859000D01*
X185508742Y-110859000D01*
X185533512Y-110863927D01*
G37*
G36*
X194423512Y-110863927D02*
G01*
X194572812Y-110893624D01*
X194736784Y-110961544D01*
X194884354Y-111060147D01*
X195009853Y-111185646D01*
X195108456Y-111333216D01*
X195176376Y-111497188D01*
X195211000Y-111671259D01*
X195211000Y-111848741D01*
X195176376Y-112022812D01*
X195108456Y-112186784D01*
X195009853Y-112334354D01*
X194884354Y-112459853D01*
X194736784Y-112558456D01*
X194572812Y-112626376D01*
X194423512Y-112656073D01*
X194398742Y-112661000D01*
X194221258Y-112661000D01*
X194196488Y-112656073D01*
X194047188Y-112626376D01*
X193883216Y-112558456D01*
X193735646Y-112459853D01*
X193610147Y-112334354D01*
X193511544Y-112186784D01*
X193443624Y-112022812D01*
X193409000Y-111848741D01*
X193409000Y-111671259D01*
X193443624Y-111497188D01*
X193511544Y-111333216D01*
X193610147Y-111185646D01*
X193735646Y-111060147D01*
X193883216Y-110961544D01*
X194047188Y-110893624D01*
X194196488Y-110863927D01*
X194221258Y-110859000D01*
X194398742Y-110859000D01*
X194423512Y-110863927D01*
G37*
G36*
X175373512Y-110863927D02*
G01*
X175522812Y-110893624D01*
X175686784Y-110961544D01*
X175834354Y-111060147D01*
X175959853Y-111185646D01*
X176058456Y-111333216D01*
X176126376Y-111497188D01*
X176161000Y-111671259D01*
X176161000Y-111848741D01*
X176126376Y-112022812D01*
X176058456Y-112186784D01*
X175959853Y-112334354D01*
X175834354Y-112459853D01*
X175686784Y-112558456D01*
X175522812Y-112626376D01*
X175373512Y-112656073D01*
X175348742Y-112661000D01*
X175171258Y-112661000D01*
X175146488Y-112656073D01*
X174997188Y-112626376D01*
X174833216Y-112558456D01*
X174685646Y-112459853D01*
X174560147Y-112334354D01*
X174461544Y-112186784D01*
X174393624Y-112022812D01*
X174359000Y-111848741D01*
X174359000Y-111671259D01*
X174393624Y-111497188D01*
X174461544Y-111333216D01*
X174560147Y-111185646D01*
X174685646Y-111060147D01*
X174833216Y-110961544D01*
X174997188Y-110893624D01*
X175146488Y-110863927D01*
X175171258Y-110859000D01*
X175348742Y-110859000D01*
X175373512Y-110863927D01*
G37*
G36*
X137273512Y-110863927D02*
G01*
X137422812Y-110893624D01*
X137586784Y-110961544D01*
X137734354Y-111060147D01*
X137859853Y-111185646D01*
X137958456Y-111333216D01*
X138026376Y-111497188D01*
X138061000Y-111671259D01*
X138061000Y-111848741D01*
X138026376Y-112022812D01*
X137958456Y-112186784D01*
X137859853Y-112334354D01*
X137734354Y-112459853D01*
X137586784Y-112558456D01*
X137422812Y-112626376D01*
X137273512Y-112656073D01*
X137248742Y-112661000D01*
X137071258Y-112661000D01*
X137046488Y-112656073D01*
X136897188Y-112626376D01*
X136733216Y-112558456D01*
X136585646Y-112459853D01*
X136460147Y-112334354D01*
X136361544Y-112186784D01*
X136293624Y-112022812D01*
X136259000Y-111848741D01*
X136259000Y-111671259D01*
X136293624Y-111497188D01*
X136361544Y-111333216D01*
X136460147Y-111185646D01*
X136585646Y-111060147D01*
X136733216Y-110961544D01*
X136897188Y-110893624D01*
X137046488Y-110863927D01*
X137071258Y-110859000D01*
X137248742Y-110859000D01*
X137273512Y-110863927D01*
G37*
G36*
X127113512Y-110863927D02*
G01*
X127262812Y-110893624D01*
X127426784Y-110961544D01*
X127574354Y-111060147D01*
X127699853Y-111185646D01*
X127798456Y-111333216D01*
X127866376Y-111497188D01*
X127901000Y-111671259D01*
X127901000Y-111848741D01*
X127866376Y-112022812D01*
X127798456Y-112186784D01*
X127699853Y-112334354D01*
X127574354Y-112459853D01*
X127426784Y-112558456D01*
X127262812Y-112626376D01*
X127113512Y-112656073D01*
X127088742Y-112661000D01*
X126911258Y-112661000D01*
X126886488Y-112656073D01*
X126737188Y-112626376D01*
X126573216Y-112558456D01*
X126425646Y-112459853D01*
X126300147Y-112334354D01*
X126201544Y-112186784D01*
X126133624Y-112022812D01*
X126099000Y-111848741D01*
X126099000Y-111671259D01*
X126133624Y-111497188D01*
X126201544Y-111333216D01*
X126300147Y-111185646D01*
X126425646Y-111060147D01*
X126573216Y-110961544D01*
X126737188Y-110893624D01*
X126886488Y-110863927D01*
X126911258Y-110859000D01*
X127088742Y-110859000D01*
X127113512Y-110863927D01*
G37*
G36*
X118223512Y-110863927D02*
G01*
X118372812Y-110893624D01*
X118536784Y-110961544D01*
X118684354Y-111060147D01*
X118809853Y-111185646D01*
X118908456Y-111333216D01*
X118976376Y-111497188D01*
X119011000Y-111671259D01*
X119011000Y-111848741D01*
X118976376Y-112022812D01*
X118908456Y-112186784D01*
X118809853Y-112334354D01*
X118684354Y-112459853D01*
X118536784Y-112558456D01*
X118372812Y-112626376D01*
X118223512Y-112656073D01*
X118198742Y-112661000D01*
X118021258Y-112661000D01*
X117996488Y-112656073D01*
X117847188Y-112626376D01*
X117683216Y-112558456D01*
X117535646Y-112459853D01*
X117410147Y-112334354D01*
X117311544Y-112186784D01*
X117243624Y-112022812D01*
X117209000Y-111848741D01*
X117209000Y-111671259D01*
X117243624Y-111497188D01*
X117311544Y-111333216D01*
X117410147Y-111185646D01*
X117535646Y-111060147D01*
X117683216Y-110961544D01*
X117847188Y-110893624D01*
X117996488Y-110863927D01*
X118021258Y-110859000D01*
X118198742Y-110859000D01*
X118223512Y-110863927D01*
G37*
G36*
X108063512Y-110863927D02*
G01*
X108212812Y-110893624D01*
X108376784Y-110961544D01*
X108524354Y-111060147D01*
X108649853Y-111185646D01*
X108748456Y-111333216D01*
X108816376Y-111497188D01*
X108851000Y-111671259D01*
X108851000Y-111848741D01*
X108816376Y-112022812D01*
X108748456Y-112186784D01*
X108649853Y-112334354D01*
X108524354Y-112459853D01*
X108376784Y-112558456D01*
X108212812Y-112626376D01*
X108063512Y-112656073D01*
X108038742Y-112661000D01*
X107861258Y-112661000D01*
X107836488Y-112656073D01*
X107687188Y-112626376D01*
X107523216Y-112558456D01*
X107375646Y-112459853D01*
X107250147Y-112334354D01*
X107151544Y-112186784D01*
X107083624Y-112022812D01*
X107049000Y-111848741D01*
X107049000Y-111671259D01*
X107083624Y-111497188D01*
X107151544Y-111333216D01*
X107250147Y-111185646D01*
X107375646Y-111060147D01*
X107523216Y-110961544D01*
X107687188Y-110893624D01*
X107836488Y-110863927D01*
X107861258Y-110859000D01*
X108038742Y-110859000D01*
X108063512Y-110863927D01*
G37*
G36*
X99173512Y-110863927D02*
G01*
X99322812Y-110893624D01*
X99486784Y-110961544D01*
X99634354Y-111060147D01*
X99759853Y-111185646D01*
X99858456Y-111333216D01*
X99926376Y-111497188D01*
X99961000Y-111671259D01*
X99961000Y-111848741D01*
X99926376Y-112022812D01*
X99858456Y-112186784D01*
X99759853Y-112334354D01*
X99634354Y-112459853D01*
X99486784Y-112558456D01*
X99322812Y-112626376D01*
X99173512Y-112656073D01*
X99148742Y-112661000D01*
X98971258Y-112661000D01*
X98946488Y-112656073D01*
X98797188Y-112626376D01*
X98633216Y-112558456D01*
X98485646Y-112459853D01*
X98360147Y-112334354D01*
X98261544Y-112186784D01*
X98193624Y-112022812D01*
X98159000Y-111848741D01*
X98159000Y-111671259D01*
X98193624Y-111497188D01*
X98261544Y-111333216D01*
X98360147Y-111185646D01*
X98485646Y-111060147D01*
X98633216Y-110961544D01*
X98797188Y-110893624D01*
X98946488Y-110863927D01*
X98971258Y-110859000D01*
X99148742Y-110859000D01*
X99173512Y-110863927D01*
G37*
G36*
X89013512Y-110863927D02*
G01*
X89162812Y-110893624D01*
X89326784Y-110961544D01*
X89474354Y-111060147D01*
X89599853Y-111185646D01*
X89698456Y-111333216D01*
X89766376Y-111497188D01*
X89801000Y-111671259D01*
X89801000Y-111848741D01*
X89766376Y-112022812D01*
X89698456Y-112186784D01*
X89599853Y-112334354D01*
X89474354Y-112459853D01*
X89326784Y-112558456D01*
X89162812Y-112626376D01*
X89013512Y-112656073D01*
X88988742Y-112661000D01*
X88811258Y-112661000D01*
X88786488Y-112656073D01*
X88637188Y-112626376D01*
X88473216Y-112558456D01*
X88325646Y-112459853D01*
X88200147Y-112334354D01*
X88101544Y-112186784D01*
X88033624Y-112022812D01*
X87999000Y-111848741D01*
X87999000Y-111671259D01*
X88033624Y-111497188D01*
X88101544Y-111333216D01*
X88200147Y-111185646D01*
X88325646Y-111060147D01*
X88473216Y-110961544D01*
X88637188Y-110893624D01*
X88786488Y-110863927D01*
X88811258Y-110859000D01*
X88988742Y-110859000D01*
X89013512Y-110863927D01*
G37*
G36*
X223633512Y-110863927D02*
G01*
X223782812Y-110893624D01*
X223946784Y-110961544D01*
X224094354Y-111060147D01*
X224219853Y-111185646D01*
X224318456Y-111333216D01*
X224386376Y-111497188D01*
X224421000Y-111671259D01*
X224421000Y-111848741D01*
X224386376Y-112022812D01*
X224318456Y-112186784D01*
X224219853Y-112334354D01*
X224094354Y-112459853D01*
X223946784Y-112558456D01*
X223782812Y-112626376D01*
X223633512Y-112656073D01*
X223608742Y-112661000D01*
X223431258Y-112661000D01*
X223406488Y-112656073D01*
X223257188Y-112626376D01*
X223093216Y-112558456D01*
X222945646Y-112459853D01*
X222820147Y-112334354D01*
X222721544Y-112186784D01*
X222653624Y-112022812D01*
X222619000Y-111848741D01*
X222619000Y-111671259D01*
X222653624Y-111497188D01*
X222721544Y-111333216D01*
X222820147Y-111185646D01*
X222945646Y-111060147D01*
X223093216Y-110961544D01*
X223257188Y-110893624D01*
X223406488Y-110863927D01*
X223431258Y-110859000D01*
X223608742Y-110859000D01*
X223633512Y-110863927D01*
G37*
G36*
X213473512Y-110863927D02*
G01*
X213622812Y-110893624D01*
X213786784Y-110961544D01*
X213934354Y-111060147D01*
X214059853Y-111185646D01*
X214158456Y-111333216D01*
X214226376Y-111497188D01*
X214261000Y-111671259D01*
X214261000Y-111848741D01*
X214226376Y-112022812D01*
X214158456Y-112186784D01*
X214059853Y-112334354D01*
X213934354Y-112459853D01*
X213786784Y-112558456D01*
X213622812Y-112626376D01*
X213473512Y-112656073D01*
X213448742Y-112661000D01*
X213271258Y-112661000D01*
X213246488Y-112656073D01*
X213097188Y-112626376D01*
X212933216Y-112558456D01*
X212785646Y-112459853D01*
X212660147Y-112334354D01*
X212561544Y-112186784D01*
X212493624Y-112022812D01*
X212459000Y-111848741D01*
X212459000Y-111671259D01*
X212493624Y-111497188D01*
X212561544Y-111333216D01*
X212660147Y-111185646D01*
X212785646Y-111060147D01*
X212933216Y-110961544D01*
X213097188Y-110893624D01*
X213246488Y-110863927D01*
X213271258Y-110859000D01*
X213448742Y-110859000D01*
X213473512Y-110863927D01*
G37*
G36*
X195804549Y-108091116D02*
G01*
X195915734Y-108113232D01*
X196125203Y-108199997D01*
X196313720Y-108325960D01*
X196474040Y-108486280D01*
X196600003Y-108674797D01*
X196686768Y-108884266D01*
X196731000Y-109106636D01*
X196731000Y-109333364D01*
X196686768Y-109555734D01*
X196600003Y-109765203D01*
X196474040Y-109953720D01*
X196313720Y-110114040D01*
X196125203Y-110240003D01*
X195915734Y-110326768D01*
X195804549Y-110348884D01*
X195693365Y-110371000D01*
X195466635Y-110371000D01*
X195355451Y-110348884D01*
X195244266Y-110326768D01*
X195034797Y-110240003D01*
X194846280Y-110114040D01*
X194685960Y-109953720D01*
X194559997Y-109765203D01*
X194473232Y-109555734D01*
X194429000Y-109333364D01*
X194429000Y-109106636D01*
X194473232Y-108884266D01*
X194559997Y-108674797D01*
X194685960Y-108486280D01*
X194846280Y-108325960D01*
X195034797Y-108199997D01*
X195244266Y-108113232D01*
X195355451Y-108091116D01*
X195466635Y-108069000D01*
X195693365Y-108069000D01*
X195804549Y-108091116D01*
G37*
G36*
X214854549Y-108091116D02*
G01*
X214965734Y-108113232D01*
X215175203Y-108199997D01*
X215363720Y-108325960D01*
X215524040Y-108486280D01*
X215650003Y-108674797D01*
X215736768Y-108884266D01*
X215781000Y-109106636D01*
X215781000Y-109333364D01*
X215736768Y-109555734D01*
X215650003Y-109765203D01*
X215524040Y-109953720D01*
X215363720Y-110114040D01*
X215175203Y-110240003D01*
X214965734Y-110326768D01*
X214854549Y-110348884D01*
X214743365Y-110371000D01*
X214516635Y-110371000D01*
X214405451Y-110348884D01*
X214294266Y-110326768D01*
X214084797Y-110240003D01*
X213896280Y-110114040D01*
X213735960Y-109953720D01*
X213609997Y-109765203D01*
X213523232Y-109555734D01*
X213479000Y-109333364D01*
X213479000Y-109106636D01*
X213523232Y-108884266D01*
X213609997Y-108674797D01*
X213735960Y-108486280D01*
X213896280Y-108325960D01*
X214084797Y-108199997D01*
X214294266Y-108113232D01*
X214405451Y-108091116D01*
X214516635Y-108069000D01*
X214743365Y-108069000D01*
X214854549Y-108091116D01*
G37*
G36*
X176754549Y-108091116D02*
G01*
X176865734Y-108113232D01*
X177075203Y-108199997D01*
X177263720Y-108325960D01*
X177424040Y-108486280D01*
X177550003Y-108674797D01*
X177636768Y-108884266D01*
X177681000Y-109106636D01*
X177681000Y-109333364D01*
X177636768Y-109555734D01*
X177550003Y-109765203D01*
X177424040Y-109953720D01*
X177263720Y-110114040D01*
X177075203Y-110240003D01*
X176865734Y-110326768D01*
X176754549Y-110348884D01*
X176643365Y-110371000D01*
X176416635Y-110371000D01*
X176305451Y-110348884D01*
X176194266Y-110326768D01*
X175984797Y-110240003D01*
X175796280Y-110114040D01*
X175635960Y-109953720D01*
X175509997Y-109765203D01*
X175423232Y-109555734D01*
X175379000Y-109333364D01*
X175379000Y-109106636D01*
X175423232Y-108884266D01*
X175509997Y-108674797D01*
X175635960Y-108486280D01*
X175796280Y-108325960D01*
X175984797Y-108199997D01*
X176194266Y-108113232D01*
X176305451Y-108091116D01*
X176416635Y-108069000D01*
X176643365Y-108069000D01*
X176754549Y-108091116D01*
G37*
G36*
X128494549Y-108091116D02*
G01*
X128605734Y-108113232D01*
X128815203Y-108199997D01*
X129003720Y-108325960D01*
X129164040Y-108486280D01*
X129290003Y-108674797D01*
X129376768Y-108884266D01*
X129421000Y-109106636D01*
X129421000Y-109333364D01*
X129376768Y-109555734D01*
X129290003Y-109765203D01*
X129164040Y-109953720D01*
X129003720Y-110114040D01*
X128815203Y-110240003D01*
X128605734Y-110326768D01*
X128494549Y-110348884D01*
X128383365Y-110371000D01*
X128156635Y-110371000D01*
X128045451Y-110348884D01*
X127934266Y-110326768D01*
X127724797Y-110240003D01*
X127536280Y-110114040D01*
X127375960Y-109953720D01*
X127249997Y-109765203D01*
X127163232Y-109555734D01*
X127119000Y-109333364D01*
X127119000Y-109106636D01*
X127163232Y-108884266D01*
X127249997Y-108674797D01*
X127375960Y-108486280D01*
X127536280Y-108325960D01*
X127724797Y-108199997D01*
X127934266Y-108113232D01*
X128045451Y-108091116D01*
X128156635Y-108069000D01*
X128383365Y-108069000D01*
X128494549Y-108091116D01*
G37*
G36*
X90394549Y-108091116D02*
G01*
X90505734Y-108113232D01*
X90715203Y-108199997D01*
X90903720Y-108325960D01*
X91064040Y-108486280D01*
X91190003Y-108674797D01*
X91276768Y-108884266D01*
X91321000Y-109106636D01*
X91321000Y-109333364D01*
X91276768Y-109555734D01*
X91190003Y-109765203D01*
X91064040Y-109953720D01*
X90903720Y-110114040D01*
X90715203Y-110240003D01*
X90505734Y-110326768D01*
X90394549Y-110348884D01*
X90283365Y-110371000D01*
X90056635Y-110371000D01*
X89945451Y-110348884D01*
X89834266Y-110326768D01*
X89624797Y-110240003D01*
X89436280Y-110114040D01*
X89275960Y-109953720D01*
X89149997Y-109765203D01*
X89063232Y-109555734D01*
X89019000Y-109333364D01*
X89019000Y-109106636D01*
X89063232Y-108884266D01*
X89149997Y-108674797D01*
X89275960Y-108486280D01*
X89436280Y-108325960D01*
X89624797Y-108199997D01*
X89834266Y-108113232D01*
X89945451Y-108091116D01*
X90056635Y-108069000D01*
X90283365Y-108069000D01*
X90394549Y-108091116D01*
G37*
G36*
X109444549Y-108091116D02*
G01*
X109555734Y-108113232D01*
X109765203Y-108199997D01*
X109953720Y-108325960D01*
X110114040Y-108486280D01*
X110240003Y-108674797D01*
X110326768Y-108884266D01*
X110371000Y-109106636D01*
X110371000Y-109333364D01*
X110326768Y-109555734D01*
X110240003Y-109765203D01*
X110114040Y-109953720D01*
X109953720Y-110114040D01*
X109765203Y-110240003D01*
X109555734Y-110326768D01*
X109444549Y-110348884D01*
X109333365Y-110371000D01*
X109106635Y-110371000D01*
X108995451Y-110348884D01*
X108884266Y-110326768D01*
X108674797Y-110240003D01*
X108486280Y-110114040D01*
X108325960Y-109953720D01*
X108199997Y-109765203D01*
X108113232Y-109555734D01*
X108069000Y-109333364D01*
X108069000Y-109106636D01*
X108113232Y-108884266D01*
X108199997Y-108674797D01*
X108325960Y-108486280D01*
X108486280Y-108325960D01*
X108674797Y-108199997D01*
X108884266Y-108113232D01*
X108995451Y-108091116D01*
X109106635Y-108069000D01*
X109333365Y-108069000D01*
X109444549Y-108091116D01*
G37*
G36*
X221204549Y-105551116D02*
G01*
X221315734Y-105573232D01*
X221525203Y-105659997D01*
X221713720Y-105785960D01*
X221874040Y-105946280D01*
X222000003Y-106134797D01*
X222086768Y-106344266D01*
X222131000Y-106566636D01*
X222131000Y-106793364D01*
X222086768Y-107015734D01*
X222000003Y-107225203D01*
X221874040Y-107413720D01*
X221713720Y-107574040D01*
X221525203Y-107700003D01*
X221315734Y-107786768D01*
X221204549Y-107808884D01*
X221093365Y-107831000D01*
X220866635Y-107831000D01*
X220755451Y-107808884D01*
X220644266Y-107786768D01*
X220434797Y-107700003D01*
X220246280Y-107574040D01*
X220085960Y-107413720D01*
X219959997Y-107225203D01*
X219873232Y-107015734D01*
X219829000Y-106793364D01*
X219829000Y-106566636D01*
X219873232Y-106344266D01*
X219959997Y-106134797D01*
X220085960Y-105946280D01*
X220246280Y-105785960D01*
X220434797Y-105659997D01*
X220644266Y-105573232D01*
X220755451Y-105551116D01*
X220866635Y-105529000D01*
X221093365Y-105529000D01*
X221204549Y-105551116D01*
G37*
G36*
X183104549Y-105551116D02*
G01*
X183215734Y-105573232D01*
X183425203Y-105659997D01*
X183613720Y-105785960D01*
X183774040Y-105946280D01*
X183900003Y-106134797D01*
X183986768Y-106344266D01*
X184031000Y-106566636D01*
X184031000Y-106793364D01*
X183986768Y-107015734D01*
X183900003Y-107225203D01*
X183774040Y-107413720D01*
X183613720Y-107574040D01*
X183425203Y-107700003D01*
X183215734Y-107786768D01*
X183104549Y-107808884D01*
X182993365Y-107831000D01*
X182766635Y-107831000D01*
X182655451Y-107808884D01*
X182544266Y-107786768D01*
X182334797Y-107700003D01*
X182146280Y-107574040D01*
X181985960Y-107413720D01*
X181859997Y-107225203D01*
X181773232Y-107015734D01*
X181729000Y-106793364D01*
X181729000Y-106566636D01*
X181773232Y-106344266D01*
X181859997Y-106134797D01*
X181985960Y-105946280D01*
X182146280Y-105785960D01*
X182334797Y-105659997D01*
X182544266Y-105573232D01*
X182655451Y-105551116D01*
X182766635Y-105529000D01*
X182993365Y-105529000D01*
X183104549Y-105551116D01*
G37*
G36*
X96744549Y-105551116D02*
G01*
X96855734Y-105573232D01*
X97065203Y-105659997D01*
X97253720Y-105785960D01*
X97414040Y-105946280D01*
X97540003Y-106134797D01*
X97626768Y-106344266D01*
X97671000Y-106566636D01*
X97671000Y-106793364D01*
X97626768Y-107015734D01*
X97540003Y-107225203D01*
X97414040Y-107413720D01*
X97253720Y-107574040D01*
X97065203Y-107700003D01*
X96855734Y-107786768D01*
X96744549Y-107808884D01*
X96633365Y-107831000D01*
X96406635Y-107831000D01*
X96295451Y-107808884D01*
X96184266Y-107786768D01*
X95974797Y-107700003D01*
X95786280Y-107574040D01*
X95625960Y-107413720D01*
X95499997Y-107225203D01*
X95413232Y-107015734D01*
X95369000Y-106793364D01*
X95369000Y-106566636D01*
X95413232Y-106344266D01*
X95499997Y-106134797D01*
X95625960Y-105946280D01*
X95786280Y-105785960D01*
X95974797Y-105659997D01*
X96184266Y-105573232D01*
X96295451Y-105551116D01*
X96406635Y-105529000D01*
X96633365Y-105529000D01*
X96744549Y-105551116D01*
G37*
G36*
X134844549Y-105551116D02*
G01*
X134955734Y-105573232D01*
X135165203Y-105659997D01*
X135353720Y-105785960D01*
X135514040Y-105946280D01*
X135640003Y-106134797D01*
X135726768Y-106344266D01*
X135771000Y-106566636D01*
X135771000Y-106793364D01*
X135726768Y-107015734D01*
X135640003Y-107225203D01*
X135514040Y-107413720D01*
X135353720Y-107574040D01*
X135165203Y-107700003D01*
X134955734Y-107786768D01*
X134844549Y-107808884D01*
X134733365Y-107831000D01*
X134506635Y-107831000D01*
X134395451Y-107808884D01*
X134284266Y-107786768D01*
X134074797Y-107700003D01*
X133886280Y-107574040D01*
X133725960Y-107413720D01*
X133599997Y-107225203D01*
X133513232Y-107015734D01*
X133469000Y-106793364D01*
X133469000Y-106566636D01*
X133513232Y-106344266D01*
X133599997Y-106134797D01*
X133725960Y-105946280D01*
X133886280Y-105785960D01*
X134074797Y-105659997D01*
X134284266Y-105573232D01*
X134395451Y-105551116D01*
X134506635Y-105529000D01*
X134733365Y-105529000D01*
X134844549Y-105551116D01*
G37*
G36*
X202154549Y-105551116D02*
G01*
X202265734Y-105573232D01*
X202475203Y-105659997D01*
X202663720Y-105785960D01*
X202824040Y-105946280D01*
X202950003Y-106134797D01*
X203036768Y-106344266D01*
X203081000Y-106566636D01*
X203081000Y-106793364D01*
X203036768Y-107015734D01*
X202950003Y-107225203D01*
X202824040Y-107413720D01*
X202663720Y-107574040D01*
X202475203Y-107700003D01*
X202265734Y-107786768D01*
X202154549Y-107808884D01*
X202043365Y-107831000D01*
X201816635Y-107831000D01*
X201705451Y-107808884D01*
X201594266Y-107786768D01*
X201384797Y-107700003D01*
X201196280Y-107574040D01*
X201035960Y-107413720D01*
X200909997Y-107225203D01*
X200823232Y-107015734D01*
X200779000Y-106793364D01*
X200779000Y-106566636D01*
X200823232Y-106344266D01*
X200909997Y-106134797D01*
X201035960Y-105946280D01*
X201196280Y-105785960D01*
X201384797Y-105659997D01*
X201594266Y-105573232D01*
X201705451Y-105551116D01*
X201816635Y-105529000D01*
X202043365Y-105529000D01*
X202154549Y-105551116D01*
G37*
G36*
X115794549Y-105551116D02*
G01*
X115905734Y-105573232D01*
X116115203Y-105659997D01*
X116303720Y-105785960D01*
X116464040Y-105946280D01*
X116590003Y-106134797D01*
X116676768Y-106344266D01*
X116721000Y-106566636D01*
X116721000Y-106793364D01*
X116676768Y-107015734D01*
X116590003Y-107225203D01*
X116464040Y-107413720D01*
X116303720Y-107574040D01*
X116115203Y-107700003D01*
X115905734Y-107786768D01*
X115794549Y-107808884D01*
X115683365Y-107831000D01*
X115456635Y-107831000D01*
X115345451Y-107808884D01*
X115234266Y-107786768D01*
X115024797Y-107700003D01*
X114836280Y-107574040D01*
X114675960Y-107413720D01*
X114549997Y-107225203D01*
X114463232Y-107015734D01*
X114419000Y-106793364D01*
X114419000Y-106566636D01*
X114463232Y-106344266D01*
X114549997Y-106134797D01*
X114675960Y-105946280D01*
X114836280Y-105785960D01*
X115024797Y-105659997D01*
X115234266Y-105573232D01*
X115345451Y-105551116D01*
X115456635Y-105529000D01*
X115683365Y-105529000D01*
X115794549Y-105551116D01*
G37*
G36*
X132678254Y-90737818D02*
G01*
X133051511Y-90892426D01*
X133051513Y-90892427D01*
X133387436Y-91116884D01*
X133673116Y-91402564D01*
X133897574Y-91738489D01*
X134052182Y-92111746D01*
X134131000Y-92507993D01*
X134131000Y-92912007D01*
X134052182Y-93308254D01*
X133897574Y-93681511D01*
X133897573Y-93681513D01*
X133673116Y-94017436D01*
X133387436Y-94303116D01*
X133051513Y-94527573D01*
X133051512Y-94527574D01*
X133051511Y-94527574D01*
X132678254Y-94682182D01*
X132282007Y-94761000D01*
X131877993Y-94761000D01*
X131481746Y-94682182D01*
X131108489Y-94527574D01*
X131108488Y-94527574D01*
X131108487Y-94527573D01*
X130772564Y-94303116D01*
X130486884Y-94017436D01*
X130262427Y-93681513D01*
X130262426Y-93681511D01*
X130107818Y-93308254D01*
X130029000Y-92912007D01*
X130029000Y-92507993D01*
X130107818Y-92111746D01*
X130262426Y-91738489D01*
X130486884Y-91402564D01*
X130772564Y-91116884D01*
X131108487Y-90892427D01*
X131108489Y-90892426D01*
X131481746Y-90737818D01*
X131877993Y-90659000D01*
X132282007Y-90659000D01*
X132678254Y-90737818D01*
G37*
G36*
X113628254Y-90737818D02*
G01*
X114001511Y-90892426D01*
X114001513Y-90892427D01*
X114337436Y-91116884D01*
X114623116Y-91402564D01*
X114847574Y-91738489D01*
X115002182Y-92111746D01*
X115081000Y-92507993D01*
X115081000Y-92912007D01*
X115002182Y-93308254D01*
X114847574Y-93681511D01*
X114847573Y-93681513D01*
X114623116Y-94017436D01*
X114337436Y-94303116D01*
X114001513Y-94527573D01*
X114001512Y-94527574D01*
X114001511Y-94527574D01*
X113628254Y-94682182D01*
X113232007Y-94761000D01*
X112827993Y-94761000D01*
X112431746Y-94682182D01*
X112058489Y-94527574D01*
X112058488Y-94527574D01*
X112058487Y-94527573D01*
X111722564Y-94303116D01*
X111436884Y-94017436D01*
X111212427Y-93681513D01*
X111212426Y-93681511D01*
X111057818Y-93308254D01*
X110979000Y-92912007D01*
X110979000Y-92507993D01*
X111057818Y-92111746D01*
X111212426Y-91738489D01*
X111436884Y-91402564D01*
X111722564Y-91116884D01*
X112058487Y-90892427D01*
X112058489Y-90892426D01*
X112431746Y-90737818D01*
X112827993Y-90659000D01*
X113232007Y-90659000D01*
X113628254Y-90737818D01*
G37*
G36*
X94578254Y-90737818D02*
G01*
X94951511Y-90892426D01*
X94951513Y-90892427D01*
X95287436Y-91116884D01*
X95573116Y-91402564D01*
X95797574Y-91738489D01*
X95952182Y-92111746D01*
X96031000Y-92507993D01*
X96031000Y-92912007D01*
X95952182Y-93308254D01*
X95797574Y-93681511D01*
X95797573Y-93681513D01*
X95573116Y-94017436D01*
X95287436Y-94303116D01*
X94951513Y-94527573D01*
X94951512Y-94527574D01*
X94951511Y-94527574D01*
X94578254Y-94682182D01*
X94182007Y-94761000D01*
X93777993Y-94761000D01*
X93381746Y-94682182D01*
X93008489Y-94527574D01*
X93008488Y-94527574D01*
X93008487Y-94527573D01*
X92672564Y-94303116D01*
X92386884Y-94017436D01*
X92162427Y-93681513D01*
X92162426Y-93681511D01*
X92007818Y-93308254D01*
X91929000Y-92912007D01*
X91929000Y-92507993D01*
X92007818Y-92111746D01*
X92162426Y-91738489D01*
X92386884Y-91402564D01*
X92672564Y-91116884D01*
X93008487Y-90892427D01*
X93008489Y-90892426D01*
X93381746Y-90737818D01*
X93777993Y-90659000D01*
X94182007Y-90659000D01*
X94578254Y-90737818D01*
G37*
G36*
X180938254Y-90737818D02*
G01*
X181311511Y-90892426D01*
X181311513Y-90892427D01*
X181647436Y-91116884D01*
X181933116Y-91402564D01*
X182157574Y-91738489D01*
X182312182Y-92111746D01*
X182391000Y-92507993D01*
X182391000Y-92912007D01*
X182312182Y-93308254D01*
X182157574Y-93681511D01*
X182157573Y-93681513D01*
X181933116Y-94017436D01*
X181647436Y-94303116D01*
X181311513Y-94527573D01*
X181311512Y-94527574D01*
X181311511Y-94527574D01*
X180938254Y-94682182D01*
X180542007Y-94761000D01*
X180137993Y-94761000D01*
X179741746Y-94682182D01*
X179368489Y-94527574D01*
X179368488Y-94527574D01*
X179368487Y-94527573D01*
X179032564Y-94303116D01*
X178746884Y-94017436D01*
X178522427Y-93681513D01*
X178522426Y-93681511D01*
X178367818Y-93308254D01*
X178289000Y-92912007D01*
X178289000Y-92507993D01*
X178367818Y-92111746D01*
X178522426Y-91738489D01*
X178746884Y-91402564D01*
X179032564Y-91116884D01*
X179368487Y-90892427D01*
X179368489Y-90892426D01*
X179741746Y-90737818D01*
X180137993Y-90659000D01*
X180542007Y-90659000D01*
X180938254Y-90737818D01*
G37*
G36*
X199988254Y-90737818D02*
G01*
X200361511Y-90892426D01*
X200361513Y-90892427D01*
X200697436Y-91116884D01*
X200983116Y-91402564D01*
X201207574Y-91738489D01*
X201362182Y-92111746D01*
X201441000Y-92507993D01*
X201441000Y-92912007D01*
X201362182Y-93308254D01*
X201207574Y-93681511D01*
X201207573Y-93681513D01*
X200983116Y-94017436D01*
X200697436Y-94303116D01*
X200361513Y-94527573D01*
X200361512Y-94527574D01*
X200361511Y-94527574D01*
X199988254Y-94682182D01*
X199592007Y-94761000D01*
X199187993Y-94761000D01*
X198791746Y-94682182D01*
X198418489Y-94527574D01*
X198418488Y-94527574D01*
X198418487Y-94527573D01*
X198082564Y-94303116D01*
X197796884Y-94017436D01*
X197572427Y-93681513D01*
X197572426Y-93681511D01*
X197417818Y-93308254D01*
X197339000Y-92912007D01*
X197339000Y-92507993D01*
X197417818Y-92111746D01*
X197572426Y-91738489D01*
X197796884Y-91402564D01*
X198082564Y-91116884D01*
X198418487Y-90892427D01*
X198418489Y-90892426D01*
X198791746Y-90737818D01*
X199187993Y-90659000D01*
X199592007Y-90659000D01*
X199988254Y-90737818D01*
G37*
G36*
X219038254Y-90737818D02*
G01*
X219411511Y-90892426D01*
X219411513Y-90892427D01*
X219747436Y-91116884D01*
X220033116Y-91402564D01*
X220257574Y-91738489D01*
X220412182Y-92111746D01*
X220491000Y-92507993D01*
X220491000Y-92912007D01*
X220412182Y-93308254D01*
X220257574Y-93681511D01*
X220257573Y-93681513D01*
X220033116Y-94017436D01*
X219747436Y-94303116D01*
X219411513Y-94527573D01*
X219411512Y-94527574D01*
X219411511Y-94527574D01*
X219038254Y-94682182D01*
X218642007Y-94761000D01*
X218237993Y-94761000D01*
X217841746Y-94682182D01*
X217468489Y-94527574D01*
X217468488Y-94527574D01*
X217468487Y-94527573D01*
X217132564Y-94303116D01*
X216846884Y-94017436D01*
X216622427Y-93681513D01*
X216622426Y-93681511D01*
X216467818Y-93308254D01*
X216389000Y-92912007D01*
X216389000Y-92507993D01*
X216467818Y-92111746D01*
X216622426Y-91738489D01*
X216846884Y-91402564D01*
X217132564Y-91116884D01*
X217468487Y-90892427D01*
X217468489Y-90892426D01*
X217841746Y-90737818D01*
X218237993Y-90659000D01*
X218642007Y-90659000D01*
X219038254Y-90737818D01*
G37*
G36*
X108063512Y-91813927D02*
G01*
X108212812Y-91843624D01*
X108376784Y-91911544D01*
X108524354Y-92010147D01*
X108649853Y-92135646D01*
X108748456Y-92283216D01*
X108816376Y-92447188D01*
X108851000Y-92621259D01*
X108851000Y-92798741D01*
X108816376Y-92972812D01*
X108748456Y-93136784D01*
X108649853Y-93284354D01*
X108524354Y-93409853D01*
X108376784Y-93508456D01*
X108212812Y-93576376D01*
X108063512Y-93606073D01*
X108038742Y-93611000D01*
X107861258Y-93611000D01*
X107836488Y-93606073D01*
X107687188Y-93576376D01*
X107523216Y-93508456D01*
X107375646Y-93409853D01*
X107250147Y-93284354D01*
X107151544Y-93136784D01*
X107083624Y-92972812D01*
X107049000Y-92798741D01*
X107049000Y-92621259D01*
X107083624Y-92447188D01*
X107151544Y-92283216D01*
X107250147Y-92135646D01*
X107375646Y-92010147D01*
X107523216Y-91911544D01*
X107687188Y-91843624D01*
X107836488Y-91813927D01*
X107861258Y-91809000D01*
X108038742Y-91809000D01*
X108063512Y-91813927D01*
G37*
G36*
X223633512Y-91813927D02*
G01*
X223782812Y-91843624D01*
X223946784Y-91911544D01*
X224094354Y-92010147D01*
X224219853Y-92135646D01*
X224318456Y-92283216D01*
X224386376Y-92447188D01*
X224421000Y-92621259D01*
X224421000Y-92798741D01*
X224386376Y-92972812D01*
X224318456Y-93136784D01*
X224219853Y-93284354D01*
X224094354Y-93409853D01*
X223946784Y-93508456D01*
X223782812Y-93576376D01*
X223633512Y-93606073D01*
X223608742Y-93611000D01*
X223431258Y-93611000D01*
X223406488Y-93606073D01*
X223257188Y-93576376D01*
X223093216Y-93508456D01*
X222945646Y-93409853D01*
X222820147Y-93284354D01*
X222721544Y-93136784D01*
X222653624Y-92972812D01*
X222619000Y-92798741D01*
X222619000Y-92621259D01*
X222653624Y-92447188D01*
X222721544Y-92283216D01*
X222820147Y-92135646D01*
X222945646Y-92010147D01*
X223093216Y-91911544D01*
X223257188Y-91843624D01*
X223406488Y-91813927D01*
X223431258Y-91809000D01*
X223608742Y-91809000D01*
X223633512Y-91813927D01*
G37*
G36*
X99173512Y-91813927D02*
G01*
X99322812Y-91843624D01*
X99486784Y-91911544D01*
X99634354Y-92010147D01*
X99759853Y-92135646D01*
X99858456Y-92283216D01*
X99926376Y-92447188D01*
X99961000Y-92621259D01*
X99961000Y-92798741D01*
X99926376Y-92972812D01*
X99858456Y-93136784D01*
X99759853Y-93284354D01*
X99634354Y-93409853D01*
X99486784Y-93508456D01*
X99322812Y-93576376D01*
X99173512Y-93606073D01*
X99148742Y-93611000D01*
X98971258Y-93611000D01*
X98946488Y-93606073D01*
X98797188Y-93576376D01*
X98633216Y-93508456D01*
X98485646Y-93409853D01*
X98360147Y-93284354D01*
X98261544Y-93136784D01*
X98193624Y-92972812D01*
X98159000Y-92798741D01*
X98159000Y-92621259D01*
X98193624Y-92447188D01*
X98261544Y-92283216D01*
X98360147Y-92135646D01*
X98485646Y-92010147D01*
X98633216Y-91911544D01*
X98797188Y-91843624D01*
X98946488Y-91813927D01*
X98971258Y-91809000D01*
X99148742Y-91809000D01*
X99173512Y-91813927D01*
G37*
G36*
X89013512Y-91813927D02*
G01*
X89162812Y-91843624D01*
X89326784Y-91911544D01*
X89474354Y-92010147D01*
X89599853Y-92135646D01*
X89698456Y-92283216D01*
X89766376Y-92447188D01*
X89801000Y-92621259D01*
X89801000Y-92798741D01*
X89766376Y-92972812D01*
X89698456Y-93136784D01*
X89599853Y-93284354D01*
X89474354Y-93409853D01*
X89326784Y-93508456D01*
X89162812Y-93576376D01*
X89013512Y-93606073D01*
X88988742Y-93611000D01*
X88811258Y-93611000D01*
X88786488Y-93606073D01*
X88637188Y-93576376D01*
X88473216Y-93508456D01*
X88325646Y-93409853D01*
X88200147Y-93284354D01*
X88101544Y-93136784D01*
X88033624Y-92972812D01*
X87999000Y-92798741D01*
X87999000Y-92621259D01*
X88033624Y-92447188D01*
X88101544Y-92283216D01*
X88200147Y-92135646D01*
X88325646Y-92010147D01*
X88473216Y-91911544D01*
X88637188Y-91843624D01*
X88786488Y-91813927D01*
X88811258Y-91809000D01*
X88988742Y-91809000D01*
X89013512Y-91813927D01*
G37*
G36*
X137273512Y-91813927D02*
G01*
X137422812Y-91843624D01*
X137586784Y-91911544D01*
X137734354Y-92010147D01*
X137859853Y-92135646D01*
X137958456Y-92283216D01*
X138026376Y-92447188D01*
X138061000Y-92621259D01*
X138061000Y-92798741D01*
X138026376Y-92972812D01*
X137958456Y-93136784D01*
X137859853Y-93284354D01*
X137734354Y-93409853D01*
X137586784Y-93508456D01*
X137422812Y-93576376D01*
X137273512Y-93606073D01*
X137248742Y-93611000D01*
X137071258Y-93611000D01*
X137046488Y-93606073D01*
X136897188Y-93576376D01*
X136733216Y-93508456D01*
X136585646Y-93409853D01*
X136460147Y-93284354D01*
X136361544Y-93136784D01*
X136293624Y-92972812D01*
X136259000Y-92798741D01*
X136259000Y-92621259D01*
X136293624Y-92447188D01*
X136361544Y-92283216D01*
X136460147Y-92135646D01*
X136585646Y-92010147D01*
X136733216Y-91911544D01*
X136897188Y-91843624D01*
X137046488Y-91813927D01*
X137071258Y-91809000D01*
X137248742Y-91809000D01*
X137273512Y-91813927D01*
G37*
G36*
X127113512Y-91813927D02*
G01*
X127262812Y-91843624D01*
X127426784Y-91911544D01*
X127574354Y-92010147D01*
X127699853Y-92135646D01*
X127798456Y-92283216D01*
X127866376Y-92447188D01*
X127901000Y-92621259D01*
X127901000Y-92798741D01*
X127866376Y-92972812D01*
X127798456Y-93136784D01*
X127699853Y-93284354D01*
X127574354Y-93409853D01*
X127426784Y-93508456D01*
X127262812Y-93576376D01*
X127113512Y-93606073D01*
X127088742Y-93611000D01*
X126911258Y-93611000D01*
X126886488Y-93606073D01*
X126737188Y-93576376D01*
X126573216Y-93508456D01*
X126425646Y-93409853D01*
X126300147Y-93284354D01*
X126201544Y-93136784D01*
X126133624Y-92972812D01*
X126099000Y-92798741D01*
X126099000Y-92621259D01*
X126133624Y-92447188D01*
X126201544Y-92283216D01*
X126300147Y-92135646D01*
X126425646Y-92010147D01*
X126573216Y-91911544D01*
X126737188Y-91843624D01*
X126886488Y-91813927D01*
X126911258Y-91809000D01*
X127088742Y-91809000D01*
X127113512Y-91813927D01*
G37*
G36*
X118223512Y-91813927D02*
G01*
X118372812Y-91843624D01*
X118536784Y-91911544D01*
X118684354Y-92010147D01*
X118809853Y-92135646D01*
X118908456Y-92283216D01*
X118976376Y-92447188D01*
X119011000Y-92621259D01*
X119011000Y-92798741D01*
X118976376Y-92972812D01*
X118908456Y-93136784D01*
X118809853Y-93284354D01*
X118684354Y-93409853D01*
X118536784Y-93508456D01*
X118372812Y-93576376D01*
X118223512Y-93606073D01*
X118198742Y-93611000D01*
X118021258Y-93611000D01*
X117996488Y-93606073D01*
X117847188Y-93576376D01*
X117683216Y-93508456D01*
X117535646Y-93409853D01*
X117410147Y-93284354D01*
X117311544Y-93136784D01*
X117243624Y-92972812D01*
X117209000Y-92798741D01*
X117209000Y-92621259D01*
X117243624Y-92447188D01*
X117311544Y-92283216D01*
X117410147Y-92135646D01*
X117535646Y-92010147D01*
X117683216Y-91911544D01*
X117847188Y-91843624D01*
X117996488Y-91813927D01*
X118021258Y-91809000D01*
X118198742Y-91809000D01*
X118223512Y-91813927D01*
G37*
G36*
X213473512Y-91813927D02*
G01*
X213622812Y-91843624D01*
X213786784Y-91911544D01*
X213934354Y-92010147D01*
X214059853Y-92135646D01*
X214158456Y-92283216D01*
X214226376Y-92447188D01*
X214261000Y-92621259D01*
X214261000Y-92798741D01*
X214226376Y-92972812D01*
X214158456Y-93136784D01*
X214059853Y-93284354D01*
X213934354Y-93409853D01*
X213786784Y-93508456D01*
X213622812Y-93576376D01*
X213473512Y-93606073D01*
X213448742Y-93611000D01*
X213271258Y-93611000D01*
X213246488Y-93606073D01*
X213097188Y-93576376D01*
X212933216Y-93508456D01*
X212785646Y-93409853D01*
X212660147Y-93284354D01*
X212561544Y-93136784D01*
X212493624Y-92972812D01*
X212459000Y-92798741D01*
X212459000Y-92621259D01*
X212493624Y-92447188D01*
X212561544Y-92283216D01*
X212660147Y-92135646D01*
X212785646Y-92010147D01*
X212933216Y-91911544D01*
X213097188Y-91843624D01*
X213246488Y-91813927D01*
X213271258Y-91809000D01*
X213448742Y-91809000D01*
X213473512Y-91813927D01*
G37*
G36*
X204583512Y-91813927D02*
G01*
X204732812Y-91843624D01*
X204896784Y-91911544D01*
X205044354Y-92010147D01*
X205169853Y-92135646D01*
X205268456Y-92283216D01*
X205336376Y-92447188D01*
X205371000Y-92621259D01*
X205371000Y-92798741D01*
X205336376Y-92972812D01*
X205268456Y-93136784D01*
X205169853Y-93284354D01*
X205044354Y-93409853D01*
X204896784Y-93508456D01*
X204732812Y-93576376D01*
X204583512Y-93606073D01*
X204558742Y-93611000D01*
X204381258Y-93611000D01*
X204356488Y-93606073D01*
X204207188Y-93576376D01*
X204043216Y-93508456D01*
X203895646Y-93409853D01*
X203770147Y-93284354D01*
X203671544Y-93136784D01*
X203603624Y-92972812D01*
X203569000Y-92798741D01*
X203569000Y-92621259D01*
X203603624Y-92447188D01*
X203671544Y-92283216D01*
X203770147Y-92135646D01*
X203895646Y-92010147D01*
X204043216Y-91911544D01*
X204207188Y-91843624D01*
X204356488Y-91813927D01*
X204381258Y-91809000D01*
X204558742Y-91809000D01*
X204583512Y-91813927D01*
G37*
G36*
X175373512Y-91813927D02*
G01*
X175522812Y-91843624D01*
X175686784Y-91911544D01*
X175834354Y-92010147D01*
X175959853Y-92135646D01*
X176058456Y-92283216D01*
X176126376Y-92447188D01*
X176161000Y-92621259D01*
X176161000Y-92798741D01*
X176126376Y-92972812D01*
X176058456Y-93136784D01*
X175959853Y-93284354D01*
X175834354Y-93409853D01*
X175686784Y-93508456D01*
X175522812Y-93576376D01*
X175373512Y-93606073D01*
X175348742Y-93611000D01*
X175171258Y-93611000D01*
X175146488Y-93606073D01*
X174997188Y-93576376D01*
X174833216Y-93508456D01*
X174685646Y-93409853D01*
X174560147Y-93284354D01*
X174461544Y-93136784D01*
X174393624Y-92972812D01*
X174359000Y-92798741D01*
X174359000Y-92621259D01*
X174393624Y-92447188D01*
X174461544Y-92283216D01*
X174560147Y-92135646D01*
X174685646Y-92010147D01*
X174833216Y-91911544D01*
X174997188Y-91843624D01*
X175146488Y-91813927D01*
X175171258Y-91809000D01*
X175348742Y-91809000D01*
X175373512Y-91813927D01*
G37*
G36*
X185533512Y-91813927D02*
G01*
X185682812Y-91843624D01*
X185846784Y-91911544D01*
X185994354Y-92010147D01*
X186119853Y-92135646D01*
X186218456Y-92283216D01*
X186286376Y-92447188D01*
X186321000Y-92621259D01*
X186321000Y-92798741D01*
X186286376Y-92972812D01*
X186218456Y-93136784D01*
X186119853Y-93284354D01*
X185994354Y-93409853D01*
X185846784Y-93508456D01*
X185682812Y-93576376D01*
X185533512Y-93606073D01*
X185508742Y-93611000D01*
X185331258Y-93611000D01*
X185306488Y-93606073D01*
X185157188Y-93576376D01*
X184993216Y-93508456D01*
X184845646Y-93409853D01*
X184720147Y-93284354D01*
X184621544Y-93136784D01*
X184553624Y-92972812D01*
X184519000Y-92798741D01*
X184519000Y-92621259D01*
X184553624Y-92447188D01*
X184621544Y-92283216D01*
X184720147Y-92135646D01*
X184845646Y-92010147D01*
X184993216Y-91911544D01*
X185157188Y-91843624D01*
X185306488Y-91813927D01*
X185331258Y-91809000D01*
X185508742Y-91809000D01*
X185533512Y-91813927D01*
G37*
G36*
X194423512Y-91813927D02*
G01*
X194572812Y-91843624D01*
X194736784Y-91911544D01*
X194884354Y-92010147D01*
X195009853Y-92135646D01*
X195108456Y-92283216D01*
X195176376Y-92447188D01*
X195211000Y-92621259D01*
X195211000Y-92798741D01*
X195176376Y-92972812D01*
X195108456Y-93136784D01*
X195009853Y-93284354D01*
X194884354Y-93409853D01*
X194736784Y-93508456D01*
X194572812Y-93576376D01*
X194423512Y-93606073D01*
X194398742Y-93611000D01*
X194221258Y-93611000D01*
X194196488Y-93606073D01*
X194047188Y-93576376D01*
X193883216Y-93508456D01*
X193735646Y-93409853D01*
X193610147Y-93284354D01*
X193511544Y-93136784D01*
X193443624Y-92972812D01*
X193409000Y-92798741D01*
X193409000Y-92621259D01*
X193443624Y-92447188D01*
X193511544Y-92283216D01*
X193610147Y-92135646D01*
X193735646Y-92010147D01*
X193883216Y-91911544D01*
X194047188Y-91843624D01*
X194196488Y-91813927D01*
X194221258Y-91809000D01*
X194398742Y-91809000D01*
X194423512Y-91813927D01*
G37*
G36*
X90394549Y-89041116D02*
G01*
X90505734Y-89063232D01*
X90715203Y-89149997D01*
X90903720Y-89275960D01*
X91064040Y-89436280D01*
X91190003Y-89624797D01*
X91276768Y-89834266D01*
X91321000Y-90056636D01*
X91321000Y-90283364D01*
X91276768Y-90505734D01*
X91190003Y-90715203D01*
X91064040Y-90903720D01*
X90903720Y-91064040D01*
X90715203Y-91190003D01*
X90505734Y-91276768D01*
X90394549Y-91298884D01*
X90283365Y-91321000D01*
X90056635Y-91321000D01*
X89945451Y-91298884D01*
X89834266Y-91276768D01*
X89624797Y-91190003D01*
X89436280Y-91064040D01*
X89275960Y-90903720D01*
X89149997Y-90715203D01*
X89063232Y-90505734D01*
X89019000Y-90283364D01*
X89019000Y-90056636D01*
X89063232Y-89834266D01*
X89149997Y-89624797D01*
X89275960Y-89436280D01*
X89436280Y-89275960D01*
X89624797Y-89149997D01*
X89834266Y-89063232D01*
X89945451Y-89041116D01*
X90056635Y-89019000D01*
X90283365Y-89019000D01*
X90394549Y-89041116D01*
G37*
G36*
X214854549Y-89041116D02*
G01*
X214965734Y-89063232D01*
X215175203Y-89149997D01*
X215363720Y-89275960D01*
X215524040Y-89436280D01*
X215650003Y-89624797D01*
X215736768Y-89834266D01*
X215781000Y-90056636D01*
X215781000Y-90283364D01*
X215736768Y-90505734D01*
X215650003Y-90715203D01*
X215524040Y-90903720D01*
X215363720Y-91064040D01*
X215175203Y-91190003D01*
X214965734Y-91276768D01*
X214854549Y-91298884D01*
X214743365Y-91321000D01*
X214516635Y-91321000D01*
X214405451Y-91298884D01*
X214294266Y-91276768D01*
X214084797Y-91190003D01*
X213896280Y-91064040D01*
X213735960Y-90903720D01*
X213609997Y-90715203D01*
X213523232Y-90505734D01*
X213479000Y-90283364D01*
X213479000Y-90056636D01*
X213523232Y-89834266D01*
X213609997Y-89624797D01*
X213735960Y-89436280D01*
X213896280Y-89275960D01*
X214084797Y-89149997D01*
X214294266Y-89063232D01*
X214405451Y-89041116D01*
X214516635Y-89019000D01*
X214743365Y-89019000D01*
X214854549Y-89041116D01*
G37*
G36*
X195804549Y-89041116D02*
G01*
X195915734Y-89063232D01*
X196125203Y-89149997D01*
X196313720Y-89275960D01*
X196474040Y-89436280D01*
X196600003Y-89624797D01*
X196686768Y-89834266D01*
X196731000Y-90056636D01*
X196731000Y-90283364D01*
X196686768Y-90505734D01*
X196600003Y-90715203D01*
X196474040Y-90903720D01*
X196313720Y-91064040D01*
X196125203Y-91190003D01*
X195915734Y-91276768D01*
X195804549Y-91298884D01*
X195693365Y-91321000D01*
X195466635Y-91321000D01*
X195355451Y-91298884D01*
X195244266Y-91276768D01*
X195034797Y-91190003D01*
X194846280Y-91064040D01*
X194685960Y-90903720D01*
X194559997Y-90715203D01*
X194473232Y-90505734D01*
X194429000Y-90283364D01*
X194429000Y-90056636D01*
X194473232Y-89834266D01*
X194559997Y-89624797D01*
X194685960Y-89436280D01*
X194846280Y-89275960D01*
X195034797Y-89149997D01*
X195244266Y-89063232D01*
X195355451Y-89041116D01*
X195466635Y-89019000D01*
X195693365Y-89019000D01*
X195804549Y-89041116D01*
G37*
G36*
X176754549Y-89041116D02*
G01*
X176865734Y-89063232D01*
X177075203Y-89149997D01*
X177263720Y-89275960D01*
X177424040Y-89436280D01*
X177550003Y-89624797D01*
X177636768Y-89834266D01*
X177681000Y-90056636D01*
X177681000Y-90283364D01*
X177636768Y-90505734D01*
X177550003Y-90715203D01*
X177424040Y-90903720D01*
X177263720Y-91064040D01*
X177075203Y-91190003D01*
X176865734Y-91276768D01*
X176754549Y-91298884D01*
X176643365Y-91321000D01*
X176416635Y-91321000D01*
X176305451Y-91298884D01*
X176194266Y-91276768D01*
X175984797Y-91190003D01*
X175796280Y-91064040D01*
X175635960Y-90903720D01*
X175509997Y-90715203D01*
X175423232Y-90505734D01*
X175379000Y-90283364D01*
X175379000Y-90056636D01*
X175423232Y-89834266D01*
X175509997Y-89624797D01*
X175635960Y-89436280D01*
X175796280Y-89275960D01*
X175984797Y-89149997D01*
X176194266Y-89063232D01*
X176305451Y-89041116D01*
X176416635Y-89019000D01*
X176643365Y-89019000D01*
X176754549Y-89041116D01*
G37*
G36*
X109444549Y-89041116D02*
G01*
X109555734Y-89063232D01*
X109765203Y-89149997D01*
X109953720Y-89275960D01*
X110114040Y-89436280D01*
X110240003Y-89624797D01*
X110326768Y-89834266D01*
X110371000Y-90056636D01*
X110371000Y-90283364D01*
X110326768Y-90505734D01*
X110240003Y-90715203D01*
X110114040Y-90903720D01*
X109953720Y-91064040D01*
X109765203Y-91190003D01*
X109555734Y-91276768D01*
X109444549Y-91298884D01*
X109333365Y-91321000D01*
X109106635Y-91321000D01*
X108995451Y-91298884D01*
X108884266Y-91276768D01*
X108674797Y-91190003D01*
X108486280Y-91064040D01*
X108325960Y-90903720D01*
X108199997Y-90715203D01*
X108113232Y-90505734D01*
X108069000Y-90283364D01*
X108069000Y-90056636D01*
X108113232Y-89834266D01*
X108199997Y-89624797D01*
X108325960Y-89436280D01*
X108486280Y-89275960D01*
X108674797Y-89149997D01*
X108884266Y-89063232D01*
X108995451Y-89041116D01*
X109106635Y-89019000D01*
X109333365Y-89019000D01*
X109444549Y-89041116D01*
G37*
G36*
X128494549Y-89041116D02*
G01*
X128605734Y-89063232D01*
X128815203Y-89149997D01*
X129003720Y-89275960D01*
X129164040Y-89436280D01*
X129290003Y-89624797D01*
X129376768Y-89834266D01*
X129421000Y-90056636D01*
X129421000Y-90283364D01*
X129376768Y-90505734D01*
X129290003Y-90715203D01*
X129164040Y-90903720D01*
X129003720Y-91064040D01*
X128815203Y-91190003D01*
X128605734Y-91276768D01*
X128494549Y-91298884D01*
X128383365Y-91321000D01*
X128156635Y-91321000D01*
X128045451Y-91298884D01*
X127934266Y-91276768D01*
X127724797Y-91190003D01*
X127536280Y-91064040D01*
X127375960Y-90903720D01*
X127249997Y-90715203D01*
X127163232Y-90505734D01*
X127119000Y-90283364D01*
X127119000Y-90056636D01*
X127163232Y-89834266D01*
X127249997Y-89624797D01*
X127375960Y-89436280D01*
X127536280Y-89275960D01*
X127724797Y-89149997D01*
X127934266Y-89063232D01*
X128045451Y-89041116D01*
X128156635Y-89019000D01*
X128383365Y-89019000D01*
X128494549Y-89041116D01*
G37*
G36*
X134844549Y-86501116D02*
G01*
X134955734Y-86523232D01*
X135165203Y-86609997D01*
X135353720Y-86735960D01*
X135514040Y-86896280D01*
X135640003Y-87084797D01*
X135726768Y-87294266D01*
X135771000Y-87516636D01*
X135771000Y-87743364D01*
X135726768Y-87965734D01*
X135640003Y-88175203D01*
X135514040Y-88363720D01*
X135353720Y-88524040D01*
X135165203Y-88650003D01*
X134955734Y-88736768D01*
X134844549Y-88758884D01*
X134733365Y-88781000D01*
X134506635Y-88781000D01*
X134395451Y-88758884D01*
X134284266Y-88736768D01*
X134074797Y-88650003D01*
X133886280Y-88524040D01*
X133725960Y-88363720D01*
X133599997Y-88175203D01*
X133513232Y-87965734D01*
X133469000Y-87743364D01*
X133469000Y-87516636D01*
X133513232Y-87294266D01*
X133599997Y-87084797D01*
X133725960Y-86896280D01*
X133886280Y-86735960D01*
X134074797Y-86609997D01*
X134284266Y-86523232D01*
X134395451Y-86501116D01*
X134506635Y-86479000D01*
X134733365Y-86479000D01*
X134844549Y-86501116D01*
G37*
G36*
X221204549Y-86501116D02*
G01*
X221315734Y-86523232D01*
X221525203Y-86609997D01*
X221713720Y-86735960D01*
X221874040Y-86896280D01*
X222000003Y-87084797D01*
X222086768Y-87294266D01*
X222131000Y-87516636D01*
X222131000Y-87743364D01*
X222086768Y-87965734D01*
X222000003Y-88175203D01*
X221874040Y-88363720D01*
X221713720Y-88524040D01*
X221525203Y-88650003D01*
X221315734Y-88736768D01*
X221204549Y-88758884D01*
X221093365Y-88781000D01*
X220866635Y-88781000D01*
X220755451Y-88758884D01*
X220644266Y-88736768D01*
X220434797Y-88650003D01*
X220246280Y-88524040D01*
X220085960Y-88363720D01*
X219959997Y-88175203D01*
X219873232Y-87965734D01*
X219829000Y-87743364D01*
X219829000Y-87516636D01*
X219873232Y-87294266D01*
X219959997Y-87084797D01*
X220085960Y-86896280D01*
X220246280Y-86735960D01*
X220434797Y-86609997D01*
X220644266Y-86523232D01*
X220755451Y-86501116D01*
X220866635Y-86479000D01*
X221093365Y-86479000D01*
X221204549Y-86501116D01*
G37*
G36*
X202154549Y-86501116D02*
G01*
X202265734Y-86523232D01*
X202475203Y-86609997D01*
X202663720Y-86735960D01*
X202824040Y-86896280D01*
X202950003Y-87084797D01*
X203036768Y-87294266D01*
X203081000Y-87516636D01*
X203081000Y-87743364D01*
X203036768Y-87965734D01*
X202950003Y-88175203D01*
X202824040Y-88363720D01*
X202663720Y-88524040D01*
X202475203Y-88650003D01*
X202265734Y-88736768D01*
X202154549Y-88758884D01*
X202043365Y-88781000D01*
X201816635Y-88781000D01*
X201705451Y-88758884D01*
X201594266Y-88736768D01*
X201384797Y-88650003D01*
X201196280Y-88524040D01*
X201035960Y-88363720D01*
X200909997Y-88175203D01*
X200823232Y-87965734D01*
X200779000Y-87743364D01*
X200779000Y-87516636D01*
X200823232Y-87294266D01*
X200909997Y-87084797D01*
X201035960Y-86896280D01*
X201196280Y-86735960D01*
X201384797Y-86609997D01*
X201594266Y-86523232D01*
X201705451Y-86501116D01*
X201816635Y-86479000D01*
X202043365Y-86479000D01*
X202154549Y-86501116D01*
G37*
G36*
X183104549Y-86501116D02*
G01*
X183215734Y-86523232D01*
X183425203Y-86609997D01*
X183613720Y-86735960D01*
X183774040Y-86896280D01*
X183900003Y-87084797D01*
X183986768Y-87294266D01*
X184031000Y-87516636D01*
X184031000Y-87743364D01*
X183986768Y-87965734D01*
X183900003Y-88175203D01*
X183774040Y-88363720D01*
X183613720Y-88524040D01*
X183425203Y-88650003D01*
X183215734Y-88736768D01*
X183104549Y-88758884D01*
X182993365Y-88781000D01*
X182766635Y-88781000D01*
X182655451Y-88758884D01*
X182544266Y-88736768D01*
X182334797Y-88650003D01*
X182146280Y-88524040D01*
X181985960Y-88363720D01*
X181859997Y-88175203D01*
X181773232Y-87965734D01*
X181729000Y-87743364D01*
X181729000Y-87516636D01*
X181773232Y-87294266D01*
X181859997Y-87084797D01*
X181985960Y-86896280D01*
X182146280Y-86735960D01*
X182334797Y-86609997D01*
X182544266Y-86523232D01*
X182655451Y-86501116D01*
X182766635Y-86479000D01*
X182993365Y-86479000D01*
X183104549Y-86501116D01*
G37*
G36*
X96744549Y-86501116D02*
G01*
X96855734Y-86523232D01*
X97065203Y-86609997D01*
X97253720Y-86735960D01*
X97414040Y-86896280D01*
X97540003Y-87084797D01*
X97626768Y-87294266D01*
X97671000Y-87516636D01*
X97671000Y-87743364D01*
X97626768Y-87965734D01*
X97540003Y-88175203D01*
X97414040Y-88363720D01*
X97253720Y-88524040D01*
X97065203Y-88650003D01*
X96855734Y-88736768D01*
X96744549Y-88758884D01*
X96633365Y-88781000D01*
X96406635Y-88781000D01*
X96295451Y-88758884D01*
X96184266Y-88736768D01*
X95974797Y-88650003D01*
X95786280Y-88524040D01*
X95625960Y-88363720D01*
X95499997Y-88175203D01*
X95413232Y-87965734D01*
X95369000Y-87743364D01*
X95369000Y-87516636D01*
X95413232Y-87294266D01*
X95499997Y-87084797D01*
X95625960Y-86896280D01*
X95786280Y-86735960D01*
X95974797Y-86609997D01*
X96184266Y-86523232D01*
X96295451Y-86501116D01*
X96406635Y-86479000D01*
X96633365Y-86479000D01*
X96744549Y-86501116D01*
G37*
G36*
X115794549Y-86501116D02*
G01*
X115905734Y-86523232D01*
X116115203Y-86609997D01*
X116303720Y-86735960D01*
X116464040Y-86896280D01*
X116590003Y-87084797D01*
X116676768Y-87294266D01*
X116721000Y-87516636D01*
X116721000Y-87743364D01*
X116676768Y-87965734D01*
X116590003Y-88175203D01*
X116464040Y-88363720D01*
X116303720Y-88524040D01*
X116115203Y-88650003D01*
X115905734Y-88736768D01*
X115794549Y-88758884D01*
X115683365Y-88781000D01*
X115456635Y-88781000D01*
X115345451Y-88758884D01*
X115234266Y-88736768D01*
X115024797Y-88650003D01*
X114836280Y-88524040D01*
X114675960Y-88363720D01*
X114549997Y-88175203D01*
X114463232Y-87965734D01*
X114419000Y-87743364D01*
X114419000Y-87516636D01*
X114463232Y-87294266D01*
X114549997Y-87084797D01*
X114675960Y-86896280D01*
X114836280Y-86735960D01*
X115024797Y-86609997D01*
X115234266Y-86523232D01*
X115345451Y-86501116D01*
X115456635Y-86479000D01*
X115683365Y-86479000D01*
X115794549Y-86501116D01*
G37*
G36*
X199988254Y-71687818D02*
G01*
X200361511Y-71842426D01*
X200361513Y-71842427D01*
X200697436Y-72066884D01*
X200983116Y-72352564D01*
X201207574Y-72688489D01*
X201362182Y-73061746D01*
X201441000Y-73457993D01*
X201441000Y-73862007D01*
X201362182Y-74258254D01*
X201207574Y-74631511D01*
X201207573Y-74631513D01*
X200983116Y-74967436D01*
X200697436Y-75253116D01*
X200361513Y-75477573D01*
X200361512Y-75477574D01*
X200361511Y-75477574D01*
X199988254Y-75632182D01*
X199592007Y-75711000D01*
X199187993Y-75711000D01*
X198791746Y-75632182D01*
X198418489Y-75477574D01*
X198418488Y-75477574D01*
X198418487Y-75477573D01*
X198082564Y-75253116D01*
X197796884Y-74967436D01*
X197572427Y-74631513D01*
X197572426Y-74631511D01*
X197417818Y-74258254D01*
X197339000Y-73862007D01*
X197339000Y-73457993D01*
X197417818Y-73061746D01*
X197572426Y-72688489D01*
X197796884Y-72352564D01*
X198082564Y-72066884D01*
X198418487Y-71842427D01*
X198418489Y-71842426D01*
X198791746Y-71687818D01*
X199187993Y-71609000D01*
X199592007Y-71609000D01*
X199988254Y-71687818D01*
G37*
G36*
X180938254Y-71687818D02*
G01*
X181311511Y-71842426D01*
X181311513Y-71842427D01*
X181647436Y-72066884D01*
X181933116Y-72352564D01*
X182157574Y-72688489D01*
X182312182Y-73061746D01*
X182391000Y-73457993D01*
X182391000Y-73862007D01*
X182312182Y-74258254D01*
X182157574Y-74631511D01*
X182157573Y-74631513D01*
X181933116Y-74967436D01*
X181647436Y-75253116D01*
X181311513Y-75477573D01*
X181311512Y-75477574D01*
X181311511Y-75477574D01*
X180938254Y-75632182D01*
X180542007Y-75711000D01*
X180137993Y-75711000D01*
X179741746Y-75632182D01*
X179368489Y-75477574D01*
X179368488Y-75477574D01*
X179368487Y-75477573D01*
X179032564Y-75253116D01*
X178746884Y-74967436D01*
X178522427Y-74631513D01*
X178522426Y-74631511D01*
X178367818Y-74258254D01*
X178289000Y-73862007D01*
X178289000Y-73457993D01*
X178367818Y-73061746D01*
X178522426Y-72688489D01*
X178746884Y-72352564D01*
X179032564Y-72066884D01*
X179368487Y-71842427D01*
X179368489Y-71842426D01*
X179741746Y-71687818D01*
X180137993Y-71609000D01*
X180542007Y-71609000D01*
X180938254Y-71687818D01*
G37*
G36*
X94578254Y-71687818D02*
G01*
X94951511Y-71842426D01*
X94951513Y-71842427D01*
X95287436Y-72066884D01*
X95573116Y-72352564D01*
X95797574Y-72688489D01*
X95952182Y-73061746D01*
X96031000Y-73457993D01*
X96031000Y-73862007D01*
X95952182Y-74258254D01*
X95797574Y-74631511D01*
X95797573Y-74631513D01*
X95573116Y-74967436D01*
X95287436Y-75253116D01*
X94951513Y-75477573D01*
X94951512Y-75477574D01*
X94951511Y-75477574D01*
X94578254Y-75632182D01*
X94182007Y-75711000D01*
X93777993Y-75711000D01*
X93381746Y-75632182D01*
X93008489Y-75477574D01*
X93008488Y-75477574D01*
X93008487Y-75477573D01*
X92672564Y-75253116D01*
X92386884Y-74967436D01*
X92162427Y-74631513D01*
X92162426Y-74631511D01*
X92007818Y-74258254D01*
X91929000Y-73862007D01*
X91929000Y-73457993D01*
X92007818Y-73061746D01*
X92162426Y-72688489D01*
X92386884Y-72352564D01*
X92672564Y-72066884D01*
X93008487Y-71842427D01*
X93008489Y-71842426D01*
X93381746Y-71687818D01*
X93777993Y-71609000D01*
X94182007Y-71609000D01*
X94578254Y-71687818D01*
G37*
G36*
X219038254Y-71687818D02*
G01*
X219411511Y-71842426D01*
X219411513Y-71842427D01*
X219747436Y-72066884D01*
X220033116Y-72352564D01*
X220257574Y-72688489D01*
X220412182Y-73061746D01*
X220491000Y-73457993D01*
X220491000Y-73862007D01*
X220412182Y-74258254D01*
X220257574Y-74631511D01*
X220257573Y-74631513D01*
X220033116Y-74967436D01*
X219747436Y-75253116D01*
X219411513Y-75477573D01*
X219411512Y-75477574D01*
X219411511Y-75477574D01*
X219038254Y-75632182D01*
X218642007Y-75711000D01*
X218237993Y-75711000D01*
X217841746Y-75632182D01*
X217468489Y-75477574D01*
X217468488Y-75477574D01*
X217468487Y-75477573D01*
X217132564Y-75253116D01*
X216846884Y-74967436D01*
X216622427Y-74631513D01*
X216622426Y-74631511D01*
X216467818Y-74258254D01*
X216389000Y-73862007D01*
X216389000Y-73457993D01*
X216467818Y-73061746D01*
X216622426Y-72688489D01*
X216846884Y-72352564D01*
X217132564Y-72066884D01*
X217468487Y-71842427D01*
X217468489Y-71842426D01*
X217841746Y-71687818D01*
X218237993Y-71609000D01*
X218642007Y-71609000D01*
X219038254Y-71687818D01*
G37*
G36*
X113628254Y-71687818D02*
G01*
X114001511Y-71842426D01*
X114001513Y-71842427D01*
X114337436Y-72066884D01*
X114623116Y-72352564D01*
X114847574Y-72688489D01*
X115002182Y-73061746D01*
X115081000Y-73457993D01*
X115081000Y-73862007D01*
X115002182Y-74258254D01*
X114847574Y-74631511D01*
X114847573Y-74631513D01*
X114623116Y-74967436D01*
X114337436Y-75253116D01*
X114001513Y-75477573D01*
X114001512Y-75477574D01*
X114001511Y-75477574D01*
X113628254Y-75632182D01*
X113232007Y-75711000D01*
X112827993Y-75711000D01*
X112431746Y-75632182D01*
X112058489Y-75477574D01*
X112058488Y-75477574D01*
X112058487Y-75477573D01*
X111722564Y-75253116D01*
X111436884Y-74967436D01*
X111212427Y-74631513D01*
X111212426Y-74631511D01*
X111057818Y-74258254D01*
X110979000Y-73862007D01*
X110979000Y-73457993D01*
X111057818Y-73061746D01*
X111212426Y-72688489D01*
X111436884Y-72352564D01*
X111722564Y-72066884D01*
X112058487Y-71842427D01*
X112058489Y-71842426D01*
X112431746Y-71687818D01*
X112827993Y-71609000D01*
X113232007Y-71609000D01*
X113628254Y-71687818D01*
G37*
G36*
X132678254Y-71687818D02*
G01*
X133051511Y-71842426D01*
X133051513Y-71842427D01*
X133387436Y-72066884D01*
X133673116Y-72352564D01*
X133897574Y-72688489D01*
X134052182Y-73061746D01*
X134131000Y-73457993D01*
X134131000Y-73862007D01*
X134052182Y-74258254D01*
X133897574Y-74631511D01*
X133897573Y-74631513D01*
X133673116Y-74967436D01*
X133387436Y-75253116D01*
X133051513Y-75477573D01*
X133051512Y-75477574D01*
X133051511Y-75477574D01*
X132678254Y-75632182D01*
X132282007Y-75711000D01*
X131877993Y-75711000D01*
X131481746Y-75632182D01*
X131108489Y-75477574D01*
X131108488Y-75477574D01*
X131108487Y-75477573D01*
X130772564Y-75253116D01*
X130486884Y-74967436D01*
X130262427Y-74631513D01*
X130262426Y-74631511D01*
X130107818Y-74258254D01*
X130029000Y-73862007D01*
X130029000Y-73457993D01*
X130107818Y-73061746D01*
X130262426Y-72688489D01*
X130486884Y-72352564D01*
X130772564Y-72066884D01*
X131108487Y-71842427D01*
X131108489Y-71842426D01*
X131481746Y-71687818D01*
X131877993Y-71609000D01*
X132282007Y-71609000D01*
X132678254Y-71687818D01*
G37*
G36*
X127113512Y-72763927D02*
G01*
X127262812Y-72793624D01*
X127426784Y-72861544D01*
X127574354Y-72960147D01*
X127699853Y-73085646D01*
X127798456Y-73233216D01*
X127866376Y-73397188D01*
X127901000Y-73571259D01*
X127901000Y-73748741D01*
X127866376Y-73922812D01*
X127798456Y-74086784D01*
X127699853Y-74234354D01*
X127574354Y-74359853D01*
X127426784Y-74458456D01*
X127262812Y-74526376D01*
X127113512Y-74556073D01*
X127088742Y-74561000D01*
X126911258Y-74561000D01*
X126886488Y-74556073D01*
X126737188Y-74526376D01*
X126573216Y-74458456D01*
X126425646Y-74359853D01*
X126300147Y-74234354D01*
X126201544Y-74086784D01*
X126133624Y-73922812D01*
X126099000Y-73748741D01*
X126099000Y-73571259D01*
X126133624Y-73397188D01*
X126201544Y-73233216D01*
X126300147Y-73085646D01*
X126425646Y-72960147D01*
X126573216Y-72861544D01*
X126737188Y-72793624D01*
X126886488Y-72763927D01*
X126911258Y-72759000D01*
X127088742Y-72759000D01*
X127113512Y-72763927D01*
G37*
G36*
X223633512Y-72763927D02*
G01*
X223782812Y-72793624D01*
X223946784Y-72861544D01*
X224094354Y-72960147D01*
X224219853Y-73085646D01*
X224318456Y-73233216D01*
X224386376Y-73397188D01*
X224421000Y-73571259D01*
X224421000Y-73748741D01*
X224386376Y-73922812D01*
X224318456Y-74086784D01*
X224219853Y-74234354D01*
X224094354Y-74359853D01*
X223946784Y-74458456D01*
X223782812Y-74526376D01*
X223633512Y-74556073D01*
X223608742Y-74561000D01*
X223431258Y-74561000D01*
X223406488Y-74556073D01*
X223257188Y-74526376D01*
X223093216Y-74458456D01*
X222945646Y-74359853D01*
X222820147Y-74234354D01*
X222721544Y-74086784D01*
X222653624Y-73922812D01*
X222619000Y-73748741D01*
X222619000Y-73571259D01*
X222653624Y-73397188D01*
X222721544Y-73233216D01*
X222820147Y-73085646D01*
X222945646Y-72960147D01*
X223093216Y-72861544D01*
X223257188Y-72793624D01*
X223406488Y-72763927D01*
X223431258Y-72759000D01*
X223608742Y-72759000D01*
X223633512Y-72763927D01*
G37*
G36*
X137273512Y-72763927D02*
G01*
X137422812Y-72793624D01*
X137586784Y-72861544D01*
X137734354Y-72960147D01*
X137859853Y-73085646D01*
X137958456Y-73233216D01*
X138026376Y-73397188D01*
X138061000Y-73571259D01*
X138061000Y-73748741D01*
X138026376Y-73922812D01*
X137958456Y-74086784D01*
X137859853Y-74234354D01*
X137734354Y-74359853D01*
X137586784Y-74458456D01*
X137422812Y-74526376D01*
X137273512Y-74556073D01*
X137248742Y-74561000D01*
X137071258Y-74561000D01*
X137046488Y-74556073D01*
X136897188Y-74526376D01*
X136733216Y-74458456D01*
X136585646Y-74359853D01*
X136460147Y-74234354D01*
X136361544Y-74086784D01*
X136293624Y-73922812D01*
X136259000Y-73748741D01*
X136259000Y-73571259D01*
X136293624Y-73397188D01*
X136361544Y-73233216D01*
X136460147Y-73085646D01*
X136585646Y-72960147D01*
X136733216Y-72861544D01*
X136897188Y-72793624D01*
X137046488Y-72763927D01*
X137071258Y-72759000D01*
X137248742Y-72759000D01*
X137273512Y-72763927D01*
G37*
G36*
X118223512Y-72763927D02*
G01*
X118372812Y-72793624D01*
X118536784Y-72861544D01*
X118684354Y-72960147D01*
X118809853Y-73085646D01*
X118908456Y-73233216D01*
X118976376Y-73397188D01*
X119011000Y-73571259D01*
X119011000Y-73748741D01*
X118976376Y-73922812D01*
X118908456Y-74086784D01*
X118809853Y-74234354D01*
X118684354Y-74359853D01*
X118536784Y-74458456D01*
X118372812Y-74526376D01*
X118223512Y-74556073D01*
X118198742Y-74561000D01*
X118021258Y-74561000D01*
X117996488Y-74556073D01*
X117847188Y-74526376D01*
X117683216Y-74458456D01*
X117535646Y-74359853D01*
X117410147Y-74234354D01*
X117311544Y-74086784D01*
X117243624Y-73922812D01*
X117209000Y-73748741D01*
X117209000Y-73571259D01*
X117243624Y-73397188D01*
X117311544Y-73233216D01*
X117410147Y-73085646D01*
X117535646Y-72960147D01*
X117683216Y-72861544D01*
X117847188Y-72793624D01*
X117996488Y-72763927D01*
X118021258Y-72759000D01*
X118198742Y-72759000D01*
X118223512Y-72763927D01*
G37*
G36*
X204583512Y-72763927D02*
G01*
X204732812Y-72793624D01*
X204896784Y-72861544D01*
X205044354Y-72960147D01*
X205169853Y-73085646D01*
X205268456Y-73233216D01*
X205336376Y-73397188D01*
X205371000Y-73571259D01*
X205371000Y-73748741D01*
X205336376Y-73922812D01*
X205268456Y-74086784D01*
X205169853Y-74234354D01*
X205044354Y-74359853D01*
X204896784Y-74458456D01*
X204732812Y-74526376D01*
X204583512Y-74556073D01*
X204558742Y-74561000D01*
X204381258Y-74561000D01*
X204356488Y-74556073D01*
X204207188Y-74526376D01*
X204043216Y-74458456D01*
X203895646Y-74359853D01*
X203770147Y-74234354D01*
X203671544Y-74086784D01*
X203603624Y-73922812D01*
X203569000Y-73748741D01*
X203569000Y-73571259D01*
X203603624Y-73397188D01*
X203671544Y-73233216D01*
X203770147Y-73085646D01*
X203895646Y-72960147D01*
X204043216Y-72861544D01*
X204207188Y-72793624D01*
X204356488Y-72763927D01*
X204381258Y-72759000D01*
X204558742Y-72759000D01*
X204583512Y-72763927D01*
G37*
G36*
X194423512Y-72763927D02*
G01*
X194572812Y-72793624D01*
X194736784Y-72861544D01*
X194884354Y-72960147D01*
X195009853Y-73085646D01*
X195108456Y-73233216D01*
X195176376Y-73397188D01*
X195211000Y-73571259D01*
X195211000Y-73748741D01*
X195176376Y-73922812D01*
X195108456Y-74086784D01*
X195009853Y-74234354D01*
X194884354Y-74359853D01*
X194736784Y-74458456D01*
X194572812Y-74526376D01*
X194423512Y-74556073D01*
X194398742Y-74561000D01*
X194221258Y-74561000D01*
X194196488Y-74556073D01*
X194047188Y-74526376D01*
X193883216Y-74458456D01*
X193735646Y-74359853D01*
X193610147Y-74234354D01*
X193511544Y-74086784D01*
X193443624Y-73922812D01*
X193409000Y-73748741D01*
X193409000Y-73571259D01*
X193443624Y-73397188D01*
X193511544Y-73233216D01*
X193610147Y-73085646D01*
X193735646Y-72960147D01*
X193883216Y-72861544D01*
X194047188Y-72793624D01*
X194196488Y-72763927D01*
X194221258Y-72759000D01*
X194398742Y-72759000D01*
X194423512Y-72763927D01*
G37*
G36*
X185533512Y-72763927D02*
G01*
X185682812Y-72793624D01*
X185846784Y-72861544D01*
X185994354Y-72960147D01*
X186119853Y-73085646D01*
X186218456Y-73233216D01*
X186286376Y-73397188D01*
X186321000Y-73571259D01*
X186321000Y-73748741D01*
X186286376Y-73922812D01*
X186218456Y-74086784D01*
X186119853Y-74234354D01*
X185994354Y-74359853D01*
X185846784Y-74458456D01*
X185682812Y-74526376D01*
X185533512Y-74556073D01*
X185508742Y-74561000D01*
X185331258Y-74561000D01*
X185306488Y-74556073D01*
X185157188Y-74526376D01*
X184993216Y-74458456D01*
X184845646Y-74359853D01*
X184720147Y-74234354D01*
X184621544Y-74086784D01*
X184553624Y-73922812D01*
X184519000Y-73748741D01*
X184519000Y-73571259D01*
X184553624Y-73397188D01*
X184621544Y-73233216D01*
X184720147Y-73085646D01*
X184845646Y-72960147D01*
X184993216Y-72861544D01*
X185157188Y-72793624D01*
X185306488Y-72763927D01*
X185331258Y-72759000D01*
X185508742Y-72759000D01*
X185533512Y-72763927D01*
G37*
G36*
X99173512Y-72763927D02*
G01*
X99322812Y-72793624D01*
X99486784Y-72861544D01*
X99634354Y-72960147D01*
X99759853Y-73085646D01*
X99858456Y-73233216D01*
X99926376Y-73397188D01*
X99961000Y-73571259D01*
X99961000Y-73748741D01*
X99926376Y-73922812D01*
X99858456Y-74086784D01*
X99759853Y-74234354D01*
X99634354Y-74359853D01*
X99486784Y-74458456D01*
X99322812Y-74526376D01*
X99173512Y-74556073D01*
X99148742Y-74561000D01*
X98971258Y-74561000D01*
X98946488Y-74556073D01*
X98797188Y-74526376D01*
X98633216Y-74458456D01*
X98485646Y-74359853D01*
X98360147Y-74234354D01*
X98261544Y-74086784D01*
X98193624Y-73922812D01*
X98159000Y-73748741D01*
X98159000Y-73571259D01*
X98193624Y-73397188D01*
X98261544Y-73233216D01*
X98360147Y-73085646D01*
X98485646Y-72960147D01*
X98633216Y-72861544D01*
X98797188Y-72793624D01*
X98946488Y-72763927D01*
X98971258Y-72759000D01*
X99148742Y-72759000D01*
X99173512Y-72763927D01*
G37*
G36*
X89013512Y-72763927D02*
G01*
X89162812Y-72793624D01*
X89326784Y-72861544D01*
X89474354Y-72960147D01*
X89599853Y-73085646D01*
X89698456Y-73233216D01*
X89766376Y-73397188D01*
X89801000Y-73571259D01*
X89801000Y-73748741D01*
X89766376Y-73922812D01*
X89698456Y-74086784D01*
X89599853Y-74234354D01*
X89474354Y-74359853D01*
X89326784Y-74458456D01*
X89162812Y-74526376D01*
X89013512Y-74556073D01*
X88988742Y-74561000D01*
X88811258Y-74561000D01*
X88786488Y-74556073D01*
X88637188Y-74526376D01*
X88473216Y-74458456D01*
X88325646Y-74359853D01*
X88200147Y-74234354D01*
X88101544Y-74086784D01*
X88033624Y-73922812D01*
X87999000Y-73748741D01*
X87999000Y-73571259D01*
X88033624Y-73397188D01*
X88101544Y-73233216D01*
X88200147Y-73085646D01*
X88325646Y-72960147D01*
X88473216Y-72861544D01*
X88637188Y-72793624D01*
X88786488Y-72763927D01*
X88811258Y-72759000D01*
X88988742Y-72759000D01*
X89013512Y-72763927D01*
G37*
G36*
X213473512Y-72763927D02*
G01*
X213622812Y-72793624D01*
X213786784Y-72861544D01*
X213934354Y-72960147D01*
X214059853Y-73085646D01*
X214158456Y-73233216D01*
X214226376Y-73397188D01*
X214261000Y-73571259D01*
X214261000Y-73748741D01*
X214226376Y-73922812D01*
X214158456Y-74086784D01*
X214059853Y-74234354D01*
X213934354Y-74359853D01*
X213786784Y-74458456D01*
X213622812Y-74526376D01*
X213473512Y-74556073D01*
X213448742Y-74561000D01*
X213271258Y-74561000D01*
X213246488Y-74556073D01*
X213097188Y-74526376D01*
X212933216Y-74458456D01*
X212785646Y-74359853D01*
X212660147Y-74234354D01*
X212561544Y-74086784D01*
X212493624Y-73922812D01*
X212459000Y-73748741D01*
X212459000Y-73571259D01*
X212493624Y-73397188D01*
X212561544Y-73233216D01*
X212660147Y-73085646D01*
X212785646Y-72960147D01*
X212933216Y-72861544D01*
X213097188Y-72793624D01*
X213246488Y-72763927D01*
X213271258Y-72759000D01*
X213448742Y-72759000D01*
X213473512Y-72763927D01*
G37*
G36*
X108063512Y-72763927D02*
G01*
X108212812Y-72793624D01*
X108376784Y-72861544D01*
X108524354Y-72960147D01*
X108649853Y-73085646D01*
X108748456Y-73233216D01*
X108816376Y-73397188D01*
X108851000Y-73571259D01*
X108851000Y-73748741D01*
X108816376Y-73922812D01*
X108748456Y-74086784D01*
X108649853Y-74234354D01*
X108524354Y-74359853D01*
X108376784Y-74458456D01*
X108212812Y-74526376D01*
X108063512Y-74556073D01*
X108038742Y-74561000D01*
X107861258Y-74561000D01*
X107836488Y-74556073D01*
X107687188Y-74526376D01*
X107523216Y-74458456D01*
X107375646Y-74359853D01*
X107250147Y-74234354D01*
X107151544Y-74086784D01*
X107083624Y-73922812D01*
X107049000Y-73748741D01*
X107049000Y-73571259D01*
X107083624Y-73397188D01*
X107151544Y-73233216D01*
X107250147Y-73085646D01*
X107375646Y-72960147D01*
X107523216Y-72861544D01*
X107687188Y-72793624D01*
X107836488Y-72763927D01*
X107861258Y-72759000D01*
X108038742Y-72759000D01*
X108063512Y-72763927D01*
G37*
G36*
X175373512Y-72763927D02*
G01*
X175522812Y-72793624D01*
X175686784Y-72861544D01*
X175834354Y-72960147D01*
X175959853Y-73085646D01*
X176058456Y-73233216D01*
X176126376Y-73397188D01*
X176161000Y-73571259D01*
X176161000Y-73748741D01*
X176126376Y-73922812D01*
X176058456Y-74086784D01*
X175959853Y-74234354D01*
X175834354Y-74359853D01*
X175686784Y-74458456D01*
X175522812Y-74526376D01*
X175373512Y-74556073D01*
X175348742Y-74561000D01*
X175171258Y-74561000D01*
X175146488Y-74556073D01*
X174997188Y-74526376D01*
X174833216Y-74458456D01*
X174685646Y-74359853D01*
X174560147Y-74234354D01*
X174461544Y-74086784D01*
X174393624Y-73922812D01*
X174359000Y-73748741D01*
X174359000Y-73571259D01*
X174393624Y-73397188D01*
X174461544Y-73233216D01*
X174560147Y-73085646D01*
X174685646Y-72960147D01*
X174833216Y-72861544D01*
X174997188Y-72793624D01*
X175146488Y-72763927D01*
X175171258Y-72759000D01*
X175348742Y-72759000D01*
X175373512Y-72763927D01*
G37*
G36*
X176754549Y-69991116D02*
G01*
X176865734Y-70013232D01*
X177075203Y-70099997D01*
X177263720Y-70225960D01*
X177424040Y-70386280D01*
X177550003Y-70574797D01*
X177636768Y-70784266D01*
X177681000Y-71006636D01*
X177681000Y-71233364D01*
X177636768Y-71455734D01*
X177550003Y-71665203D01*
X177424040Y-71853720D01*
X177263720Y-72014040D01*
X177075203Y-72140003D01*
X176865734Y-72226768D01*
X176754549Y-72248884D01*
X176643365Y-72271000D01*
X176416635Y-72271000D01*
X176305451Y-72248884D01*
X176194266Y-72226768D01*
X175984797Y-72140003D01*
X175796280Y-72014040D01*
X175635960Y-71853720D01*
X175509997Y-71665203D01*
X175423232Y-71455734D01*
X175379000Y-71233364D01*
X175379000Y-71006636D01*
X175423232Y-70784266D01*
X175509997Y-70574797D01*
X175635960Y-70386280D01*
X175796280Y-70225960D01*
X175984797Y-70099997D01*
X176194266Y-70013232D01*
X176305451Y-69991116D01*
X176416635Y-69969000D01*
X176643365Y-69969000D01*
X176754549Y-69991116D01*
G37*
G36*
X214854549Y-69991116D02*
G01*
X214965734Y-70013232D01*
X215175203Y-70099997D01*
X215363720Y-70225960D01*
X215524040Y-70386280D01*
X215650003Y-70574797D01*
X215736768Y-70784266D01*
X215781000Y-71006636D01*
X215781000Y-71233364D01*
X215736768Y-71455734D01*
X215650003Y-71665203D01*
X215524040Y-71853720D01*
X215363720Y-72014040D01*
X215175203Y-72140003D01*
X214965734Y-72226768D01*
X214854549Y-72248884D01*
X214743365Y-72271000D01*
X214516635Y-72271000D01*
X214405451Y-72248884D01*
X214294266Y-72226768D01*
X214084797Y-72140003D01*
X213896280Y-72014040D01*
X213735960Y-71853720D01*
X213609997Y-71665203D01*
X213523232Y-71455734D01*
X213479000Y-71233364D01*
X213479000Y-71006636D01*
X213523232Y-70784266D01*
X213609997Y-70574797D01*
X213735960Y-70386280D01*
X213896280Y-70225960D01*
X214084797Y-70099997D01*
X214294266Y-70013232D01*
X214405451Y-69991116D01*
X214516635Y-69969000D01*
X214743365Y-69969000D01*
X214854549Y-69991116D01*
G37*
G36*
X90394549Y-69991116D02*
G01*
X90505734Y-70013232D01*
X90715203Y-70099997D01*
X90903720Y-70225960D01*
X91064040Y-70386280D01*
X91190003Y-70574797D01*
X91276768Y-70784266D01*
X91321000Y-71006636D01*
X91321000Y-71233364D01*
X91276768Y-71455734D01*
X91190003Y-71665203D01*
X91064040Y-71853720D01*
X90903720Y-72014040D01*
X90715203Y-72140003D01*
X90505734Y-72226768D01*
X90394549Y-72248884D01*
X90283365Y-72271000D01*
X90056635Y-72271000D01*
X89945451Y-72248884D01*
X89834266Y-72226768D01*
X89624797Y-72140003D01*
X89436280Y-72014040D01*
X89275960Y-71853720D01*
X89149997Y-71665203D01*
X89063232Y-71455734D01*
X89019000Y-71233364D01*
X89019000Y-71006636D01*
X89063232Y-70784266D01*
X89149997Y-70574797D01*
X89275960Y-70386280D01*
X89436280Y-70225960D01*
X89624797Y-70099997D01*
X89834266Y-70013232D01*
X89945451Y-69991116D01*
X90056635Y-69969000D01*
X90283365Y-69969000D01*
X90394549Y-69991116D01*
G37*
G36*
X195804549Y-69991116D02*
G01*
X195915734Y-70013232D01*
X196125203Y-70099997D01*
X196313720Y-70225960D01*
X196474040Y-70386280D01*
X196600003Y-70574797D01*
X196686768Y-70784266D01*
X196731000Y-71006636D01*
X196731000Y-71233364D01*
X196686768Y-71455734D01*
X196600003Y-71665203D01*
X196474040Y-71853720D01*
X196313720Y-72014040D01*
X196125203Y-72140003D01*
X195915734Y-72226768D01*
X195804549Y-72248884D01*
X195693365Y-72271000D01*
X195466635Y-72271000D01*
X195355451Y-72248884D01*
X195244266Y-72226768D01*
X195034797Y-72140003D01*
X194846280Y-72014040D01*
X194685960Y-71853720D01*
X194559997Y-71665203D01*
X194473232Y-71455734D01*
X194429000Y-71233364D01*
X194429000Y-71006636D01*
X194473232Y-70784266D01*
X194559997Y-70574797D01*
X194685960Y-70386280D01*
X194846280Y-70225960D01*
X195034797Y-70099997D01*
X195244266Y-70013232D01*
X195355451Y-69991116D01*
X195466635Y-69969000D01*
X195693365Y-69969000D01*
X195804549Y-69991116D01*
G37*
G36*
X109444549Y-69991116D02*
G01*
X109555734Y-70013232D01*
X109765203Y-70099997D01*
X109953720Y-70225960D01*
X110114040Y-70386280D01*
X110240003Y-70574797D01*
X110326768Y-70784266D01*
X110371000Y-71006636D01*
X110371000Y-71233364D01*
X110326768Y-71455734D01*
X110240003Y-71665203D01*
X110114040Y-71853720D01*
X109953720Y-72014040D01*
X109765203Y-72140003D01*
X109555734Y-72226768D01*
X109444549Y-72248884D01*
X109333365Y-72271000D01*
X109106635Y-72271000D01*
X108995451Y-72248884D01*
X108884266Y-72226768D01*
X108674797Y-72140003D01*
X108486280Y-72014040D01*
X108325960Y-71853720D01*
X108199997Y-71665203D01*
X108113232Y-71455734D01*
X108069000Y-71233364D01*
X108069000Y-71006636D01*
X108113232Y-70784266D01*
X108199997Y-70574797D01*
X108325960Y-70386280D01*
X108486280Y-70225960D01*
X108674797Y-70099997D01*
X108884266Y-70013232D01*
X108995451Y-69991116D01*
X109106635Y-69969000D01*
X109333365Y-69969000D01*
X109444549Y-69991116D01*
G37*
G36*
X128494549Y-69991116D02*
G01*
X128605734Y-70013232D01*
X128815203Y-70099997D01*
X129003720Y-70225960D01*
X129164040Y-70386280D01*
X129290003Y-70574797D01*
X129376768Y-70784266D01*
X129421000Y-71006636D01*
X129421000Y-71233364D01*
X129376768Y-71455734D01*
X129290003Y-71665203D01*
X129164040Y-71853720D01*
X129003720Y-72014040D01*
X128815203Y-72140003D01*
X128605734Y-72226768D01*
X128494549Y-72248884D01*
X128383365Y-72271000D01*
X128156635Y-72271000D01*
X128045451Y-72248884D01*
X127934266Y-72226768D01*
X127724797Y-72140003D01*
X127536280Y-72014040D01*
X127375960Y-71853720D01*
X127249997Y-71665203D01*
X127163232Y-71455734D01*
X127119000Y-71233364D01*
X127119000Y-71006636D01*
X127163232Y-70784266D01*
X127249997Y-70574797D01*
X127375960Y-70386280D01*
X127536280Y-70225960D01*
X127724797Y-70099997D01*
X127934266Y-70013232D01*
X128045451Y-69991116D01*
X128156635Y-69969000D01*
X128383365Y-69969000D01*
X128494549Y-69991116D01*
G37*
G36*
X134844549Y-67451116D02*
G01*
X134955734Y-67473232D01*
X135165203Y-67559997D01*
X135353720Y-67685960D01*
X135514040Y-67846280D01*
X135640003Y-68034797D01*
X135726768Y-68244266D01*
X135771000Y-68466636D01*
X135771000Y-68693364D01*
X135726768Y-68915734D01*
X135640003Y-69125203D01*
X135514040Y-69313720D01*
X135353720Y-69474040D01*
X135165203Y-69600003D01*
X134955734Y-69686768D01*
X134844549Y-69708884D01*
X134733365Y-69731000D01*
X134506635Y-69731000D01*
X134395451Y-69708884D01*
X134284266Y-69686768D01*
X134074797Y-69600003D01*
X133886280Y-69474040D01*
X133725960Y-69313720D01*
X133599997Y-69125203D01*
X133513232Y-68915734D01*
X133469000Y-68693364D01*
X133469000Y-68466636D01*
X133513232Y-68244266D01*
X133599997Y-68034797D01*
X133725960Y-67846280D01*
X133886280Y-67685960D01*
X134074797Y-67559997D01*
X134284266Y-67473232D01*
X134395451Y-67451116D01*
X134506635Y-67429000D01*
X134733365Y-67429000D01*
X134844549Y-67451116D01*
G37*
G36*
X221204549Y-67451116D02*
G01*
X221315734Y-67473232D01*
X221525203Y-67559997D01*
X221713720Y-67685960D01*
X221874040Y-67846280D01*
X222000003Y-68034797D01*
X222086768Y-68244266D01*
X222131000Y-68466636D01*
X222131000Y-68693364D01*
X222086768Y-68915734D01*
X222000003Y-69125203D01*
X221874040Y-69313720D01*
X221713720Y-69474040D01*
X221525203Y-69600003D01*
X221315734Y-69686768D01*
X221204549Y-69708884D01*
X221093365Y-69731000D01*
X220866635Y-69731000D01*
X220755451Y-69708884D01*
X220644266Y-69686768D01*
X220434797Y-69600003D01*
X220246280Y-69474040D01*
X220085960Y-69313720D01*
X219959997Y-69125203D01*
X219873232Y-68915734D01*
X219829000Y-68693364D01*
X219829000Y-68466636D01*
X219873232Y-68244266D01*
X219959997Y-68034797D01*
X220085960Y-67846280D01*
X220246280Y-67685960D01*
X220434797Y-67559997D01*
X220644266Y-67473232D01*
X220755451Y-67451116D01*
X220866635Y-67429000D01*
X221093365Y-67429000D01*
X221204549Y-67451116D01*
G37*
G36*
X115794549Y-67451116D02*
G01*
X115905734Y-67473232D01*
X116115203Y-67559997D01*
X116303720Y-67685960D01*
X116464040Y-67846280D01*
X116590003Y-68034797D01*
X116676768Y-68244266D01*
X116721000Y-68466636D01*
X116721000Y-68693364D01*
X116676768Y-68915734D01*
X116590003Y-69125203D01*
X116464040Y-69313720D01*
X116303720Y-69474040D01*
X116115203Y-69600003D01*
X115905734Y-69686768D01*
X115794549Y-69708884D01*
X115683365Y-69731000D01*
X115456635Y-69731000D01*
X115345451Y-69708884D01*
X115234266Y-69686768D01*
X115024797Y-69600003D01*
X114836280Y-69474040D01*
X114675960Y-69313720D01*
X114549997Y-69125203D01*
X114463232Y-68915734D01*
X114419000Y-68693364D01*
X114419000Y-68466636D01*
X114463232Y-68244266D01*
X114549997Y-68034797D01*
X114675960Y-67846280D01*
X114836280Y-67685960D01*
X115024797Y-67559997D01*
X115234266Y-67473232D01*
X115345451Y-67451116D01*
X115456635Y-67429000D01*
X115683365Y-67429000D01*
X115794549Y-67451116D01*
G37*
G36*
X202154549Y-67451116D02*
G01*
X202265734Y-67473232D01*
X202475203Y-67559997D01*
X202663720Y-67685960D01*
X202824040Y-67846280D01*
X202950003Y-68034797D01*
X203036768Y-68244266D01*
X203081000Y-68466636D01*
X203081000Y-68693364D01*
X203036768Y-68915734D01*
X202950003Y-69125203D01*
X202824040Y-69313720D01*
X202663720Y-69474040D01*
X202475203Y-69600003D01*
X202265734Y-69686768D01*
X202154549Y-69708884D01*
X202043365Y-69731000D01*
X201816635Y-69731000D01*
X201705451Y-69708884D01*
X201594266Y-69686768D01*
X201384797Y-69600003D01*
X201196280Y-69474040D01*
X201035960Y-69313720D01*
X200909997Y-69125203D01*
X200823232Y-68915734D01*
X200779000Y-68693364D01*
X200779000Y-68466636D01*
X200823232Y-68244266D01*
X200909997Y-68034797D01*
X201035960Y-67846280D01*
X201196280Y-67685960D01*
X201384797Y-67559997D01*
X201594266Y-67473232D01*
X201705451Y-67451116D01*
X201816635Y-67429000D01*
X202043365Y-67429000D01*
X202154549Y-67451116D01*
G37*
G36*
X183104549Y-67451116D02*
G01*
X183215734Y-67473232D01*
X183425203Y-67559997D01*
X183613720Y-67685960D01*
X183774040Y-67846280D01*
X183900003Y-68034797D01*
X183986768Y-68244266D01*
X184031000Y-68466636D01*
X184031000Y-68693364D01*
X183986768Y-68915734D01*
X183900003Y-69125203D01*
X183774040Y-69313720D01*
X183613720Y-69474040D01*
X183425203Y-69600003D01*
X183215734Y-69686768D01*
X183104549Y-69708884D01*
X182993365Y-69731000D01*
X182766635Y-69731000D01*
X182655451Y-69708884D01*
X182544266Y-69686768D01*
X182334797Y-69600003D01*
X182146280Y-69474040D01*
X181985960Y-69313720D01*
X181859997Y-69125203D01*
X181773232Y-68915734D01*
X181729000Y-68693364D01*
X181729000Y-68466636D01*
X181773232Y-68244266D01*
X181859997Y-68034797D01*
X181985960Y-67846280D01*
X182146280Y-67685960D01*
X182334797Y-67559997D01*
X182544266Y-67473232D01*
X182655451Y-67451116D01*
X182766635Y-67429000D01*
X182993365Y-67429000D01*
X183104549Y-67451116D01*
G37*
G36*
X96744549Y-67451116D02*
G01*
X96855734Y-67473232D01*
X97065203Y-67559997D01*
X97253720Y-67685960D01*
X97414040Y-67846280D01*
X97540003Y-68034797D01*
X97626768Y-68244266D01*
X97671000Y-68466636D01*
X97671000Y-68693364D01*
X97626768Y-68915734D01*
X97540003Y-69125203D01*
X97414040Y-69313720D01*
X97253720Y-69474040D01*
X97065203Y-69600003D01*
X96855734Y-69686768D01*
X96744549Y-69708884D01*
X96633365Y-69731000D01*
X96406635Y-69731000D01*
X96295451Y-69708884D01*
X96184266Y-69686768D01*
X95974797Y-69600003D01*
X95786280Y-69474040D01*
X95625960Y-69313720D01*
X95499997Y-69125203D01*
X95413232Y-68915734D01*
X95369000Y-68693364D01*
X95369000Y-68466636D01*
X95413232Y-68244266D01*
X95499997Y-68034797D01*
X95625960Y-67846280D01*
X95786280Y-67685960D01*
X95974797Y-67559997D01*
X96184266Y-67473232D01*
X96295451Y-67451116D01*
X96406635Y-67429000D01*
X96633365Y-67429000D01*
X96744549Y-67451116D01*
G37*
G36*
X135376228Y-57601703D02*
G01*
X135531100Y-57665853D01*
X135670481Y-57758985D01*
X135789015Y-57877519D01*
X135882147Y-58016900D01*
X135946297Y-58171772D01*
X135979000Y-58336184D01*
X135979000Y-58503816D01*
X135946297Y-58668228D01*
X135882147Y-58823100D01*
X135789015Y-58962481D01*
X135670481Y-59081015D01*
X135531100Y-59174147D01*
X135376228Y-59238297D01*
X135211816Y-59271000D01*
X135044184Y-59271000D01*
X134879772Y-59238297D01*
X134724900Y-59174147D01*
X134585519Y-59081015D01*
X134466985Y-58962481D01*
X134373853Y-58823100D01*
X134309703Y-58668228D01*
X134277000Y-58503816D01*
X134277000Y-58336184D01*
X134309703Y-58171772D01*
X134373853Y-58016900D01*
X134466985Y-57877519D01*
X134585519Y-57758985D01*
X134724900Y-57665853D01*
X134879772Y-57601703D01*
X135044184Y-57569000D01*
X135211816Y-57569000D01*
X135376228Y-57601703D01*
G37*
G36*
X177540228Y-57601703D02*
G01*
X177695100Y-57665853D01*
X177834481Y-57758985D01*
X177953015Y-57877519D01*
X178046147Y-58016900D01*
X178110297Y-58171772D01*
X178143000Y-58336184D01*
X178143000Y-58503816D01*
X178110297Y-58668228D01*
X178046147Y-58823100D01*
X177953015Y-58962481D01*
X177834481Y-59081015D01*
X177695100Y-59174147D01*
X177540228Y-59238297D01*
X177375816Y-59271000D01*
X177208184Y-59271000D01*
X177043772Y-59238297D01*
X176888900Y-59174147D01*
X176749519Y-59081015D01*
X176630985Y-58962481D01*
X176537853Y-58823100D01*
X176473703Y-58668228D01*
X176441000Y-58503816D01*
X176441000Y-58336184D01*
X176473703Y-58171772D01*
X176537853Y-58016900D01*
X176630985Y-57877519D01*
X176749519Y-57758985D01*
X176888900Y-57665853D01*
X177043772Y-57601703D01*
X177208184Y-57569000D01*
X177375816Y-57569000D01*
X177540228Y-57601703D01*
G37*
G36*
X172460228Y-57601703D02*
G01*
X172615100Y-57665853D01*
X172754481Y-57758985D01*
X172873015Y-57877519D01*
X172966147Y-58016900D01*
X173030297Y-58171772D01*
X173063000Y-58336184D01*
X173063000Y-58503816D01*
X173030297Y-58668228D01*
X172966147Y-58823100D01*
X172873015Y-58962481D01*
X172754481Y-59081015D01*
X172615100Y-59174147D01*
X172460228Y-59238297D01*
X172295816Y-59271000D01*
X172128184Y-59271000D01*
X171963772Y-59238297D01*
X171808900Y-59174147D01*
X171669519Y-59081015D01*
X171550985Y-58962481D01*
X171457853Y-58823100D01*
X171393703Y-58668228D01*
X171361000Y-58503816D01*
X171361000Y-58336184D01*
X171393703Y-58171772D01*
X171457853Y-58016900D01*
X171550985Y-57877519D01*
X171669519Y-57758985D01*
X171808900Y-57665853D01*
X171963772Y-57601703D01*
X172128184Y-57569000D01*
X172295816Y-57569000D01*
X172460228Y-57601703D01*
G37*
G36*
X140456228Y-57601703D02*
G01*
X140611100Y-57665853D01*
X140750481Y-57758985D01*
X140869015Y-57877519D01*
X140962147Y-58016900D01*
X141026297Y-58171772D01*
X141059000Y-58336184D01*
X141059000Y-58503816D01*
X141026297Y-58668228D01*
X140962147Y-58823100D01*
X140869015Y-58962481D01*
X140750481Y-59081015D01*
X140611100Y-59174147D01*
X140456228Y-59238297D01*
X140291816Y-59271000D01*
X140124184Y-59271000D01*
X139959772Y-59238297D01*
X139804900Y-59174147D01*
X139665519Y-59081015D01*
X139546985Y-58962481D01*
X139453853Y-58823100D01*
X139389703Y-58668228D01*
X139357000Y-58503816D01*
X139357000Y-58336184D01*
X139389703Y-58171772D01*
X139453853Y-58016900D01*
X139546985Y-57877519D01*
X139665519Y-57758985D01*
X139804900Y-57665853D01*
X139959772Y-57601703D01*
X140124184Y-57569000D01*
X140291816Y-57569000D01*
X140456228Y-57601703D01*
G37*
G36*
X108293000Y-58001000D02*
G01*
X106591000Y-58001000D01*
X106591000Y-56299000D01*
X108293000Y-56299000D01*
X108293000Y-58001000D01*
G37*
G36*
X202360228Y-56331703D02*
G01*
X202515100Y-56395853D01*
X202654481Y-56488985D01*
X202773015Y-56607519D01*
X202866147Y-56746900D01*
X202930297Y-56901772D01*
X202963000Y-57066184D01*
X202963000Y-57233816D01*
X202930297Y-57398228D01*
X202866147Y-57553100D01*
X202773015Y-57692481D01*
X202654481Y-57811015D01*
X202515100Y-57904147D01*
X202360228Y-57968297D01*
X202195816Y-58001000D01*
X202028184Y-58001000D01*
X201863772Y-57968297D01*
X201708900Y-57904147D01*
X201569519Y-57811015D01*
X201450985Y-57692481D01*
X201357853Y-57553100D01*
X201293703Y-57398228D01*
X201261000Y-57233816D01*
X201261000Y-57066184D01*
X201293703Y-56901772D01*
X201357853Y-56746900D01*
X201450985Y-56607519D01*
X201569519Y-56488985D01*
X201708900Y-56395853D01*
X201863772Y-56331703D01*
X202028184Y-56299000D01*
X202195816Y-56299000D01*
X202360228Y-56331703D01*
G37*
G36*
X194653000Y-58001000D02*
G01*
X192951000Y-58001000D01*
X192951000Y-56299000D01*
X194653000Y-56299000D01*
X194653000Y-58001000D01*
G37*
G36*
X196820228Y-56331703D02*
G01*
X196975100Y-56395853D01*
X197114481Y-56488985D01*
X197233015Y-56607519D01*
X197326147Y-56746900D01*
X197390297Y-56901772D01*
X197423000Y-57066184D01*
X197423000Y-57233816D01*
X197390297Y-57398228D01*
X197326147Y-57553100D01*
X197233015Y-57692481D01*
X197114481Y-57811015D01*
X196975100Y-57904147D01*
X196820228Y-57968297D01*
X196655816Y-58001000D01*
X196488184Y-58001000D01*
X196323772Y-57968297D01*
X196168900Y-57904147D01*
X196029519Y-57811015D01*
X195910985Y-57692481D01*
X195817853Y-57553100D01*
X195753703Y-57398228D01*
X195721000Y-57233816D01*
X195721000Y-57066184D01*
X195753703Y-56901772D01*
X195817853Y-56746900D01*
X195910985Y-56607519D01*
X196029519Y-56488985D01*
X196168900Y-56395853D01*
X196323772Y-56331703D01*
X196488184Y-56299000D01*
X196655816Y-56299000D01*
X196820228Y-56331703D01*
G37*
G36*
X199590228Y-56331703D02*
G01*
X199745100Y-56395853D01*
X199884481Y-56488985D01*
X200003015Y-56607519D01*
X200096147Y-56746900D01*
X200160297Y-56901772D01*
X200193000Y-57066184D01*
X200193000Y-57233816D01*
X200160297Y-57398228D01*
X200096147Y-57553100D01*
X200003015Y-57692481D01*
X199884481Y-57811015D01*
X199745100Y-57904147D01*
X199590228Y-57968297D01*
X199425816Y-58001000D01*
X199258184Y-58001000D01*
X199093772Y-57968297D01*
X198938900Y-57904147D01*
X198799519Y-57811015D01*
X198680985Y-57692481D01*
X198587853Y-57553100D01*
X198523703Y-57398228D01*
X198491000Y-57233816D01*
X198491000Y-57066184D01*
X198523703Y-56901772D01*
X198587853Y-56746900D01*
X198680985Y-56607519D01*
X198799519Y-56488985D01*
X198938900Y-56395853D01*
X199093772Y-56331703D01*
X199258184Y-56299000D01*
X199425816Y-56299000D01*
X199590228Y-56331703D01*
G37*
G36*
X205130228Y-56331703D02*
G01*
X205285100Y-56395853D01*
X205424481Y-56488985D01*
X205543015Y-56607519D01*
X205636147Y-56746900D01*
X205700297Y-56901772D01*
X205733000Y-57066184D01*
X205733000Y-57233816D01*
X205700297Y-57398228D01*
X205636147Y-57553100D01*
X205543015Y-57692481D01*
X205424481Y-57811015D01*
X205285100Y-57904147D01*
X205130228Y-57968297D01*
X204965816Y-58001000D01*
X204798184Y-58001000D01*
X204633772Y-57968297D01*
X204478900Y-57904147D01*
X204339519Y-57811015D01*
X204220985Y-57692481D01*
X204127853Y-57553100D01*
X204063703Y-57398228D01*
X204031000Y-57233816D01*
X204031000Y-57066184D01*
X204063703Y-56901772D01*
X204127853Y-56746900D01*
X204220985Y-56607519D01*
X204339519Y-56488985D01*
X204478900Y-56395853D01*
X204633772Y-56331703D01*
X204798184Y-56299000D01*
X204965816Y-56299000D01*
X205130228Y-56331703D01*
G37*
G36*
X110460228Y-56331703D02*
G01*
X110615100Y-56395853D01*
X110754481Y-56488985D01*
X110873015Y-56607519D01*
X110966147Y-56746900D01*
X111030297Y-56901772D01*
X111063000Y-57066184D01*
X111063000Y-57233816D01*
X111030297Y-57398228D01*
X110966147Y-57553100D01*
X110873015Y-57692481D01*
X110754481Y-57811015D01*
X110615100Y-57904147D01*
X110460228Y-57968297D01*
X110295816Y-58001000D01*
X110128184Y-58001000D01*
X109963772Y-57968297D01*
X109808900Y-57904147D01*
X109669519Y-57811015D01*
X109550985Y-57692481D01*
X109457853Y-57553100D01*
X109393703Y-57398228D01*
X109361000Y-57233816D01*
X109361000Y-57066184D01*
X109393703Y-56901772D01*
X109457853Y-56746900D01*
X109550985Y-56607519D01*
X109669519Y-56488985D01*
X109808900Y-56395853D01*
X109963772Y-56331703D01*
X110128184Y-56299000D01*
X110295816Y-56299000D01*
X110460228Y-56331703D01*
G37*
G36*
X113230228Y-56331703D02*
G01*
X113385100Y-56395853D01*
X113524481Y-56488985D01*
X113643015Y-56607519D01*
X113736147Y-56746900D01*
X113800297Y-56901772D01*
X113833000Y-57066184D01*
X113833000Y-57233816D01*
X113800297Y-57398228D01*
X113736147Y-57553100D01*
X113643015Y-57692481D01*
X113524481Y-57811015D01*
X113385100Y-57904147D01*
X113230228Y-57968297D01*
X113065816Y-58001000D01*
X112898184Y-58001000D01*
X112733772Y-57968297D01*
X112578900Y-57904147D01*
X112439519Y-57811015D01*
X112320985Y-57692481D01*
X112227853Y-57553100D01*
X112163703Y-57398228D01*
X112131000Y-57233816D01*
X112131000Y-57066184D01*
X112163703Y-56901772D01*
X112227853Y-56746900D01*
X112320985Y-56607519D01*
X112439519Y-56488985D01*
X112578900Y-56395853D01*
X112733772Y-56331703D01*
X112898184Y-56299000D01*
X113065816Y-56299000D01*
X113230228Y-56331703D01*
G37*
G36*
X116000228Y-56331703D02*
G01*
X116155100Y-56395853D01*
X116294481Y-56488985D01*
X116413015Y-56607519D01*
X116506147Y-56746900D01*
X116570297Y-56901772D01*
X116603000Y-57066184D01*
X116603000Y-57233816D01*
X116570297Y-57398228D01*
X116506147Y-57553100D01*
X116413015Y-57692481D01*
X116294481Y-57811015D01*
X116155100Y-57904147D01*
X116000228Y-57968297D01*
X115835816Y-58001000D01*
X115668184Y-58001000D01*
X115503772Y-57968297D01*
X115348900Y-57904147D01*
X115209519Y-57811015D01*
X115090985Y-57692481D01*
X114997853Y-57553100D01*
X114933703Y-57398228D01*
X114901000Y-57233816D01*
X114901000Y-57066184D01*
X114933703Y-56901772D01*
X114997853Y-56746900D01*
X115090985Y-56607519D01*
X115209519Y-56488985D01*
X115348900Y-56395853D01*
X115503772Y-56331703D01*
X115668184Y-56299000D01*
X115835816Y-56299000D01*
X116000228Y-56331703D01*
G37*
G36*
X118770228Y-56331703D02*
G01*
X118925100Y-56395853D01*
X119064481Y-56488985D01*
X119183015Y-56607519D01*
X119276147Y-56746900D01*
X119340297Y-56901772D01*
X119373000Y-57066184D01*
X119373000Y-57233816D01*
X119340297Y-57398228D01*
X119276147Y-57553100D01*
X119183015Y-57692481D01*
X119064481Y-57811015D01*
X118925100Y-57904147D01*
X118770228Y-57968297D01*
X118605816Y-58001000D01*
X118438184Y-58001000D01*
X118273772Y-57968297D01*
X118118900Y-57904147D01*
X117979519Y-57811015D01*
X117860985Y-57692481D01*
X117767853Y-57553100D01*
X117703703Y-57398228D01*
X117671000Y-57233816D01*
X117671000Y-57066184D01*
X117703703Y-56901772D01*
X117767853Y-56746900D01*
X117860985Y-56607519D01*
X117979519Y-56488985D01*
X118118900Y-56395853D01*
X118273772Y-56331703D01*
X118438184Y-56299000D01*
X118605816Y-56299000D01*
X118770228Y-56331703D01*
G37*
G36*
X187440254Y-53757818D02*
G01*
X187800170Y-53906900D01*
X187813513Y-53912427D01*
X188149436Y-54136884D01*
X188435116Y-54422564D01*
X188525765Y-54558229D01*
X188659574Y-54758489D01*
X188814182Y-55131746D01*
X188893000Y-55527993D01*
X188893000Y-55932007D01*
X188814182Y-56328254D01*
X188698506Y-56607520D01*
X188659573Y-56701513D01*
X188435116Y-57037436D01*
X188149436Y-57323116D01*
X187813513Y-57547573D01*
X187813512Y-57547574D01*
X187813511Y-57547574D01*
X187440254Y-57702182D01*
X187044007Y-57781000D01*
X186639993Y-57781000D01*
X186243746Y-57702182D01*
X185870489Y-57547574D01*
X185870488Y-57547574D01*
X185870487Y-57547573D01*
X185534564Y-57323116D01*
X185248884Y-57037436D01*
X185024427Y-56701513D01*
X184985494Y-56607520D01*
X184869818Y-56328254D01*
X184791000Y-55932007D01*
X184791000Y-55527993D01*
X184869818Y-55131746D01*
X185024426Y-54758489D01*
X185158236Y-54558229D01*
X185248884Y-54422564D01*
X185534564Y-54136884D01*
X185870487Y-53912427D01*
X185883830Y-53906900D01*
X186243746Y-53757818D01*
X186639993Y-53679000D01*
X187044007Y-53679000D01*
X187440254Y-53757818D01*
G37*
G36*
X126080254Y-53757818D02*
G01*
X126440170Y-53906900D01*
X126453513Y-53912427D01*
X126789436Y-54136884D01*
X127075116Y-54422564D01*
X127165765Y-54558229D01*
X127299574Y-54758489D01*
X127454182Y-55131746D01*
X127533000Y-55527993D01*
X127533000Y-55932007D01*
X127454182Y-56328254D01*
X127338506Y-56607520D01*
X127299573Y-56701513D01*
X127075116Y-57037436D01*
X126789436Y-57323116D01*
X126453513Y-57547573D01*
X126453512Y-57547574D01*
X126453511Y-57547574D01*
X126080254Y-57702182D01*
X125684007Y-57781000D01*
X125279993Y-57781000D01*
X124883746Y-57702182D01*
X124510489Y-57547574D01*
X124510488Y-57547574D01*
X124510487Y-57547573D01*
X124174564Y-57323116D01*
X123888884Y-57037436D01*
X123664427Y-56701513D01*
X123625494Y-56607520D01*
X123509818Y-56328254D01*
X123431000Y-55932007D01*
X123431000Y-55527993D01*
X123509818Y-55131746D01*
X123664426Y-54758489D01*
X123798236Y-54558229D01*
X123888884Y-54422564D01*
X124174564Y-54136884D01*
X124510487Y-53912427D01*
X124523830Y-53906900D01*
X124883746Y-53757818D01*
X125279993Y-53679000D01*
X125684007Y-53679000D01*
X126080254Y-53757818D01*
G37*
G36*
X101080254Y-53757818D02*
G01*
X101440170Y-53906900D01*
X101453513Y-53912427D01*
X101789436Y-54136884D01*
X102075116Y-54422564D01*
X102165765Y-54558229D01*
X102299574Y-54758489D01*
X102454182Y-55131746D01*
X102533000Y-55527993D01*
X102533000Y-55932007D01*
X102454182Y-56328254D01*
X102338506Y-56607520D01*
X102299573Y-56701513D01*
X102075116Y-57037436D01*
X101789436Y-57323116D01*
X101453513Y-57547573D01*
X101453512Y-57547574D01*
X101453511Y-57547574D01*
X101080254Y-57702182D01*
X100684007Y-57781000D01*
X100279993Y-57781000D01*
X99883746Y-57702182D01*
X99510489Y-57547574D01*
X99510488Y-57547574D01*
X99510487Y-57547573D01*
X99174564Y-57323116D01*
X98888884Y-57037436D01*
X98664427Y-56701513D01*
X98625494Y-56607520D01*
X98509818Y-56328254D01*
X98431000Y-55932007D01*
X98431000Y-55527993D01*
X98509818Y-55131746D01*
X98664426Y-54758489D01*
X98798236Y-54558229D01*
X98888884Y-54422564D01*
X99174564Y-54136884D01*
X99510487Y-53912427D01*
X99523830Y-53906900D01*
X99883746Y-53757818D01*
X100279993Y-53679000D01*
X100684007Y-53679000D01*
X101080254Y-53757818D01*
G37*
G36*
X212440254Y-53757818D02*
G01*
X212800170Y-53906900D01*
X212813513Y-53912427D01*
X213149436Y-54136884D01*
X213435116Y-54422564D01*
X213525765Y-54558229D01*
X213659574Y-54758489D01*
X213814182Y-55131746D01*
X213893000Y-55527993D01*
X213893000Y-55932007D01*
X213814182Y-56328254D01*
X213698506Y-56607520D01*
X213659573Y-56701513D01*
X213435116Y-57037436D01*
X213149436Y-57323116D01*
X212813513Y-57547573D01*
X212813512Y-57547574D01*
X212813511Y-57547574D01*
X212440254Y-57702182D01*
X212044007Y-57781000D01*
X211639993Y-57781000D01*
X211243746Y-57702182D01*
X210870489Y-57547574D01*
X210870488Y-57547574D01*
X210870487Y-57547573D01*
X210534564Y-57323116D01*
X210248884Y-57037436D01*
X210024427Y-56701513D01*
X209985494Y-56607520D01*
X209869818Y-56328254D01*
X209791000Y-55932007D01*
X209791000Y-55527993D01*
X209869818Y-55131746D01*
X210024426Y-54758489D01*
X210158236Y-54558229D01*
X210248884Y-54422564D01*
X210534564Y-54136884D01*
X210870487Y-53912427D01*
X210883830Y-53906900D01*
X211243746Y-53757818D01*
X211639993Y-53679000D01*
X212044007Y-53679000D01*
X212440254Y-53757818D01*
G37*
G36*
X109075228Y-53491703D02*
G01*
X109230100Y-53555853D01*
X109369481Y-53648985D01*
X109488015Y-53767519D01*
X109581147Y-53906900D01*
X109645297Y-54061772D01*
X109678000Y-54226184D01*
X109678000Y-54393816D01*
X109645297Y-54558228D01*
X109581147Y-54713100D01*
X109488015Y-54852481D01*
X109369481Y-54971015D01*
X109230100Y-55064147D01*
X109075228Y-55128297D01*
X108910816Y-55161000D01*
X108743184Y-55161000D01*
X108578772Y-55128297D01*
X108423900Y-55064147D01*
X108284519Y-54971015D01*
X108165985Y-54852481D01*
X108072853Y-54713100D01*
X108008703Y-54558228D01*
X107976000Y-54393816D01*
X107976000Y-54226184D01*
X108008703Y-54061772D01*
X108072853Y-53906900D01*
X108165985Y-53767519D01*
X108284519Y-53648985D01*
X108423900Y-53555853D01*
X108578772Y-53491703D01*
X108743184Y-53459000D01*
X108910816Y-53459000D01*
X109075228Y-53491703D01*
G37*
G36*
X117385228Y-53491703D02*
G01*
X117540100Y-53555853D01*
X117679481Y-53648985D01*
X117798015Y-53767519D01*
X117891147Y-53906900D01*
X117955297Y-54061772D01*
X117988000Y-54226184D01*
X117988000Y-54393816D01*
X117955297Y-54558228D01*
X117891147Y-54713100D01*
X117798015Y-54852481D01*
X117679481Y-54971015D01*
X117540100Y-55064147D01*
X117385228Y-55128297D01*
X117220816Y-55161000D01*
X117053184Y-55161000D01*
X116888772Y-55128297D01*
X116733900Y-55064147D01*
X116594519Y-54971015D01*
X116475985Y-54852481D01*
X116382853Y-54713100D01*
X116318703Y-54558228D01*
X116286000Y-54393816D01*
X116286000Y-54226184D01*
X116318703Y-54061772D01*
X116382853Y-53906900D01*
X116475985Y-53767519D01*
X116594519Y-53648985D01*
X116733900Y-53555853D01*
X116888772Y-53491703D01*
X117053184Y-53459000D01*
X117220816Y-53459000D01*
X117385228Y-53491703D01*
G37*
G36*
X203745228Y-53491703D02*
G01*
X203900100Y-53555853D01*
X204039481Y-53648985D01*
X204158015Y-53767519D01*
X204251147Y-53906900D01*
X204315297Y-54061772D01*
X204348000Y-54226184D01*
X204348000Y-54393816D01*
X204315297Y-54558228D01*
X204251147Y-54713100D01*
X204158015Y-54852481D01*
X204039481Y-54971015D01*
X203900100Y-55064147D01*
X203745228Y-55128297D01*
X203580816Y-55161000D01*
X203413184Y-55161000D01*
X203248772Y-55128297D01*
X203093900Y-55064147D01*
X202954519Y-54971015D01*
X202835985Y-54852481D01*
X202742853Y-54713100D01*
X202678703Y-54558228D01*
X202646000Y-54393816D01*
X202646000Y-54226184D01*
X202678703Y-54061772D01*
X202742853Y-53906900D01*
X202835985Y-53767519D01*
X202954519Y-53648985D01*
X203093900Y-53555853D01*
X203248772Y-53491703D01*
X203413184Y-53459000D01*
X203580816Y-53459000D01*
X203745228Y-53491703D01*
G37*
G36*
X200975228Y-53491703D02*
G01*
X201130100Y-53555853D01*
X201269481Y-53648985D01*
X201388015Y-53767519D01*
X201481147Y-53906900D01*
X201545297Y-54061772D01*
X201578000Y-54226184D01*
X201578000Y-54393816D01*
X201545297Y-54558228D01*
X201481147Y-54713100D01*
X201388015Y-54852481D01*
X201269481Y-54971015D01*
X201130100Y-55064147D01*
X200975228Y-55128297D01*
X200810816Y-55161000D01*
X200643184Y-55161000D01*
X200478772Y-55128297D01*
X200323900Y-55064147D01*
X200184519Y-54971015D01*
X200065985Y-54852481D01*
X199972853Y-54713100D01*
X199908703Y-54558228D01*
X199876000Y-54393816D01*
X199876000Y-54226184D01*
X199908703Y-54061772D01*
X199972853Y-53906900D01*
X200065985Y-53767519D01*
X200184519Y-53648985D01*
X200323900Y-53555853D01*
X200478772Y-53491703D01*
X200643184Y-53459000D01*
X200810816Y-53459000D01*
X200975228Y-53491703D01*
G37*
G36*
X198205228Y-53491703D02*
G01*
X198360100Y-53555853D01*
X198499481Y-53648985D01*
X198618015Y-53767519D01*
X198711147Y-53906900D01*
X198775297Y-54061772D01*
X198808000Y-54226184D01*
X198808000Y-54393816D01*
X198775297Y-54558228D01*
X198711147Y-54713100D01*
X198618015Y-54852481D01*
X198499481Y-54971015D01*
X198360100Y-55064147D01*
X198205228Y-55128297D01*
X198040816Y-55161000D01*
X197873184Y-55161000D01*
X197708772Y-55128297D01*
X197553900Y-55064147D01*
X197414519Y-54971015D01*
X197295985Y-54852481D01*
X197202853Y-54713100D01*
X197138703Y-54558228D01*
X197106000Y-54393816D01*
X197106000Y-54226184D01*
X197138703Y-54061772D01*
X197202853Y-53906900D01*
X197295985Y-53767519D01*
X197414519Y-53648985D01*
X197553900Y-53555853D01*
X197708772Y-53491703D01*
X197873184Y-53459000D01*
X198040816Y-53459000D01*
X198205228Y-53491703D01*
G37*
G36*
X195435228Y-53491703D02*
G01*
X195590100Y-53555853D01*
X195729481Y-53648985D01*
X195848015Y-53767519D01*
X195941147Y-53906900D01*
X196005297Y-54061772D01*
X196038000Y-54226184D01*
X196038000Y-54393816D01*
X196005297Y-54558228D01*
X195941147Y-54713100D01*
X195848015Y-54852481D01*
X195729481Y-54971015D01*
X195590100Y-55064147D01*
X195435228Y-55128297D01*
X195270816Y-55161000D01*
X195103184Y-55161000D01*
X194938772Y-55128297D01*
X194783900Y-55064147D01*
X194644519Y-54971015D01*
X194525985Y-54852481D01*
X194432853Y-54713100D01*
X194368703Y-54558228D01*
X194336000Y-54393816D01*
X194336000Y-54226184D01*
X194368703Y-54061772D01*
X194432853Y-53906900D01*
X194525985Y-53767519D01*
X194644519Y-53648985D01*
X194783900Y-53555853D01*
X194938772Y-53491703D01*
X195103184Y-53459000D01*
X195270816Y-53459000D01*
X195435228Y-53491703D01*
G37*
G36*
X111845228Y-53491703D02*
G01*
X112000100Y-53555853D01*
X112139481Y-53648985D01*
X112258015Y-53767519D01*
X112351147Y-53906900D01*
X112415297Y-54061772D01*
X112448000Y-54226184D01*
X112448000Y-54393816D01*
X112415297Y-54558228D01*
X112351147Y-54713100D01*
X112258015Y-54852481D01*
X112139481Y-54971015D01*
X112000100Y-55064147D01*
X111845228Y-55128297D01*
X111680816Y-55161000D01*
X111513184Y-55161000D01*
X111348772Y-55128297D01*
X111193900Y-55064147D01*
X111054519Y-54971015D01*
X110935985Y-54852481D01*
X110842853Y-54713100D01*
X110778703Y-54558228D01*
X110746000Y-54393816D01*
X110746000Y-54226184D01*
X110778703Y-54061772D01*
X110842853Y-53906900D01*
X110935985Y-53767519D01*
X111054519Y-53648985D01*
X111193900Y-53555853D01*
X111348772Y-53491703D01*
X111513184Y-53459000D01*
X111680816Y-53459000D01*
X111845228Y-53491703D01*
G37*
G36*
X114615228Y-53491703D02*
G01*
X114770100Y-53555853D01*
X114909481Y-53648985D01*
X115028015Y-53767519D01*
X115121147Y-53906900D01*
X115185297Y-54061772D01*
X115218000Y-54226184D01*
X115218000Y-54393816D01*
X115185297Y-54558228D01*
X115121147Y-54713100D01*
X115028015Y-54852481D01*
X114909481Y-54971015D01*
X114770100Y-55064147D01*
X114615228Y-55128297D01*
X114450816Y-55161000D01*
X114283184Y-55161000D01*
X114118772Y-55128297D01*
X113963900Y-55064147D01*
X113824519Y-54971015D01*
X113705985Y-54852481D01*
X113612853Y-54713100D01*
X113548703Y-54558228D01*
X113516000Y-54393816D01*
X113516000Y-54226184D01*
X113548703Y-54061772D01*
X113612853Y-53906900D01*
X113705985Y-53767519D01*
X113824519Y-53648985D01*
X113963900Y-53555853D01*
X114118772Y-53491703D01*
X114283184Y-53459000D01*
X114450816Y-53459000D01*
X114615228Y-53491703D01*
G37*
G36*
X229452254Y-50097818D02*
G01*
X229754190Y-50222884D01*
X229825513Y-50252427D01*
X230161436Y-50476884D01*
X230447116Y-50762564D01*
X230671574Y-51098489D01*
X230826182Y-51471746D01*
X230905000Y-51867993D01*
X230905000Y-52272007D01*
X230826182Y-52668254D01*
X230776784Y-52787511D01*
X230671573Y-53041513D01*
X230447116Y-53377436D01*
X230161436Y-53663116D01*
X229825513Y-53887573D01*
X229825512Y-53887574D01*
X229825511Y-53887574D01*
X229452254Y-54042182D01*
X229056007Y-54121000D01*
X228651993Y-54121000D01*
X228255746Y-54042182D01*
X227882489Y-53887574D01*
X227882488Y-53887574D01*
X227882487Y-53887573D01*
X227546564Y-53663116D01*
X227260884Y-53377436D01*
X227036427Y-53041513D01*
X226931216Y-52787511D01*
X226881818Y-52668254D01*
X226803000Y-52272007D01*
X226803000Y-51867993D01*
X226881818Y-51471746D01*
X227036426Y-51098489D01*
X227260884Y-50762564D01*
X227546564Y-50476884D01*
X227882487Y-50252427D01*
X227953810Y-50222884D01*
X228255746Y-50097818D01*
X228651993Y-50019000D01*
X229056007Y-50019000D01*
X229452254Y-50097818D01*
G37*
G36*
X84164254Y-49843818D02*
G01*
X84537511Y-49998426D01*
X84537513Y-49998427D01*
X84873436Y-50222884D01*
X85159116Y-50508564D01*
X85328834Y-50762564D01*
X85383574Y-50844489D01*
X85538182Y-51217746D01*
X85617000Y-51613993D01*
X85617000Y-52018007D01*
X85538182Y-52414254D01*
X85432972Y-52668254D01*
X85383573Y-52787513D01*
X85159116Y-53123436D01*
X84873436Y-53409116D01*
X84537513Y-53633573D01*
X84537512Y-53633574D01*
X84537511Y-53633574D01*
X84164254Y-53788182D01*
X83768007Y-53867000D01*
X83363993Y-53867000D01*
X82967746Y-53788182D01*
X82594489Y-53633574D01*
X82594488Y-53633574D01*
X82594487Y-53633573D01*
X82258564Y-53409116D01*
X81972884Y-53123436D01*
X81748427Y-52787513D01*
X81699028Y-52668254D01*
X81593818Y-52414254D01*
X81515000Y-52018007D01*
X81515000Y-51613993D01*
X81593818Y-51217746D01*
X81748426Y-50844489D01*
X81803167Y-50762564D01*
X81972884Y-50508564D01*
X82258564Y-50222884D01*
X82594487Y-49998427D01*
X82594489Y-49998426D01*
X82967746Y-49843818D01*
X83363993Y-49765000D01*
X83768007Y-49765000D01*
X84164254Y-49843818D01*
G37*
G36*
X140456228Y-47441703D02*
G01*
X140611100Y-47505853D01*
X140750481Y-47598985D01*
X140869015Y-47717519D01*
X140962147Y-47856900D01*
X141026297Y-48011772D01*
X141059000Y-48176184D01*
X141059000Y-48343816D01*
X141026297Y-48508228D01*
X140962147Y-48663100D01*
X140869015Y-48802481D01*
X140750481Y-48921015D01*
X140611100Y-49014147D01*
X140456228Y-49078297D01*
X140291816Y-49111000D01*
X140124184Y-49111000D01*
X139959772Y-49078297D01*
X139804900Y-49014147D01*
X139665519Y-48921015D01*
X139546985Y-48802481D01*
X139453853Y-48663100D01*
X139389703Y-48508228D01*
X139357000Y-48343816D01*
X139357000Y-48176184D01*
X139389703Y-48011772D01*
X139453853Y-47856900D01*
X139546985Y-47717519D01*
X139665519Y-47598985D01*
X139804900Y-47505853D01*
X139959772Y-47441703D01*
X140124184Y-47409000D01*
X140291816Y-47409000D01*
X140456228Y-47441703D01*
G37*
G36*
X135376228Y-47441703D02*
G01*
X135531100Y-47505853D01*
X135670481Y-47598985D01*
X135789015Y-47717519D01*
X135882147Y-47856900D01*
X135946297Y-48011772D01*
X135979000Y-48176184D01*
X135979000Y-48343816D01*
X135946297Y-48508228D01*
X135882147Y-48663100D01*
X135789015Y-48802481D01*
X135670481Y-48921015D01*
X135531100Y-49014147D01*
X135376228Y-49078297D01*
X135211816Y-49111000D01*
X135044184Y-49111000D01*
X134879772Y-49078297D01*
X134724900Y-49014147D01*
X134585519Y-48921015D01*
X134466985Y-48802481D01*
X134373853Y-48663100D01*
X134309703Y-48508228D01*
X134277000Y-48343816D01*
X134277000Y-48176184D01*
X134309703Y-48011772D01*
X134373853Y-47856900D01*
X134466985Y-47717519D01*
X134585519Y-47598985D01*
X134724900Y-47505853D01*
X134879772Y-47441703D01*
X135044184Y-47409000D01*
X135211816Y-47409000D01*
X135376228Y-47441703D01*
G37*
G36*
X177540228Y-47441703D02*
G01*
X177695100Y-47505853D01*
X177834481Y-47598985D01*
X177953015Y-47717519D01*
X178046147Y-47856900D01*
X178110297Y-48011772D01*
X178143000Y-48176184D01*
X178143000Y-48343816D01*
X178110297Y-48508228D01*
X178046147Y-48663100D01*
X177953015Y-48802481D01*
X177834481Y-48921015D01*
X177695100Y-49014147D01*
X177540228Y-49078297D01*
X177375816Y-49111000D01*
X177208184Y-49111000D01*
X177043772Y-49078297D01*
X176888900Y-49014147D01*
X176749519Y-48921015D01*
X176630985Y-48802481D01*
X176537853Y-48663100D01*
X176473703Y-48508228D01*
X176441000Y-48343816D01*
X176441000Y-48176184D01*
X176473703Y-48011772D01*
X176537853Y-47856900D01*
X176630985Y-47717519D01*
X176749519Y-47598985D01*
X176888900Y-47505853D01*
X177043772Y-47441703D01*
X177208184Y-47409000D01*
X177375816Y-47409000D01*
X177540228Y-47441703D01*
G37*
G36*
X172460228Y-47441703D02*
G01*
X172615100Y-47505853D01*
X172754481Y-47598985D01*
X172873015Y-47717519D01*
X172966147Y-47856900D01*
X173030297Y-48011772D01*
X173063000Y-48176184D01*
X173063000Y-48343816D01*
X173030297Y-48508228D01*
X172966147Y-48663100D01*
X172873015Y-48802481D01*
X172754481Y-48921015D01*
X172615100Y-49014147D01*
X172460228Y-49078297D01*
X172295816Y-49111000D01*
X172128184Y-49111000D01*
X171963772Y-49078297D01*
X171808900Y-49014147D01*
X171669519Y-48921015D01*
X171550985Y-48802481D01*
X171457853Y-48663100D01*
X171393703Y-48508228D01*
X171361000Y-48343816D01*
X171361000Y-48176184D01*
X171393703Y-48011772D01*
X171457853Y-47856900D01*
X171550985Y-47717519D01*
X171669519Y-47598985D01*
X171808900Y-47505853D01*
X171963772Y-47441703D01*
X172128184Y-47409000D01*
X172295816Y-47409000D01*
X172460228Y-47441703D01*
G37*
M02*
