M48
; DRILL file {KiCad (5.1.6-0-10_14)} date Sunday, November 01, 2020 at 06:04:17 PM
; FORMAT={-:-/ absolute / metric / decimal}
; #@! TF.CreationDate,2020-11-01T18:04:17+01:00
; #@! TF.GenerationSoftware,Kicad,Pcbnew,(5.1.6-0-10_14)
; #@! TF.FileFunction,NonPlated,1,2,NPTH
FMAT,2
METRIC
T1C1.700
T2C4.000
%
G90
G05
T1
X127.0Y-111.76
X137.16Y-111.76
X107.95Y-92.71
X118.11Y-92.71
X213.36Y-92.71
X223.52Y-92.71
X127.0Y-73.66
X137.16Y-73.66
X107.95Y-111.76
X118.11Y-111.76
X194.31Y-92.71
X204.47Y-92.71
X88.9Y-73.66
X99.06Y-73.66
X127.0Y-130.81
X137.16Y-130.81
X88.9Y-130.81
X99.06Y-130.81
X175.26Y-92.71
X185.42Y-92.71
X213.36Y-130.81
X223.52Y-130.81
X213.36Y-73.66
X223.52Y-73.66
X127.0Y-92.71
X137.16Y-92.71
X88.9Y-92.71
X99.06Y-92.71
X194.31Y-73.66
X204.47Y-73.66
X175.26Y-73.66
X185.42Y-73.66
X107.95Y-73.66
X118.11Y-73.66
X88.9Y-111.76
X99.06Y-111.76
X194.31Y-130.81
X204.47Y-130.81
X175.26Y-130.81
X185.42Y-130.81
X213.36Y-111.76
X223.52Y-111.76
X194.31Y-111.76
X204.47Y-111.76
X107.95Y-130.81
X118.11Y-130.81
X175.26Y-111.76
X185.42Y-111.76
T2
X180.34Y-73.66
X113.03Y-73.66
X93.98Y-111.76
X199.39Y-130.81
X180.34Y-130.81
X218.44Y-111.76
X199.39Y-111.76
X83.566Y-148.844
X113.03Y-130.81
X180.34Y-111.76
X132.08Y-111.76
X113.03Y-92.71
X228.854Y-148.844
X218.44Y-92.71
X132.08Y-73.66
X113.03Y-111.76
X199.39Y-92.71
X93.98Y-73.66
X83.566Y-51.816
X132.08Y-130.81
X93.98Y-130.81
X180.34Y-92.71
X218.44Y-130.81
X218.44Y-73.66
X228.854Y-52.07
X132.08Y-92.71
X93.98Y-92.71
X199.39Y-73.66
T0
M30
